<?xml version="1.0" encoding="UTF-8" standalone="no"?>
<svg
   xmlns:dc="http://purl.org/dc/elements/1.1/"
   xmlns:cc="http://creativecommons.org/ns#"
   xmlns:rdf="http://www.w3.org/1999/02/22-rdf-syntax-ns#"
   xmlns:svg="http://www.w3.org/2000/svg"
   xmlns="http://www.w3.org/2000/svg"
   viewBox="0 0 288 198.66667"
   height="198.66667"
   width="288"
   xml:space="preserve"
   id="svg2"
   version="1.1"><metadata
     id="metadata8"><rdf:RDF><cc:Work
         rdf:about=""><dc:format>image/svg+xml</dc:format><dc:type
           rdf:resource="http://purl.org/dc/dcmitype/StillImage" /></cc:Work></rdf:RDF></metadata><defs
     id="defs6"><clipPath
       id="clipPath20"
       clipPathUnits="userSpaceOnUse"><path
         id="path18"
         d="M 0,10 H 2160 V 1490 H 0 Z" /></clipPath></defs><g
     transform="matrix(1.3333333,0,0,-1.3333333,0,198.66667)"
     id="g10"><g
       transform="scale(0.1)"
       id="g12"><g
         id="g14"><g
           clip-path="url(#clipPath20)"
           id="g16"><path
             id="path22"
             style="fill:#000000;fill-opacity:1;fill-rule:nonzero;stroke:none"
             d="m 2121.37,820.699 -640,640.001 c -39.07,39.06 -102.39,39.06 -141.41,0 -39.06,-39.06 -39.06,-102.34 0,-141.41 L 1809.22,850 H 100 C 44.7695,850 0,805.23 0,750 0,694.762 44.7695,650 100,650 H 1809.22 L 1339.96,180.699 C 1300.9,141.641 1300.9,78.3594 1339.96,39.2891 1359.49,19.7617 1385.08,10 1410.66,10 c 25.59,0 51.22,9.7617 70.71,29.2891 l 640,639.9999 c 39.06,39.07 39.06,102.352 0,141.41 z" /></g></g></g></g></svg>