<?xml version="1.0" encoding="UTF-8" standalone="no"?>
<svg
   xmlns:dc="http://purl.org/dc/elements/1.1/"
   xmlns:cc="http://creativecommons.org/ns#"
   xmlns:rdf="http://www.w3.org/1999/02/22-rdf-syntax-ns#"
   xmlns:svg="http://www.w3.org/2000/svg"
   xmlns="http://www.w3.org/2000/svg"
   viewBox="0 0 132.11133 86.97187"
   height="86.97187"
   width="132.11133"
   xml:space="preserve"
   id="svg2"
   version="1.1"><metadata
     id="metadata8"><rdf:RDF><cc:Work
         rdf:about=""><dc:format>image/svg+xml</dc:format><dc:type
           rdf:resource="http://purl.org/dc/dcmitype/StillImage" /></cc:Work></rdf:RDF></metadata><defs
     id="defs6"><clipPath
       id="clipPath24"
       clipPathUnits="userSpaceOnUse"><path
         id="path22"
         d="M 0,65.229 H 99.083 V 0 H 0 Z" /></clipPath></defs><g
     transform="matrix(1.3333333,0,0,-1.3333333,0,86.971867)"
     id="g10"><path
       id="path12"
       style="fill:#2b2b2a;fill-opacity:1;fill-rule:nonzero;stroke:none"
       d="m 51.251,50.334 h 0.982 v 14.894 h -0.982 z" /><g
       transform="translate(52.2324,65.2284)"
       id="g14"><path
         id="path16"
         style="fill:#e5662d;fill-opacity:1;fill-rule:nonzero;stroke:none"
         d="M 0,0 V -7.407 H 11.168 L 5.584,-3.703 11.168,0 Z" /></g><g
       id="g18"><g
         clip-path="url(#clipPath24)"
         id="g20"><g
           transform="translate(53.579,51.9727)"
           id="g26"><path
             id="path28"
             style="fill:#f3a527;fill-opacity:1;fill-rule:nonzero;stroke:none"
             d="M 0,0 H -2.692 C -5.819,0 -8.421,-2.404 -8.667,-5.521 L -11.632,-43.08 H 8.939 L 5.975,-5.521 C 5.729,-2.404 3.127,0 0,0" /></g><g
           transform="translate(63.9911,41.4844)"
           id="g30"><path
             id="path32"
             style="fill:#fecb52;fill-opacity:1;fill-rule:nonzero;stroke:none"
             d="m 0,0 h -23.517 l -5.808,-37.433 H 5.809 Z" /></g><g
           transform="translate(70.2099,18.251)"
           id="g34"><path
             id="path36"
             style="fill:#f3a527;fill-opacity:1;fill-rule:nonzero;stroke:none"
             d="m 0,0 h -35.954 l -1.048,-14.199 h 38.05 z" /></g><g
           transform="translate(46.2694,38.0411)"
           id="g38"><path
             id="path40"
             style="fill:#fecb52;fill-opacity:1;fill-rule:nonzero;stroke:none"
             d="m 0,0 h -6.035 v 4.825 c 0,1.666 1.35,3.018 3.017,3.018 C -1.351,7.843 0,6.491 0,4.825 Z" /></g><g
           transform="translate(64.2313,38.0411)"
           id="g42"><path
             id="path44"
             style="fill:#fecb52;fill-opacity:1;fill-rule:nonzero;stroke:none"
             d="m 0,0 h -6.035 v 4.825 c 0,1.666 1.35,3.018 3.017,3.018 C -1.351,7.843 0,6.491 0,4.825 Z" /></g><g
           transform="translate(54.9677,38.0411)"
           id="g46"><path
             id="path48"
             style="fill:#fecb52;fill-opacity:1;fill-rule:nonzero;stroke:none"
             d="m 0,0 h -6.035 v 4.825 c 0,1.666 1.351,3.018 3.017,3.018 C -1.351,7.843 0,6.491 0,4.825 Z" /></g><g
           transform="translate(13.0194,38.2256)"
           id="g50"><path
             id="path52"
             style="fill:#2b2b2a;fill-opacity:1;fill-rule:nonzero;stroke:none"
             d="m 0,0 v -37.496 h -5.989 v 31.091 l -7.031,-4.323 v 6.51 L -5.989,0 Z" /></g><g
           transform="translate(21.9696,36.0909)"
           id="g54"><path
             id="path56"
             style="fill:#2b2b2a;fill-opacity:1;fill-rule:nonzero;stroke:none"
             d="m 0,0 c 2.344,2.083 5.625,2.916 8.697,2.916 3.541,0 6.927,-1.25 9.114,-3.905 2.031,-2.24 3.125,-5.208 3.125,-8.229 0,-4.739 -2.188,-7.395 -6.146,-11.093 L 4.947,-29.789 H 20.415 V -35.31 H -4.218 v 5.521 l 15.831,14.582 c 2.395,2.187 3.281,4.219 3.281,6.041 0,1.614 -0.573,3.177 -1.614,4.375 -1.25,1.405 -2.969,2.187 -4.896,2.187 -1.666,0 -3.228,-0.677 -4.374,-1.771 C 2.76,-5.572 1.979,-7.291 1.979,-9.114 H -4.01 C -4.114,-5.625 -2.5,-2.239 0,0" /></g><g
           transform="translate(57.4755,33.4864)"
           id="g58"><path
             id="path60"
             style="fill:#2b2b2a;fill-opacity:1;fill-rule:nonzero;stroke:none"
             d="M 0,0 C -2.553,0 -4.948,-1.405 -6.198,-3.541 -7.083,-4.947 -7.291,-6.51 -7.291,-8.488 v -10.989 c 0,-1.77 0.104,-3.542 1.145,-5.156 1.354,-2.031 3.698,-3.333 6.146,-3.333 2.499,0 4.843,1.302 6.197,3.386 0.99,1.51 1.093,2.968 1.093,5.103 v 10.989 c 0,1.926 -0.052,3.228 -0.989,4.895 C 4.999,-1.405 2.552,0 0,0 m 0,-33.486 c -3.802,0 -7.604,1.406 -10.104,4.323 -2.5,2.968 -3.176,5.728 -3.176,9.686 v 10.989 c 0,3.906 0.625,6.666 3.176,9.738 C -7.708,4.011 -3.958,5.625 0,5.521 3.749,5.625 7.551,4.167 10.103,1.25 c 2.5,-2.864 3.176,-5.78 3.176,-9.738 v -10.989 c 0,-3.801 -0.625,-6.77 -3.124,-9.686 C 7.655,-32.027 4.01,-33.486 0,-33.486" /></g><g
           transform="translate(85.8046,33.4864)"
           id="g62"><path
             id="path64"
             style="fill:#2b2b2a;fill-opacity:1;fill-rule:nonzero;stroke:none"
             d="M 0,0 C -2.553,0 -4.948,-1.405 -6.198,-3.541 -7.083,-4.947 -7.291,-6.51 -7.291,-8.488 v -10.989 c 0,-1.77 0.104,-3.542 1.145,-5.156 1.354,-2.031 3.698,-3.333 6.146,-3.333 2.499,0 4.843,1.302 6.197,3.386 0.99,1.51 1.093,2.968 1.093,5.103 v 10.989 c 0,1.926 -0.052,3.228 -0.989,4.895 C 4.999,-1.405 2.552,0 0,0 m 0,-33.486 c -3.802,0 -7.604,1.406 -10.104,4.323 -2.5,2.968 -3.176,5.728 -3.176,9.686 v 10.989 c 0,3.906 0.625,6.666 3.176,9.738 C -7.708,4.011 -3.958,5.625 0,5.521 3.749,5.625 7.551,4.167 10.103,1.25 c 2.5,-2.864 3.176,-5.78 3.176,-9.738 v -10.989 c 0,-3.801 -0.625,-6.77 -3.124,-9.686 C 7.655,-32.027 4.01,-33.486 0,-33.486" /></g></g></g></g></svg>