<?xml version="1.0" encoding="UTF-8" standalone="no"?>
<svg
   xmlns:dc="http://purl.org/dc/elements/1.1/"
   xmlns:cc="http://creativecommons.org/ns#"
   xmlns:rdf="http://www.w3.org/1999/02/22-rdf-syntax-ns#"
   xmlns:svg="http://www.w3.org/2000/svg"
   xmlns="http://www.w3.org/2000/svg"
   viewBox="0 0 204.78 114.32427"
   height="114.32427"
   width="204.78"
   xml:space="preserve"
   id="svg2"
   version="1.1"><metadata
     id="metadata8"><rdf:RDF><cc:Work
         rdf:about=""><dc:format>image/svg+xml</dc:format><dc:type
           rdf:resource="http://purl.org/dc/dcmitype/StillImage" /></cc:Work></rdf:RDF></metadata><defs
     id="defs6"><clipPath
       id="clipPath18"
       clipPathUnits="userSpaceOnUse"><path
         id="path16"
         d="M 0,85.743 H 153.585 V 0 H 0 Z" /></clipPath></defs><g
     transform="matrix(1.3333333,0,0,-1.3333333,0,114.32427)"
     id="g10"><g
       id="g12"><g
         clip-path="url(#clipPath18)"
         id="g14"><g
           transform="translate(89.9405,50.9057)"
           id="g20"><path
             id="path22"
             style="fill:#4eb9b8;fill-opacity:1;fill-rule:nonzero;stroke:none"
             d="m 0,0 c 0,3.94 -1.233,7.59 -3.334,10.588 -2.405,3.433 -3.964,7.474 -3.609,11.649 0.086,1.018 0.04,2.074 -0.156,3.152 -0.838,4.606 -4.517,8.345 -9.115,9.227 -7.423,1.424 -13.912,-4.225 -13.912,-11.391 0,-0.317 0.012,-0.63 0.037,-0.941 0.339,-4.193 -1.19,-8.25 -3.604,-11.695 C -35.794,7.591 -37.028,3.941 -37.028,0 c 0,-3.94 1.233,-7.589 3.334,-10.588 2.404,-3.433 3.964,-7.473 3.609,-11.649 -0.086,-1.018 -0.04,-2.074 0.155,-3.151 0.839,-4.607 4.517,-8.346 9.116,-9.228 7.422,-1.424 13.912,4.225 13.912,11.391 0,0.317 -0.013,0.631 -0.037,0.941 -0.34,4.193 1.19,8.25 3.604,11.695 C -1.234,-7.59 0,-3.94 0,0" /></g><g
           transform="translate(82.2798,29.4135)"
           id="g24"><path
             id="path26"
             style="fill:#3c9ca3;fill-opacity:1;fill-rule:nonzero;stroke:none"
             d="m 0,0 c -0.193,-1.229 -0.187,-2.524 0.055,-3.854 0.815,-4.478 4.39,-8.113 8.86,-8.97 7.214,-1.384 13.522,4.107 13.522,11.072 0,0.374 -0.019,0.744 -0.054,1.108 -0.356,3.617 0.401,7.284 2.703,10.095 2.879,3.516 4.452,8.139 3.975,13.139 C 28.263,30.935 21.535,37.781 13.202,38.703 2.345,39.904 -6.845,31.436 -6.845,20.821 -6.845,16.513 -5.328,12.563 -2.8,9.468 -0.616,6.794 0.536,3.411 0,0" /></g><g
           transform="translate(13.0196,48.3881)"
           id="g28"><path
             id="path30"
             style="fill:#2b2b2a;fill-opacity:1;fill-rule:nonzero;stroke:none"
             d="m 0,0 v -37.496 h -5.989 v 31.091 l -7.031,-4.323 v 6.51 L -5.989,0 Z" /></g><g
           transform="translate(18.4322,46.2534)"
           id="g32"><path
             id="path34"
             style="fill:#2b2b2a;fill-opacity:1;fill-rule:nonzero;stroke:none"
             d="m 0,0 c 2.343,2.083 5.625,2.916 8.697,2.916 3.541,0 6.927,-1.25 9.114,-3.905 2.031,-2.24 3.125,-5.208 3.125,-8.229 0,-4.739 -2.188,-7.395 -6.146,-11.093 L 4.947,-29.789 H 20.415 V -35.31 H -4.218 v 5.521 l 15.831,14.582 c 2.396,2.187 3.282,4.219 3.282,6.041 0,1.614 -0.574,3.177 -1.615,4.375 -1.25,1.405 -2.968,2.187 -4.895,2.187 -1.667,0 -3.229,-0.677 -4.375,-1.771 C 2.76,-5.572 1.979,-7.291 1.979,-9.114 H -4.01 C -4.114,-5.625 -2.5,-2.239 0,0" /></g><g
           transform="translate(47.8233,34.9526)"
           id="g36"><path
             id="path38"
             style="fill:#2b2b2a;fill-opacity:1;fill-rule:nonzero;stroke:none"
             d="m 0,0 c 1.042,-0.886 2.552,-1.25 4.01,-1.25 1.51,0 3.02,0.364 4.062,1.25 0.99,0.885 1.51,2.239 1.458,3.697 0,1.51 -0.468,2.813 -1.51,3.698 C 7.03,8.28 5.52,8.645 4.01,8.696 2.552,8.645 1.042,8.28 0.052,7.395 -1.042,6.51 -1.458,5.207 -1.458,3.697 -1.51,2.239 -1.042,0.885 0,0 m 10.52,-13.072 c 0,1.77 -0.521,3.489 -1.771,4.583 -1.145,1.145 -2.916,1.667 -4.739,1.667 -1.771,0 -3.541,-0.522 -4.739,-1.667 -1.198,-1.094 -1.719,-2.813 -1.719,-4.583 0,-1.771 0.521,-3.437 1.719,-4.583 1.198,-1.094 2.968,-1.615 4.739,-1.615 1.823,0 3.594,0.521 4.739,1.615 1.25,1.146 1.771,2.812 1.771,4.583 M -3.802,11.873 c 2.24,1.719 5.104,2.344 7.812,2.344 2.864,0 5.728,-0.677 7.864,-2.344 2.552,-1.927 3.854,-4.999 3.854,-8.176 0,-1.718 -0.417,-3.541 -1.511,-5.156 -0.468,-0.937 -1.146,-1.718 -1.926,-2.447 1.197,-0.99 2.239,-2.24 2.916,-3.541 1.093,-1.771 1.458,-3.802 1.51,-5.625 -0.104,-3.437 -1.302,-6.666 -3.958,-8.854 -2.396,-2.083 -5.676,-2.916 -8.749,-2.916 -3.125,0 -6.406,0.938 -8.697,2.916 -2.604,2.136 -3.958,5.521 -3.958,8.854 0,1.823 0.416,3.854 1.51,5.625 0.677,1.301 1.719,2.551 2.917,3.541 -0.782,0.729 -1.459,1.51 -1.979,2.447 -1.042,1.615 -1.459,3.438 -1.511,5.156 0.157,3.385 1.302,6.198 3.906,8.176" /></g><g
           transform="translate(83.6475,43.6489)"
           id="g40"><path
             id="path42"
             style="fill:#2b2b2a;fill-opacity:1;fill-rule:nonzero;stroke:none"
             d="M 0,0 C -2.552,0 -4.948,-1.405 -6.197,-3.541 -7.083,-4.947 -7.291,-6.51 -7.291,-8.488 v -10.989 c 0,-1.77 0.104,-3.542 1.145,-5.156 1.354,-2.031 3.698,-3.333 6.146,-3.333 2.5,0 4.843,1.302 6.197,3.386 0.99,1.51 1.094,2.968 1.094,5.103 v 10.989 c 0,1.926 -0.052,3.228 -0.99,4.895 C 5,-1.405 2.552,0 0,0 m 0,-33.486 c -3.802,0 -7.604,1.406 -10.104,4.323 -2.499,2.968 -3.176,5.728 -3.176,9.686 v 10.989 c 0,3.906 0.625,6.666 3.176,9.738 C -7.708,4.011 -3.958,5.625 0,5.521 3.75,5.625 7.551,4.167 10.103,1.25 c 2.5,-2.864 3.177,-5.78 3.177,-9.738 v -10.989 c 0,-3.801 -0.625,-6.77 -3.125,-9.686 C 7.655,-32.027 4.01,-33.486 0,-33.486" /></g><g
           transform="translate(111.9766,43.6489)"
           id="g44"><path
             id="path46"
             style="fill:#2b2b2a;fill-opacity:1;fill-rule:nonzero;stroke:none"
             d="M 0,0 C -2.552,0 -4.948,-1.405 -6.197,-3.541 -7.083,-4.947 -7.291,-6.51 -7.291,-8.488 v -10.989 c 0,-1.77 0.104,-3.542 1.145,-5.156 1.354,-2.031 3.698,-3.333 6.146,-3.333 2.5,0 4.843,1.302 6.197,3.386 0.99,1.51 1.094,2.968 1.094,5.103 v 10.989 c 0,1.926 -0.052,3.228 -0.99,4.895 C 5,-1.405 2.552,0 0,0 m 0,-33.486 c -3.802,0 -7.604,1.406 -10.104,4.323 -2.499,2.968 -3.176,5.728 -3.176,9.686 v 10.989 c 0,3.906 0.625,6.666 3.176,9.738 C -7.708,4.011 -3.958,5.625 0,5.521 3.75,5.625 7.551,4.167 10.103,1.25 c 2.5,-2.864 3.177,-5.78 3.177,-9.738 v -10.989 c 0,-3.801 -0.625,-6.77 -3.125,-9.686 C 7.655,-32.027 4.01,-33.486 0,-33.486" /></g><g
           transform="translate(140.3057,43.6489)"
           id="g48"><path
             id="path50"
             style="fill:#2b2b2a;fill-opacity:1;fill-rule:nonzero;stroke:none"
             d="M 0,0 C -2.552,0 -4.948,-1.405 -6.197,-3.541 -7.083,-4.947 -7.291,-6.51 -7.291,-8.488 v -10.989 c 0,-1.77 0.104,-3.542 1.145,-5.156 1.354,-2.031 3.698,-3.333 6.146,-3.333 2.5,0 4.843,1.302 6.197,3.386 0.99,1.51 1.094,2.968 1.094,5.103 v 10.989 c 0,1.926 -0.052,3.228 -0.99,4.895 C 5,-1.405 2.552,0 0,0 m 0,-33.486 c -3.802,0 -7.604,1.406 -10.104,4.323 -2.499,2.968 -3.176,5.728 -3.176,9.686 v 10.989 c 0,3.906 0.625,6.666 3.176,9.738 C -7.708,4.011 -3.958,5.625 0,5.521 3.75,5.625 7.551,4.167 10.103,1.25 c 2.5,-2.864 3.177,-5.78 3.177,-9.738 v -10.989 c 0,-3.801 -0.625,-6.77 -3.125,-9.686 C 7.655,-32.027 4.01,-33.486 0,-33.486" /></g><g
           transform="translate(33.8492,10.06)"
           id="g52"><path
             id="path54"
             style="fill:#f4bfac;fill-opacity:1;fill-rule:nonzero;stroke:none"
             d="M 0,0 H -3.091 L -4.18,-3.261 -2.091,-5.309 Z" /></g><g
           transform="translate(51.0172,15.4233)"
           id="g56"><path
             id="path58"
             style="fill:#f4bfac;fill-opacity:1;fill-rule:nonzero;stroke:none"
             d="m 0,0 -2.924,1.324 2.501,-5.813 2.691,0.379 z" /></g><g
           transform="translate(34.6334,33.0659)"
           id="g60"><path
             id="path62"
             style="fill:#e5662d;fill-opacity:1;fill-rule:nonzero;stroke:none"
             d="M 0,0 10.307,-1.473 8.12,4.552 13.459,3.583 V 5.682 L 6.591,8.764 2.875,19 -3.875,10.5 0.25,2.826 Z" /></g><g
           transform="translate(49.5806,12.8627)"
           id="g64"><path
             id="path66"
             style="fill:#3475a1;fill-opacity:1;fill-rule:nonzero;stroke:none"
             d="m 0,0 2.71,1.443 -4.038,11.681 -6.252,7.073 -6.596,0.881 c 0,-3.516 -1.437,-3.278 0.521,-6.2 l 8.303,-5.231 z" /></g><g
           transform="translate(58.2706,12.9028)"
           id="g68"><path
             id="path70"
             style="fill:#2c304b;fill-opacity:1;fill-rule:nonzero;stroke:none"
             d="m 0,0 -5.141,-0.378 -1.99,-1.535 -0.951,0.137 1.29,-2.71 7.279,3.464 z" /></g><g
           transform="translate(30.0611,9.2055)"
           id="g72"><path
             id="path74"
             style="fill:#3f8aac;fill-opacity:1;fill-rule:nonzero;stroke:none"
             d="m 0,0 2.978,-0.949 6.127,10.82 1.583,13.768 -7.827,4.773 c -2.219,-3.06 -0.33,-4.354 -0.47,-8.133 l 1.019,-9.92 z" /></g><g
           transform="translate(38.4839,3.9662)"
           id="g76"><path
             id="path78"
             style="fill:#2c304b;fill-opacity:1;fill-rule:nonzero;stroke:none"
             d="m 0,0 -5.184,2.53 -2.789,-0.364 -0.841,0.667 -0.28,-3.346 8.05,-0.672 z" /></g><g
           transform="translate(33.8492,51.0659)"
           id="g80"><path
             id="path82"
             style="fill:#f4bfac;fill-opacity:1;fill-rule:nonzero;stroke:none"
             d="M 0,0 H 3.09 L 3.635,2 H 6.18 v 2.5 l 1,0.125 -1,6 L 0,7.375 Z" /></g><g
           transform="translate(35.4048,51.4409)"
           id="g84"><path
             id="path86"
             style="fill:#ffffff;fill-opacity:1;fill-rule:nonzero;stroke:none"
             d="m 0,0 2.104,0.625 6.042,-21.123 -4.915,-1.3 z" /></g><g
           transform="translate(31.6334,28.0659)"
           id="g88"><path
             id="path90"
             style="fill:#e5662d;fill-opacity:1;fill-rule:nonzero;stroke:none"
             d="M 0,0 9.307,0.527 8.541,5.24 8.228,7.17 7.844,9.529 7.629,10.854 5.891,21.553 C 5.551,23.35 3.84,24.642 2.045,24.294 -0.337,23.831 -2.414,22.168 -3.308,19.746 l -3.258,-6.738 -2.123,-9.481 1.294,-2.409 4.08,7.091 2.565,4.458 z" /></g><g
           transform="translate(33.9371,54.9409)"
           id="g92"><path
             id="path94"
             style="fill:#fbddcb;fill-opacity:1;fill-rule:nonzero;stroke:none"
             d="M 0,0 1.468,3.025 4.547,4.076 5.812,6.043 6.092,6.75 2.827,6.875 c -2.348,0 -3.266,-0.652 -3.266,-3 z" /></g><g
           transform="translate(26.6983,3.4409)"
           id="g96"><path
             id="path98"
             style="fill:#e5662d;fill-opacity:1;fill-rule:nonzero;stroke:none"
             d="m 0,0 c -0.816,0.004 -1.625,0.183 -2.351,0.556 -1.581,0.815 -1.05,1.41 -2.411,1.41 -1.652,0 -1.679,-0.877 -0.061,-1.959 v 0 c 0.615,-0.41 1.337,-0.63 2.076,-0.63 h 2.022 0.496 17.166 v 0.544 z" /></g><g
           transform="translate(41.1763,3.4409)"
           id="g100"><path
             id="path102"
             style="fill:#e5662d;fill-opacity:1;fill-rule:nonzero;stroke:none"
             d="m 0,0 c 0.816,0.004 1.625,0.183 2.351,0.556 1.581,0.815 1.05,1.41 2.411,1.41 1.652,0 1.679,-0.877 0.061,-1.959 -0.615,-0.41 -1.337,-0.63 -2.076,-0.63 H 0.724 -2.102 -16.937 v 0.544 z" /></g><g
           transform="translate(41.4864,1.0746)"
           id="g104"><path
             id="path106"
             style="fill:#3c9ca3;fill-opacity:1;fill-rule:nonzero;stroke:none"
             d="m 0,0 c 0,-0.594 0.481,-1.074 1.074,-1.074 0.594,0 1.075,0.48 1.075,1.074 0,0.594 -0.481,1.074 -1.075,1.074 C 0.481,1.074 0,0.594 0,0" /></g><g
           transform="translate(41.8243,2.5385)"
           id="g108"><path
             id="path110"
             style="fill:#2b2b2a;fill-opacity:1;fill-rule:nonzero;stroke:none"
             d="M 0,0 V 0.384 H -1.174 V 0 c 0,-0.537 -0.295,-0.973 -0.659,-0.973 h -0.855 v -0.491 h 3.424 v 0.491 H 0.658 C 0.294,-0.973 0,-0.537 0,0" /></g><g
           transform="translate(38.6509,1.0746)"
           id="g112"><path
             id="path114"
             style="fill:#3c9ca3;fill-opacity:1;fill-rule:nonzero;stroke:none"
             d="m 0,0 c 0,-0.594 0.481,-1.074 1.075,-1.074 0.593,0 1.074,0.48 1.074,1.074 0,0.594 -0.481,1.074 -1.074,1.074 C 0.481,1.074 0,0.594 0,0" /></g><g
           transform="translate(27.9024,1.0746)"
           id="g116"><path
             id="path118"
             style="fill:#3c9ca3;fill-opacity:1;fill-rule:nonzero;stroke:none"
             d="m 0,0 c 0,-0.594 0.481,-1.074 1.075,-1.074 0.593,0 1.074,0.48 1.074,1.074 0,0.594 -0.481,1.074 -1.074,1.074 C 0.481,1.074 0,0.594 0,0" /></g><g
           transform="translate(28.2403,2.5385)"
           id="g120"><path
             id="path122"
             style="fill:#2b2b2a;fill-opacity:1;fill-rule:nonzero;stroke:none"
             d="M 0,0 V 0.384 H -1.174 V 0 c 0,-0.537 -0.295,-0.973 -0.658,-0.973 h -0.855 v -0.491 h 3.424 v 0.491 H 0.658 C 0.295,-0.973 0,-0.537 0,0" /></g><g
           transform="translate(25.0674,1.0746)"
           id="g124"><path
             id="path126"
             style="fill:#3c9ca3;fill-opacity:1;fill-rule:nonzero;stroke:none"
             d="m 0,0 c 0,-0.594 0.481,-1.074 1.075,-1.074 0.593,0 1.074,0.48 1.074,1.074 0,0.594 -0.481,1.074 -1.074,1.074 C 0.481,1.074 0,0.594 0,0" /></g></g></g></g></svg>