<?xml version="1.0" encoding="UTF-8" standalone="no"?>
<svg
   xmlns:dc="http://purl.org/dc/elements/1.1/"
   xmlns:cc="http://creativecommons.org/ns#"
   xmlns:rdf="http://www.w3.org/1999/02/22-rdf-syntax-ns#"
   xmlns:svg="http://www.w3.org/2000/svg"
   xmlns="http://www.w3.org/2000/svg"
   viewBox="0 0 169.036 137.29466"
   height="137.29466"
   width="169.036"
   xml:space="preserve"
   id="svg2"
   version="1.1"><metadata
     id="metadata8"><rdf:RDF><cc:Work
         rdf:about=""><dc:format>image/svg+xml</dc:format><dc:type
           rdf:resource="http://purl.org/dc/dcmitype/StillImage" /></cc:Work></rdf:RDF></metadata><defs
     id="defs6"><clipPath
       id="clipPath22"
       clipPathUnits="userSpaceOnUse"><path
         id="path20"
         d="M 0,102.971 H 126.777 V 0 H 0 Z" /></clipPath></defs><g
     transform="matrix(1.3333333,0,0,-1.3333333,0,137.29467)"
     id="g10"><g
       transform="translate(7.0308,52.0578)"
       id="g12"><path
         id="path14"
         style="fill:#2a688c;fill-opacity:1;fill-rule:nonzero;stroke:none"
         d="m 0,0 -7.031,-4.217 v -6.51 L 0,-6.405 V -37.496 H 5.989 V 0 Z" /></g><g
       id="g16"><g
         clip-path="url(#clipPath22)"
         id="g18"><g
           transform="translate(28.9731,47.3187)"
           id="g24"><path
             id="path26"
             style="fill:#2a688c;fill-opacity:1;fill-rule:nonzero;stroke:none"
             d="M 0,0 C -2.552,0 -4.948,-1.405 -6.198,-3.541 -7.083,-4.947 -7.291,-6.51 -7.291,-8.488 v -10.989 c 0,-1.77 0.104,-3.542 1.145,-5.156 1.354,-2.031 3.698,-3.333 6.146,-3.333 2.5,0 4.843,1.302 6.197,3.386 0.99,1.51 1.094,2.968 1.094,5.103 v 10.989 c 0,1.926 -0.052,3.228 -0.99,4.895 C 5,-1.405 2.552,0 0,0 m 0,-33.486 c -3.802,0 -7.604,1.406 -10.104,4.323 -2.499,2.968 -3.176,5.728 -3.176,9.686 v 10.989 c 0,3.906 0.625,6.666 3.176,9.738 C -7.708,4.011 -3.958,5.625 0,5.521 3.75,5.625 7.551,4.167 10.103,1.25 c 2.5,-2.864 3.177,-5.78 3.177,-9.738 v -10.989 c 0,-3.801 -0.625,-6.77 -3.125,-9.686 C 7.655,-32.027 4.01,-33.486 0,-33.486" /></g><g
           transform="translate(56.8403,47.3187)"
           id="g28"><path
             id="path30"
             style="fill:#2a688c;fill-opacity:1;fill-rule:nonzero;stroke:none"
             d="M 0,0 C -2.553,0 -4.948,-1.405 -6.197,-3.541 -7.084,-4.947 -7.291,-6.51 -7.291,-8.488 v -10.989 c 0,-1.77 0.104,-3.542 1.145,-5.156 1.354,-2.031 3.698,-3.333 6.146,-3.333 2.499,0 4.843,1.302 6.197,3.386 0.989,1.51 1.093,2.968 1.093,5.103 v 10.989 c 0,1.926 -0.052,3.228 -0.989,4.895 C 4.999,-1.405 2.551,0 0,0 m 0,-33.486 c -3.803,0 -7.604,1.406 -10.104,4.323 -2.5,2.968 -3.177,5.728 -3.177,9.686 v 10.989 c 0,3.906 0.625,6.666 3.177,9.738 C -7.709,4.011 -3.959,5.625 0,5.521 3.749,5.625 7.551,4.167 10.103,1.25 c 2.499,-2.864 3.176,-5.78 3.176,-9.738 v -10.989 c 0,-3.801 -0.625,-6.77 -3.125,-9.686 C 7.654,-32.027 4.01,-33.486 0,-33.486" /></g><g
           transform="translate(85.1685,47.3187)"
           id="g32"><path
             id="path34"
             style="fill:#2a688c;fill-opacity:1;fill-rule:nonzero;stroke:none"
             d="M 0,0 C -2.553,0 -4.947,-1.405 -6.197,-3.541 -7.083,-4.947 -7.291,-6.51 -7.291,-8.488 v -10.989 c 0,-1.77 0.104,-3.542 1.145,-5.156 1.355,-2.031 3.699,-3.333 6.146,-3.333 2.5,0 4.844,1.302 6.197,3.386 0.99,1.51 1.094,2.968 1.094,5.103 v 10.989 c 0,1.926 -0.053,3.228 -0.99,4.895 C 5,-1.405 2.552,0 0,0 m 0,-33.486 c -3.802,0 -7.604,1.406 -10.104,4.323 -2.5,2.968 -3.176,5.728 -3.176,9.686 v 10.989 c 0,3.906 0.625,6.666 3.176,9.738 C -7.708,4.011 -3.958,5.625 0,5.521 3.75,5.625 7.551,4.167 10.104,1.25 c 2.498,-2.864 3.175,-5.78 3.175,-9.738 v -10.989 c 0,-3.801 -0.625,-6.77 -3.125,-9.686 C 7.655,-32.027 4.01,-33.486 0,-33.486" /></g><g
           transform="translate(113.4966,47.3187)"
           id="g36"><path
             id="path38"
             style="fill:#2a688c;fill-opacity:1;fill-rule:nonzero;stroke:none"
             d="M 0,0 C -2.551,0 -4.947,-1.405 -6.197,-3.541 -7.082,-4.947 -7.291,-6.51 -7.291,-8.488 v -10.989 c 0,-1.77 0.105,-3.542 1.146,-5.156 1.354,-2.031 3.698,-3.333 6.145,-3.333 2.5,0 4.844,1.302 6.197,3.386 0.99,1.51 1.094,2.968 1.094,5.103 v 10.989 c 0,1.926 -0.051,3.228 -0.988,4.895 C 5,-1.405 2.553,0 0,0 m 0,-33.486 c -3.801,0 -7.604,1.406 -10.104,4.323 -2.498,2.968 -3.175,5.728 -3.175,9.686 v 10.989 c 0,3.906 0.625,6.666 3.175,9.738 C -7.707,4.011 -3.957,5.625 0,5.521 3.75,5.625 7.553,4.167 10.104,1.25 c 2.5,-2.864 3.177,-5.78 3.177,-9.738 v -10.989 c 0,-3.801 -0.625,-6.77 -3.125,-9.686 C 7.656,-32.027 4.01,-33.486 0,-33.486" /></g><g
           transform="translate(36.2144,98.9583)"
           id="g40"><path
             id="path42"
             style="fill:#2b2b2a;fill-opacity:1;fill-rule:nonzero;stroke:none"
             d="m 0,0 v -94.945 c 0,-2.216 1.721,-4.013 3.844,-4.013 h 43.068 c 2.123,0 3.844,1.797 3.844,4.013 V 0 c 0,2.217 -1.721,4.013 -3.844,4.013 H 3.844 C 1.721,4.013 0,2.217 0,0" /></g><g
           transform="translate(81.6509,100.5501)"
           id="g44"><path
             id="path46"
             style="fill:#a7d9e1;fill-opacity:1;fill-rule:nonzero;stroke:none"
             d="m 0,0 h -8.168 c -0.996,0 -1.935,-0.486 -2.535,-1.315 l -0.361,-0.5 c -0.601,-0.83 -1.54,-1.316 -2.535,-1.316 h -13.693 c -1.099,0 -2.119,0.592 -2.699,1.566 C -30.571,-0.592 -31.592,0 -32.689,0 h -7.428 c -1.624,0 -2.942,-1.374 -2.942,-3.07 v -91.989 c 0,-1.695 1.318,-3.07 2.942,-3.07 H 0 c 1.624,0 2.941,1.375 2.941,3.07 V -3.07 C 2.941,-1.375 1.624,0 0,0" /></g><g
           transform="translate(78.2524,80.3324)"
           id="g48"><path
             id="path50"
             style="fill:#42a9c0;fill-opacity:1;fill-rule:nonzero;stroke:none"
             d="m 0,0 c -8.369,0.926 -15.817,-3.478 -19.388,-10.243 0.333,-0.573 0.683,-1.137 1.064,-1.681 2.053,-2.93 3.259,-6.498 3.259,-10.349 0,-3.273 -0.877,-6.335 -2.399,-8.981 0.07,-0.09 0.134,-0.186 0.206,-0.275 2.356,-2.884 3.598,-6.533 3.019,-10.211 -0.208,-1.325 -0.201,-2.723 0.059,-4.157 0.879,-4.83 4.736,-8.749 9.556,-9.673 4.274,-0.821 8.246,0.606 10.964,3.296 V -1.868 C 4.383,-0.896 2.245,-0.248 0,0" /></g><g
           transform="translate(59.9282,68.4085)"
           id="g52"><path
             id="path54"
             style="fill:#2a688c;fill-opacity:1;fill-rule:nonzero;stroke:none"
             d="m 0,0 c -0.381,0.544 -0.73,1.107 -1.063,1.681 -1.271,2.184 -2.162,4.566 -2.427,7.038 -0.017,0.187 -0.031,0.375 -0.042,0.563 -0.013,0.189 -0.026,0.376 -0.031,0.566 -0.009,0.506 0,1.015 0.039,1.527 0.024,0.325 0.037,0.653 0.037,0.985 0,0.111 -0.015,0.217 -0.018,0.328 -0.005,0.154 -0.014,0.309 -0.024,0.464 -0.43,7.121 -6.561,12.578 -13.557,11.141 -1.551,-0.319 -2.99,-1 -4.25,-1.946 0,0 0.003,-1.21 0.006,-3.215 0,-0.021 -0.006,-0.04 -0.006,-0.061 V -42.37 c 1.26,-0.883 2.699,-1.519 4.25,-1.816 7.255,-1.391 13.599,4.131 13.599,11.135 0,0.31 -0.013,0.616 -0.037,0.92 -0.332,4.099 1.163,8.064 3.523,11.432 0.309,0.44 0.592,0.9 0.861,1.369 1.521,2.645 2.399,5.708 2.399,8.98 C 3.259,-6.498 2.053,-2.931 0,0" /></g><g
           transform="translate(64.6626,27.8421)"
           id="g56"><path
             id="path58"
             style="fill:#2b2b2a;fill-opacity:1;fill-rule:nonzero;stroke:none"
             d="m 0,0 c 0,-2.136 -0.104,-3.594 -1.093,-5.104 -1.354,-2.083 -3.698,-3.385 -6.197,-3.385 -2.448,0 -4.792,1.302 -6.146,3.333 -1.042,1.614 -1.145,3.385 -1.145,5.156 v 10.988 c 0,1.979 0.208,3.541 1.094,4.948 1.249,2.135 3.644,3.541 6.197,3.541 2.552,0 4.999,-1.406 6.301,-3.593 C -0.052,14.217 0,12.915 0,10.988 Z m -7.29,24.997 c -3.958,0.105 -7.708,-1.51 -10.104,-4.27 -2.551,-3.073 -3.176,-5.832 -3.176,-9.739 V 0 c 0,-3.958 0.676,-6.719 3.176,-9.687 2.5,-2.917 6.302,-4.323 10.104,-4.323 4.01,0 7.655,1.459 10.155,4.323 2.499,2.916 3.124,5.885 3.124,9.687 v 10.988 c 0,3.958 -0.677,6.874 -3.176,9.739 -2.552,2.917 -6.354,4.375 -10.103,4.27" /></g><g
           transform="translate(79.2866,22.6859)"
           id="g60"><path
             id="path62"
             style="fill:#2b2b2a;fill-opacity:1;fill-rule:nonzero;stroke:none"
             d="m 0,0 c -1.041,1.614 -1.146,3.386 -1.146,5.156 v 10.989 c 0,1.978 0.209,3.541 1.094,4.947 1.239,2.115 3.602,3.51 6.126,3.536 v 5.523 C 2.143,30.234 -1.577,28.627 -3.958,25.883 -6.51,22.811 -7.135,20.051 -7.135,16.145 V 5.156 c 0,-3.958 0.678,-6.718 3.177,-9.686 2.484,-2.9 6.255,-4.303 10.032,-4.321 v 5.522 C 3.653,-3.304 1.341,-2.012 0,0" /></g><g
           transform="translate(38.5923,84.4408)"
           id="g64"><path
             id="path66"
             style="fill:#f4bfac;fill-opacity:1;fill-rule:nonzero;stroke:none"
             d="M 0,0 C 0.675,0.113 1.35,0.228 2.01,0.36 1.348,1.36 0.66,2.345 0,3.347 Z" /></g><g
           transform="translate(75.6509,66.1722)"
           id="g68"><path
             id="path70"
             style="fill:#f4bfac;fill-opacity:1;fill-rule:nonzero;stroke:none"
             d="M 0,0 H -0.001 L 0.01,0.213 c -6.04,0.276 -12.024,1.761 -17.503,4.332 -5.476,2.578 -10.437,6.239 -14.503,10.713 l -0.157,-0.144 c -0.958,1.177 -1.975,2.309 -2.895,3.515 -0.747,-1.361 -1.384,-2.728 -2.011,-4.144 -0.109,-0.249 -0.224,-0.487 -0.334,-0.74 0.113,0.025 0.222,0.055 0.334,0.08 1.68,0.377 3.318,0.804 4.905,1.288 l -0.065,-0.057 c 0.01,-0.011 0.021,-0.022 0.031,-0.033 -0.697,-1.645 -1.263,-3.274 -1.816,-5.001 1.719,0.56 3.381,1.177 4.986,1.843 0.022,-0.019 0.043,-0.039 0.065,-0.057 -0.525,-1.701 -0.933,-3.384 -1.313,-5.155 1.655,0.726 3.248,1.501 4.781,2.322 0.023,-0.018 0.047,-0.035 0.069,-0.052 -0.347,-1.732 -0.596,-3.457 -0.799,-5.255 1.574,0.882 3.083,1.81 4.528,2.773 0.024,-0.014 0.049,-0.029 0.074,-0.044 -0.167,-1.743 -0.254,-3.498 -0.28,-5.304 1.481,1.031 2.891,2.099 4.234,3.199 0.013,-0.007 0.025,-0.014 0.038,-0.02 0.014,-0.005 0.026,-0.011 0.04,-0.017 0.012,-1.735 0.09,-3.504 0.242,-5.302 1.373,1.173 2.667,2.359 3.901,3.601 0.028,-0.01 0.055,-0.019 0.083,-0.029 0.18,-1.727 0.43,-3.481 0.757,-5.257 1.253,1.304 2.421,2.597 3.533,3.969 0.028,-0.007 0.055,-0.013 0.084,-0.02 0.347,-1.703 0.768,-3.426 1.267,-5.163 1.119,1.423 2.152,2.812 3.125,4.3 0.029,-0.003 0.058,-0.008 0.086,-0.012 0.513,-1.661 1.101,-3.335 1.769,-5.016 0.973,1.528 1.865,3.003 2.687,4.589 0.015,0 0.028,-0.002 0.042,-0.003 l 0.004,0.087 C 0,-0.001 0,-0.001 0,0 0.684,-1.633 1.448,-3.271 2.293,-4.908 3.127,-3.262 3.883,-1.684 4.553,0.014 3.038,-0.047 1.518,0.014 0,0" /></g><g
           transform="translate(84.5923,66.6312)"
           id="g72"><path
             id="path74"
             style="fill:#f4bfac;fill-opacity:1;fill-rule:nonzero;stroke:none"
             d="m 0,0 c -1.457,-0.19 -2.927,-0.289 -4.389,-0.445 0.842,-1.558 1.764,-3.112 2.767,-4.658 0.61,1.571 1.15,3.09 1.622,4.673 0.045,0.151 0.099,0.294 0.142,0.446 C 0.095,0.009 0.047,0.006 0,0" /></g><g
           transform="translate(39.4155,48.5199)"
           id="g76"><path
             id="path78"
             style="fill:#2b2b2a;fill-opacity:1;fill-rule:nonzero;stroke:none"
             d="m 0,0 c -0.67,0.783 -1.441,1.447 -2.274,2.014 v -34.425 c 0.842,0.574 1.614,1.237 2.274,1.998 2.552,3.072 3.177,5.832 3.177,9.738 V -9.687 C 3.177,-5.729 2.5,-2.968 0,0" /></g><g
           transform="translate(55.064,59.1917)"
           id="g80"><path
             id="path82"
             style="fill:none;stroke:#ffffff;stroke-width:0.75;stroke-linecap:butt;stroke-linejoin:miter;stroke-miterlimit:10;stroke-dasharray:none;stroke-opacity:1"
             d="M 0,0 H -5.273 V -5.697" /></g><g
           transform="translate(68.1206,41.9183)"
           id="g84"><path
             id="path86"
             style="fill:none;stroke:#ffffff;stroke-width:0.75;stroke-linecap:butt;stroke-linejoin:miter;stroke-miterlimit:10;stroke-dasharray:none;stroke-opacity:1"
             d="M 0,0 H 5.273 V 5.528" /></g><g
           transform="translate(49.7905,47.4466)"
           id="g88"><path
             id="path90"
             style="fill:none;stroke:#ffffff;stroke-width:0.75;stroke-linecap:butt;stroke-linejoin:miter;stroke-miterlimit:10;stroke-dasharray:none;stroke-opacity:1"
             d="M 0,0 V -5.528 H 5.273" /></g><g
           transform="translate(68.1206,59.1917)"
           id="g92"><path
             id="path94"
             style="fill:none;stroke:#ffffff;stroke-width:0.75;stroke-linecap:butt;stroke-linejoin:miter;stroke-miterlimit:10;stroke-dasharray:none;stroke-opacity:1"
             d="M 0,0 H 5.273 V -5.697" /></g></g></g></g></svg>