<?xml version="1.0" encoding="UTF-8" standalone="no"?>
<svg
   xmlns:dc="http://purl.org/dc/elements/1.1/"
   xmlns:cc="http://creativecommons.org/ns#"
   xmlns:rdf="http://www.w3.org/1999/02/22-rdf-syntax-ns#"
   xmlns:svg="http://www.w3.org/2000/svg"
   xmlns="http://www.w3.org/2000/svg"
   viewBox="0 0 180.18933 91.604401"
   height="91.604401"
   width="180.18933"
   xml:space="preserve"
   id="svg2"
   version="1.1"><metadata
     id="metadata8"><rdf:RDF><cc:Work
         rdf:about=""><dc:format>image/svg+xml</dc:format><dc:type
           rdf:resource="http://purl.org/dc/dcmitype/StillImage" /></cc:Work></rdf:RDF></metadata><defs
     id="defs6"><clipPath
       id="clipPath20"
       clipPathUnits="userSpaceOnUse"><path
         id="path18"
         d="M 0,68.703 H 135.142 V 0 H 0 Z" /></clipPath><clipPath
       id="clipPath56"
       clipPathUnits="userSpaceOnUse"><path
         id="path54"
         d="m 83.445,33.718 h 19.061 V 16.8926 H 83.445 Z" /></clipPath></defs><g
     transform="matrix(1.3333333,0,0,-1.3333333,0,91.6044)"
     id="g10"><path
       id="path12"
       style="fill:#2b2b2a;fill-opacity:1;fill-rule:nonzero;stroke:none"
       d="m 58.432,56.797 h -3 v -6.389 h 3 z" /><g
       id="g14"><g
         clip-path="url(#clipPath20)"
         id="g16"><g
           transform="translate(124.0771,40.9562)"
           id="g22"><path
             id="path24"
             style="fill:#e5662d;fill-opacity:1;fill-rule:nonzero;stroke:none"
             d="m 0,0 h -80 v -36.143 c 0,-1.94 1.573,-3.512 3.512,-3.512 h 72.976 c 1.94,0 3.512,1.572 3.512,3.512 z" /></g><g
           transform="translate(121.4746,51.9796)"
           id="g26"><path
             id="path28"
             style="fill:#ededed;fill-opacity:1;fill-rule:nonzero;stroke:none"
             d="m 0,0 h -74.794 c -1.438,0 -2.603,-1.165 -2.603,-2.603 v -10.976 h 80 V -2.603 C 2.603,-1.165 1.437,0 0,0" /></g><g
           transform="translate(124.0771,2.6027)"
           id="g30"><path
             id="path32"
             style="fill:#ededed;fill-opacity:1;fill-rule:nonzero;stroke:none"
             d="m 0,0 h -80 c 0,-1.437 1.166,-2.603 2.603,-2.603 H -2.603 C -1.165,-2.603 0,-1.437 0,0" /></g><path
           id="path34"
           style="fill:#2b2b2a;fill-opacity:1;fill-rule:nonzero;stroke:none"
           d="M 100.255,48.936 H 84.9 V 44.69 h 15.355 z" /><path
           id="path36"
           style="fill:#ffffff;fill-opacity:1;fill-rule:nonzero;stroke:none"
           d="m 49.504,43.186 h 14.855 v 5.5 H 49.504 Z m 15.355,-0.5 H 49.004 v 6.5 h 15.855 z" /><g
           transform="translate(109.7441,23.7902)"
           id="g38"><path
             id="path40"
             style="fill:#ffffff;fill-opacity:1;fill-rule:nonzero;stroke:none"
             d="m 0,0 c 0,-9.481 -7.686,-17.167 -17.167,-17.167 -9.48,0 -17.166,7.686 -17.166,17.167 0,9.48 7.686,17.166 17.166,17.166 C -7.686,17.166 0,9.48 0,0" /></g><g
           transform="translate(108.5771,23.7902)"
           id="g42"><path
             id="path44"
             style="fill:#ededed;fill-opacity:1;fill-rule:nonzero;stroke:none"
             d="m 0,0 c 0,-8.837 -7.163,-16 -16,-16 -8.836,0 -16,7.163 -16,16 0,8.836 7.164,16 16,16 C -7.163,16 0,8.836 0,0" /></g><g
           transform="translate(106.5771,23.7902)"
           id="g46"><path
             id="path48"
             style="fill:#2b2b2a;fill-opacity:1;fill-rule:nonzero;stroke:none"
             d="m 0,0 c 0,-7.732 -6.268,-14 -14,-14 -7.732,0 -14,6.268 -14,14 0,7.731 6.268,14 14,14 C -6.268,14 0,7.731 0,0" /></g><g
           id="g50"><g
             id="g52" /><g
             id="g64"><g
               style="opacity:0.5"
               id="g62"
               clip-path="url(#clipPath56)"><g
                 id="g60"
                 transform="translate(90.5776,30.7179)"><path
                   id="path58"
                   style="fill:#fecb52;fill-opacity:1;fill-rule:nonzero;stroke:none"
                   d="m 0,0 c 5.483,0 9.928,-4.445 9.928,-9.928 0,-1.384 -0.284,-2.701 -0.796,-3.897 1.728,1.786 2.796,4.215 2.796,6.897 C 11.928,-1.445 7.483,3 2,3 -2.1,3 -5.618,0.515 -7.133,-3.031 -5.328,-1.165 -2.802,0 0,0" /></g></g></g></g><g
           transform="translate(63.6919,25.5119)"
           id="g66"><path
             id="path68"
             style="fill:#ffffff;fill-opacity:1;fill-rule:nonzero;stroke:none"
             d="m 0,0 c -1.25,0.811 -2.93,0.264 -3.463,-1.128 l -2.379,-6.207 c -0.157,-0.41 -0.006,-0.874 0.362,-1.113 0.369,-0.239 0.854,-0.188 1.164,0.123 l 4.698,4.703 C 1.436,-2.568 1.25,-0.812 0,0" /></g><g
           transform="translate(13.0195,42.2023)"
           id="g70"><path
             id="path72"
             style="fill:#2b2b2a;fill-opacity:1;fill-rule:nonzero;stroke:none"
             d="m 0,0 v -37.496 h -5.989 v 31.091 l -7.031,-4.323 v 6.51 L -5.989,0 Z" /></g><g
           transform="translate(38.4829,14.757)"
           id="g74"><path
             id="path76"
             style="fill:#2b2b2a;fill-opacity:1;fill-rule:nonzero;stroke:none"
             d="m 0,0 c 0.417,1.667 0.208,3.386 -0.625,4.896 -0.833,1.51 -2.239,2.656 -3.854,3.125 -1.667,0.468 -3.437,0.26 -4.947,-0.574 -1.563,-0.833 -2.708,-2.239 -3.177,-3.905 -0.417,-1.615 -0.209,-3.386 0.625,-4.896 0.781,-1.458 2.187,-2.604 3.749,-3.02 1.615,-0.522 3.437,-0.365 5,0.469 C -1.615,-3.124 -0.469,-1.666 0,0 m 0.052,19.895 c -1.406,1.718 -3.541,2.811 -5.781,2.811 -2.708,0 -5.26,-1.561 -6.405,-3.853 -0.886,-1.458 -1.146,-3.021 -1.146,-4.896 v -3.072 c 2.031,1.978 4.843,3.177 7.759,3.177 3.021,0 6.042,-1.146 8.333,-3.177 C 5.416,8.437 6.666,5.364 6.614,1.771 6.562,-1.614 5.104,-4.896 2.708,-7.187 0.364,-9.53 -2.969,-10.832 -6.354,-10.78 c -3.333,-0.052 -6.718,1.302 -9.062,3.698 -3.072,2.968 -3.853,6.301 -3.853,10.571 v 10.468 c 0,4.011 0.781,7.083 3.333,9.947 2.708,3.073 6.353,4.375 10.207,4.271 3.906,0.052 7.396,-1.355 9.999,-4.219 z" /></g><g
           transform="translate(62.2046,37.463)"
           id="g78"><path
             id="path80"
             style="fill:#2b2b2a;fill-opacity:1;fill-rule:nonzero;stroke:none"
             d="M 0,0 C -2.552,0 -4.948,-1.405 -6.198,-3.541 -7.083,-4.947 -7.291,-6.51 -7.291,-8.488 v -10.989 c 0,-1.77 0.104,-3.542 1.145,-5.156 1.354,-2.031 3.698,-3.333 6.146,-3.333 2.5,0 4.843,1.302 6.197,3.386 0.99,1.51 1.094,2.968 1.094,5.103 v 10.989 c 0,1.926 -0.052,3.228 -0.99,4.895 C 5,-1.405 2.552,0 0,0 m 0,-33.486 c -3.802,0 -7.604,1.406 -10.104,4.323 -2.499,2.968 -3.176,5.728 -3.176,9.686 v 10.989 c 0,3.906 0.625,6.666 3.176,9.738 C -7.708,4.011 -3.958,5.625 0,5.521 3.75,5.625 7.551,4.167 10.103,1.25 c 2.5,-2.864 3.177,-5.78 3.177,-9.738 v -10.989 c 0,-3.801 -0.625,-6.77 -3.125,-9.686 C 7.655,-32.027 4.01,-33.486 0,-33.486" /></g><g
           transform="translate(121.8623,37.463)"
           id="g82"><path
             id="path84"
             style="fill:#2b2b2a;fill-opacity:1;fill-rule:nonzero;stroke:none"
             d="M 0,0 C -2.552,0 -4.948,-1.405 -6.197,-3.541 -7.083,-4.947 -7.291,-6.51 -7.291,-8.488 v -10.989 c 0,-1.77 0.104,-3.542 1.145,-5.156 1.354,-2.031 3.698,-3.333 6.146,-3.333 2.5,0 4.843,1.302 6.197,3.386 0.99,1.51 1.094,2.968 1.094,5.103 v 10.989 c 0,1.926 -0.052,3.228 -0.99,4.895 C 5,-1.405 2.552,0 0,0 m 0,-33.486 c -3.802,0 -7.604,1.406 -10.104,4.323 -2.499,2.968 -3.176,5.728 -3.176,9.686 v 10.989 c 0,3.906 0.625,6.666 3.176,9.738 C -7.708,4.011 -3.958,5.625 0,5.521 3.75,5.625 7.551,4.167 10.103,1.25 c 2.5,-2.864 3.177,-5.78 3.177,-9.738 v -10.989 c 0,-3.801 -0.625,-6.77 -3.125,-9.686 C 7.655,-32.027 4.01,-33.486 0,-33.486" /></g><g
           transform="translate(57.4214,61.1691)"
           id="g86"><path
             id="path88"
             style="fill:#fecb52;fill-opacity:1;fill-rule:nonzero;stroke:none"
             d="M 0,0 -0.979,0.201 0.521,7.534 1.5,7.333 Z" /></g><g
           transform="translate(61.54,58.5128)"
           id="g90"><path
             id="path92"
             style="fill:#fecb52;fill-opacity:1;fill-rule:nonzero;stroke:none"
             d="M 0,0 -0.532,0.846 4.768,4.18 5.3,3.334 Z" /></g><g
           transform="translate(51.9419,60.1974)"
           id="g94"><path
             id="path96"
             style="fill:#fecb52;fill-opacity:1;fill-rule:nonzero;stroke:none"
             d="M 0,0 -3.23,2.333 -2.645,3.144 0.586,0.811 Z" /></g></g></g></g></svg>