<?xml version="1.0" encoding="UTF-8" standalone="no"?>
<svg
   xmlns:dc="http://purl.org/dc/elements/1.1/"
   xmlns:cc="http://creativecommons.org/ns#"
   xmlns:rdf="http://www.w3.org/1999/02/22-rdf-syntax-ns#"
   xmlns:svg="http://www.w3.org/2000/svg"
   xmlns="http://www.w3.org/2000/svg"
   viewBox="0 0 108.2492 111.37693"
   height="111.37693"
   width="108.2492"
   xml:space="preserve"
   id="svg2"
   version="1.1"><metadata
     id="metadata8"><rdf:RDF><cc:Work
         rdf:about=""><dc:format>image/svg+xml</dc:format><dc:type
           rdf:resource="http://purl.org/dc/dcmitype/StillImage" /></cc:Work></rdf:RDF></metadata><defs
     id="defs6"><clipPath
       id="clipPath18"
       clipPathUnits="userSpaceOnUse"><path
         id="path16"
         d="M 0,83.533 H 81.187 V 0 H 0 Z" /></clipPath></defs><g
     transform="matrix(1.3333333,0,0,-1.3333333,0,111.37693)"
     id="g10"><g
       id="g12"><g
         clip-path="url(#clipPath18)"
         id="g14"><g
           transform="translate(25.6445,78.7935)"
           id="g20"><path
             id="path22"
             style="fill:#000000;fill-opacity:1;fill-rule:nonzero;stroke:none"
             d="M 0,0 C -0.1,-0.363 -0.272,-0.708 -0.518,-1.017 -1.089,-1.734 -1.952,-2.07 -2.86,-2.07 c -0.944,0 -1.788,0.363 -2.342,1.053 -0.536,0.672 -0.745,1.508 -0.735,2.352 0.008,0.862 0.208,1.688 0.735,2.352 0.554,0.708 1.416,1.052 2.342,1.052 0.926,0 1.789,-0.354 2.342,-1.052 0.282,-0.364 0.464,-0.782 0.581,-1.19 L -0.844,2.343 c -0.082,0.299 -0.2,0.572 -0.372,0.807 -0.382,0.5 -1.008,0.754 -1.644,0.754 -0.644,0 -1.271,-0.254 -1.634,-0.754 -0.39,-0.49 -0.5,-1.162 -0.508,-1.815 0.008,-0.654 0.118,-1.316 0.508,-1.816 0.363,-0.499 0.99,-0.753 1.634,-0.753 0.636,-0.01 1.262,0.254 1.644,0.753 0.154,0.218 0.272,0.463 0.344,0.726 z" /></g><g
           transform="translate(61.7993,3.4048)"
           id="g24"><path
             id="path26"
             style="fill:#c7c7c7;fill-opacity:1;fill-rule:nonzero;stroke:none"
             d="M 0,0 C 0,0.645 -0.127,1.325 -0.508,1.815 -0.872,2.315 -1.498,2.569 -2.143,2.56 -2.778,2.569 -3.414,2.315 -3.777,1.815 -4.167,1.325 -4.276,0.645 -4.286,0 c 0,-0.654 0.119,-1.316 0.509,-1.816 0.363,-0.499 0.999,-0.763 1.634,-0.753 0.645,0 1.271,0.254 1.635,0.753 0.381,0.5 0.499,1.162 0.508,1.816 m 0.926,0 c 0,-0.872 -0.191,-1.68 -0.726,-2.352 -0.563,-0.708 -1.417,-1.053 -2.343,-1.053 -0.926,0 -1.797,0.345 -2.333,1.053 -0.436,0.545 -0.654,1.226 -0.717,1.916 h -1.408 v -2.833 h -0.88 v 6.538 h 0.88 V 0.436 h 1.408 c 0.063,0.699 0.281,1.371 0.717,1.916 0.545,0.708 1.416,1.052 2.333,1.052 C -1.217,3.396 -0.354,3.05 0.2,2.352 0.744,1.67 0.917,0.844 0.926,0" /></g><g
           transform="translate(80.2969,58.7153)"
           id="g28"><path
             id="path30"
             style="fill:#c7c7c7;fill-opacity:1;fill-rule:nonzero;stroke:none"
             d="M 0,0 C 0,0.254 -0.091,0.518 -0.254,0.717 -0.463,0.99 -0.799,1.126 -1.09,1.126 h -1.815 v -2.179 h 1.589 c 0.426,0 0.726,0.027 1.007,0.327 0.191,0.19 0.3,0.445 0.309,0.726 m -2.905,3.822 v -1.87 h 1.661 c 0.236,0 0.563,0.146 0.735,0.381 0.128,0.173 0.2,0.382 0.191,0.591 0,0.227 -0.1,0.435 -0.245,0.599 -0.182,0.2 -0.417,0.299 -0.681,0.299 z M 0.89,0 C 0.88,-0.417 0.744,-0.817 0.49,-1.144 0.227,-1.461 -0.127,-1.679 -0.5,-1.797 -0.763,-1.87 -1.035,-1.888 -1.308,-1.888 h -2.487 v 6.536 h 2.36 c 0.236,0 0.536,-0.008 0.727,-0.072 C -0.363,4.476 -0.037,4.268 0.19,3.968 0.436,3.687 0.563,3.305 0.581,2.924 0.608,2.542 0.463,2.161 0.218,1.861 0.163,1.78 0.1,1.698 0.027,1.625 0.218,1.507 0.381,1.344 0.518,1.162 0.771,0.827 0.898,0.418 0.89,0" /></g><g
           transform="translate(0.9712,27.6694)"
           id="g32"><path
             id="path34"
             style="fill:#c7c7c7;fill-opacity:1;fill-rule:nonzero;stroke:none"
             d="M 0,0 C 0.399,0.245 0.944,0.327 1.38,0.327 1.843,0.327 2.379,0.236 2.769,0 3.305,-0.327 3.586,-0.854 3.586,-1.471 3.586,-1.861 3.45,-2.251 3.16,-2.542 3.069,-2.66 2.969,-2.751 2.851,-2.833 3.042,-2.96 3.205,-3.123 3.341,-3.305 3.632,-3.631 3.759,-4.049 3.759,-4.467 3.759,-5.121 3.468,-5.71 2.933,-6.065 2.479,-6.382 1.916,-6.482 1.38,-6.482 c -0.545,0 -1.108,0.118 -1.552,0.417 -0.454,0.3 -0.736,0.79 -0.799,1.335 l 0.917,0.154 c 0.018,-0.308 0.154,-0.599 0.408,-0.78 0.272,-0.209 0.654,-0.3 1.026,-0.291 0.372,0 0.745,0.082 1.026,0.291 0.291,0.199 0.418,0.535 0.418,0.889 0,0.363 -0.127,0.699 -0.418,0.89 -0.281,0.209 -0.654,0.29 -1.026,0.3 H 0.926 v 0.844 H 1.38 c 0.327,0.009 0.654,0.073 0.899,0.236 0.245,0.163 0.381,0.426 0.381,0.726 0,0.309 -0.136,0.572 -0.381,0.736 -0.245,0.163 -0.572,0.227 -0.899,0.227 -0.327,0 -0.653,-0.064 -0.899,-0.227 C 0.254,-0.89 0.136,-1.117 0.118,-1.389 l -0.926,0.154 C -0.744,-0.69 -0.436,-0.263 0,0" /></g><g
           transform="translate(58.8828,35.6899)"
           id="g36"><path
             id="path38"
             style="fill:none;stroke:#c7c7c7;stroke-width:1;stroke-linecap:butt;stroke-linejoin:miter;stroke-miterlimit:10;stroke-dasharray:none;stroke-opacity:1"
             d="M 0,0 C -3.803,-10.957 -15.768,-16.756 -26.725,-12.953 -37.681,-9.15 -43.481,2.814 -39.678,13.771 -35.875,24.728 -23.91,30.527 -12.953,26.725 -1.997,22.922 3.803,10.957 0,0 Z" /></g><g
           transform="translate(26.3652,69.7646)"
           id="g40"><path
             id="path42"
             style="fill:none;stroke:#c7c7c7;stroke-width:1;stroke-linecap:butt;stroke-linejoin:miter;stroke-miterlimit:10;stroke-dasharray:none;stroke-opacity:1"
             d="M 0,0 25.357,-54.378" /></g><g
           transform="translate(11.8545,29.897)"
           id="g44"><path
             id="path46"
             style="fill:none;stroke:#c7c7c7;stroke-width:1;stroke-linecap:butt;stroke-linejoin:miter;stroke-miterlimit:10;stroke-dasharray:none;stroke-opacity:1"
             d="M 0,0 54.379,25.357" /></g></g></g></g></svg>