<?xml version="1.0" encoding="UTF-8" standalone="no"?>
<svg
   xmlns:dc="http://purl.org/dc/elements/1.1/"
   xmlns:cc="http://creativecommons.org/ns#"
   xmlns:rdf="http://www.w3.org/1999/02/22-rdf-syntax-ns#"
   xmlns:svg="http://www.w3.org/2000/svg"
   xmlns="http://www.w3.org/2000/svg"
   viewBox="0 0 24 24"
   height="24"
   width="24"
   xml:space="preserve"
   id="svg2"
   version="1.1"><metadata
     id="metadata8"><rdf:RDF><cc:Work
         rdf:about=""><dc:format>image/svg+xml</dc:format><dc:type
           rdf:resource="http://purl.org/dc/dcmitype/StillImage" /></cc:Work></rdf:RDF></metadata><defs
     id="defs6"><clipPath
       id="clipPath18"
       clipPathUnits="userSpaceOnUse"><path
         id="path16"
         d="M 0,18 H 18 V 0 H 0 Z" /></clipPath></defs><g
     transform="matrix(1.3333333,0,0,-1.3333333,0,24)"
     id="g10"><g
       id="g12"><g
         clip-path="url(#clipPath18)"
         id="g14"><g
           transform="translate(8.9999,6.0018)"
           id="g20"><path
             id="path22"
             style="fill:#231f20;fill-opacity:1;fill-rule:nonzero;stroke:none"
             d="m 0,0 c -1.659,0 -2.998,1.339 -2.998,2.998 0,1.659 1.339,2.998 2.998,2.998 1.659,0 3.005,-1.339 3.005,-2.998 C 3.005,1.339 1.659,0 0,0 m 0,7.622 c -2.554,0 -4.624,-2.07 -4.624,-4.624 0,-2.554 2.07,-4.624 4.624,-4.624 2.554,0 4.624,2.07 4.624,4.624 0,2.554 -2.07,4.624 -4.624,4.624" /></g><g
           transform="translate(13.8065,14.8847)"
           id="g24"><path
             id="path26"
             style="fill:#231f20;fill-opacity:1;fill-rule:nonzero;stroke:none"
             d="m 0,0 c -0.601,0 -1.084,-0.483 -1.084,-1.078 0,-0.601 0.483,-1.084 1.084,-1.084 0.595,0 1.078,0.483 1.078,1.084 C 1.078,-0.483 0.595,0 0,0" /></g><g
           transform="translate(16.328,5.3622)"
           id="g28"><path
             id="path30"
             style="fill:#231f20;fill-opacity:1;fill-rule:nonzero;stroke:none"
             d="m 0,0 c -0.039,-0.875 -0.189,-1.352 -0.313,-1.672 -0.301,-0.784 -0.921,-1.404 -1.706,-1.705 -0.319,-0.124 -0.795,-0.274 -1.671,-0.313 -0.947,-0.046 -1.235,-0.052 -3.638,-0.052 -2.403,0 -2.685,0.006 -3.638,0.052 -0.875,0.039 -1.351,0.189 -1.672,0.313 -0.391,0.144 -0.745,0.372 -1.032,0.673 -0.301,0.287 -0.529,0.641 -0.673,1.032 -0.124,0.32 -0.274,0.797 -0.313,1.672 -0.039,0.947 -0.052,1.234 -0.052,3.638 0,2.403 0.013,2.684 0.052,3.637 0.039,0.875 0.189,1.353 0.313,1.672 0.144,0.393 0.372,0.745 0.673,1.032 0.287,0.301 0.647,0.53 1.032,0.673 0.321,0.124 0.797,0.275 1.672,0.314 0.953,0.039 1.235,0.053 3.638,0.053 2.403,0 2.691,-0.014 3.638,-0.053 0.876,-0.039 1.352,-0.19 1.671,-0.314 0.393,-0.143 0.746,-0.372 1.033,-0.673 0.3,-0.287 0.529,-0.646 0.673,-1.032 C -0.189,8.628 -0.039,8.15 0,7.275 0.046,6.322 0.053,6.041 0.053,3.638 0.053,1.234 0.046,0.947 0,0 M 1.62,7.348 C 1.574,8.308 1.424,8.961 1.202,9.535 0.974,10.137 0.62,10.679 0.163,11.129 c -0.45,0.457 -0.992,0.809 -1.594,1.039 -0.574,0.222 -1.227,0.372 -2.187,0.418 -0.96,0.039 -1.268,0.052 -3.71,0.052 -2.443,0 -2.749,-0.013 -3.71,-0.052 -0.96,-0.046 -1.613,-0.196 -2.188,-0.418 -0.6,-0.23 -1.142,-0.582 -1.593,-1.039 -0.457,-0.45 -0.81,-0.992 -1.038,-1.594 -0.223,-0.574 -0.373,-1.227 -0.418,-2.187 -0.039,-0.96 -0.053,-1.268 -0.053,-3.71 0,-2.443 0.014,-2.75 0.053,-3.71 0.045,-0.96 0.195,-1.614 0.418,-2.188 0.228,-0.6 0.581,-1.143 1.038,-1.594 0.451,-0.457 0.993,-0.809 1.593,-1.038 0.575,-0.222 1.228,-0.373 2.188,-0.418 0.961,-0.045 1.267,-0.052 3.71,-0.052 2.442,0 2.75,0.007 3.71,0.052 0.96,0.045 1.613,0.196 2.187,0.418 1.209,0.47 2.162,1.424 2.633,2.632 0.222,0.574 0.372,1.228 0.418,2.188 0.045,0.96 0.052,1.267 0.052,3.71 0,2.442 -0.007,2.75 -0.052,3.71" /></g></g></g></g></svg>