<?xml version="1.0" encoding="UTF-8" standalone="no"?>
<svg
   xmlns:dc="http://purl.org/dc/elements/1.1/"
   xmlns:cc="http://creativecommons.org/ns#"
   xmlns:rdf="http://www.w3.org/1999/02/22-rdf-syntax-ns#"
   xmlns:svg="http://www.w3.org/2000/svg"
   xmlns="http://www.w3.org/2000/svg"
   viewBox="0 0 56.906132 90.83387"
   height="90.83387"
   width="56.906132"
   xml:space="preserve"
   id="svg2"
   version="1.1"><metadata
     id="metadata8"><rdf:RDF><cc:Work
         rdf:about=""><dc:format>image/svg+xml</dc:format><dc:type
           rdf:resource="http://purl.org/dc/dcmitype/StillImage" /></cc:Work></rdf:RDF></metadata><defs
     id="defs6"><clipPath
       id="clipPath18"
       clipPathUnits="userSpaceOnUse"><path
         id="path16"
         d="M 0,68.125 H 42.68 V 0 H 0 Z" /></clipPath><linearGradient
       id="linearGradient102"
       spreadMethod="pad"
       gradientTransform="matrix(5.16996,3.2772329,3.2772329,-5.16996,28.557323,4.5995698)"
       gradientUnits="userSpaceOnUse"
       y2="0"
       x2="1"
       y1="0"
       x1="0"><stop
         id="stop96"
         offset="0"
         style="stop-opacity:1;stop-color:#594d54" /><stop
         id="stop98"
         offset="0.5728558"
         style="stop-opacity:1;stop-color:#cabb9f" /><stop
         id="stop100"
         offset="1"
         style="stop-opacity:1;stop-color:#cabb9f" /></linearGradient><linearGradient
       id="linearGradient124"
       spreadMethod="pad"
       gradientTransform="matrix(-4.6498008,-6.8578014,-6.8578014,4.6498008,37.363182,9.0844555)"
       gradientUnits="userSpaceOnUse"
       y2="0"
       x2="1"
       y1="0"
       x1="0"><stop
         id="stop118"
         offset="0"
         style="stop-opacity:1;stop-color:#cabb9f" /><stop
         id="stop120"
         offset="0.93804231"
         style="stop-opacity:1;stop-color:#383034" /><stop
         id="stop122"
         offset="1"
         style="stop-opacity:1;stop-color:#383034" /></linearGradient><clipPath
       id="clipPath134"
       clipPathUnits="userSpaceOnUse"><path
         id="path132"
         d="M 0,68.125 H 42.68 V 0 H 0 Z" /></clipPath></defs><g
     transform="matrix(1.3333333,0,0,-1.3333333,0,90.833867)"
     id="g10"><g
       id="g12"><g
         clip-path="url(#clipPath18)"
         id="g14"><g
           transform="translate(19.4079,67.2025)"
           id="g20"><path
             id="path22"
             style="fill:#fbddca;fill-opacity:1;fill-rule:nonzero;stroke:none"
             d="m 0,0 c -2.317,0.444 -3.946,-0.662 -4.39,-2.978 -0.017,-0.09 -0.035,-0.192 -0.053,-0.304 -0.216,-1.364 -0.1,-2.752 0.206,-4.1 0.321,-1.415 0.836,-3.438 -1.204,-4.039 l -0.314,-3.261 7.114,1.448 -1.094,1.688 -0.614,0.227 -0.029,1.878 2.445,0.071 1.324,4.372 C 3.835,-2.682 2.317,-0.444 0,0" /></g><g
           transform="translate(21.8147,9.75)"
           id="g24"><path
             id="path26"
             style="fill:#f4a583;fill-opacity:1;fill-rule:nonzero;stroke:none"
             d="m 0,0 -2.671,-1.656 -0.372,-6.5 2.701,0.812 z" /></g><g
           transform="translate(26.8663,1.0625)"
           id="g28"><path
             id="path30"
             style="fill:#1d1d1b;fill-opacity:1;fill-rule:nonzero;stroke:none"
             d="M 0,0 -4.969,2.125 -4.781,2.757 -5.424,2.531 -6.342,1.706 C -6.673,1.408 -7.145,1.329 -7.555,1.501 l -1.015,0.427 -0.068,-2.72 h 8.12 z" /></g><g
           transform="translate(18.2822,0.9375)"
           id="g32"><path
             id="path34"
             style="fill:#ececec;fill-opacity:1;fill-rule:nonzero;stroke:none"
             d="m 0,0 c 2.57,0 2.166,-0.667 3.688,-0.667 h 3.33 c 0.37,0 0.718,0.162 0.973,0.433 0.206,0.219 0.451,0.427 0.593,0.359 C 8.762,0.041 8.129,-0.937 8.129,-0.937 H 3.501 3.408 0 c -0.227,0 -0.411,0.336 -0.411,0.457 v 0.023 C -0.411,-0.336 -0.227,0 0,0" /></g><g
           transform="translate(7.4588,9.75)"
           id="g36"><path
             id="path38"
             style="fill:#f4a583;fill-opacity:1;fill-rule:nonzero;stroke:none"
             d="M 0,0 2.688,-1.656 0.719,-8.156 -2,-7.344 Z" /></g><g
           transform="translate(11.0552,35.3157)"
           id="g40"><path
             id="path42"
             style="fill:#98bcc6;fill-opacity:1;fill-rule:nonzero;stroke:none"
             d="m 0,0 -6.626,-29.208 5.511,-1.335 7.157,24.169 0.633,-0.077 -0.406,-24.338 5.291,-0.089 2.902,34 z" /></g><g
           transform="translate(0.0317,1.0625)"
           id="g44"><path
             id="path46"
             style="fill:#1d1d1b;fill-opacity:1;fill-rule:nonzero;stroke:none"
             d="M 0,0 5.001,2.125 4.812,2.757 5.458,2.531 6.381,1.706 C 6.715,1.408 7.19,1.329 7.602,1.501 l 1.022,0.427 0.069,-2.72 H 0.521 Z" /></g><g
           transform="translate(8.6697,0.9375)"
           id="g48"><path
             id="path50"
             style="fill:#ececec;fill-opacity:1;fill-rule:nonzero;stroke:none"
             d="m 0,0 c -2.586,0 -2.18,-0.667 -3.711,-0.667 h -3.351 c -0.373,0 -0.723,0.162 -0.979,0.433 -0.207,0.219 -0.454,0.427 -0.597,0.359 -0.179,-0.084 0.458,-1.062 0.458,-1.062 H -3.523 -3.43 0 c 0.229,0 0.414,0.336 0.414,0.457 v 0.023 C 0.414,-0.336 0.229,0 0,0" /></g><g
           transform="translate(22.6117,54.875)"
           id="g52"><path
             id="path54"
             style="fill:#f5f5f5;fill-opacity:1;fill-rule:nonzero;stroke:none"
             d="M 0,0 -2.938,0.437 -3.345,0.206 c -1.477,-0.841 -3.283,-0.86 -4.778,-0.051 l -0.521,0.282 -3.644,-1.916 -0.057,-21.583 15.05,3.093 z" /></g><g
           transform="translate(22.5582,55.244)"
           id="g56"><path
             id="path58"
             style="fill:#29235c;fill-opacity:1;fill-rule:nonzero;stroke:none"
             d="m 0,0 -2.885,0.819 1.711,-25.375 4.718,1.833 -0.05,1.555 c 0.017,-0.003 0.031,-0.013 0.05,-0.013 5.853,0 2.358,11.882 0.378,17.498 C 3.29,-1.889 1.829,-0.519 0,0" /></g><g
           transform="translate(9.142,33.9481)"
           id="g60"><path
             id="path62"
             style="fill:#29235c;fill-opacity:1;fill-rule:nonzero;stroke:none"
             d="m 0,0 c 0.061,0 0.117,0.015 0.17,0.039 l -0.045,-1.466 4.5,-1.834 0.2,25.375 -1.931,-0.837 C 1.503,20.675 0.404,19.557 -0.182,18.159 -2.39,12.887 -7.066,0 0,0" /></g><g
           transform="translate(14.1657,62.1054)"
           id="g64"><path
             id="path66"
             style="fill:#513528;fill-opacity:1;fill-rule:nonzero;stroke:none"
             d="m 0,0 c 0,-0.239 -0.306,-0.556 -0.202,-0.763 0.11,-0.219 0.584,-0.194 0.729,-0.356 0.261,-0.29 0.113,-0.914 0.437,-0.786 0.593,0.234 0.352,0.7 0.886,1.049 0.535,0.35 0.752,0.018 1.287,0.368 0.535,0.35 0.341,0.616 0.836,1.02 0.232,0.188 0.466,-0.041 0.649,0.195 0.184,0.236 -0.129,0.48 0.055,0.716 0.184,0.236 0.339,0.043 0.61,0.171 0.63,0 1.249,0.388 1.951,0.463 0.73,0.078 1.546,-0.151 2.097,0.122 0.655,0.324 0.805,1.004 0.805,1.781 0,0.59 -0.072,1.115 -0.594,1.338 C 9.127,5.497 8.485,5.222 7.933,5.314 7.422,5.4 6.974,5.865 6.497,5.985 5.851,6.149 4.96,5.694 4.042,5.458 3.25,5.255 2.287,5.291 1.594,4.884 0.769,4.4 0.406,3.582 0.154,2.945 0.03,2.463 -0.263,2.561 -0.295,2.012 -0.313,1.691 0.063,1.312 0.045,0.988 0.019,0.509 0,0.114 0,0" /></g><g
           transform="translate(17.7565,63.1362)"
           id="g68"><path
             id="path70"
             style="fill:#f4a583;fill-opacity:1;fill-rule:nonzero;stroke:none"
             d="M 0,0 C -0.519,0.002 -0.943,-0.457 -0.945,-1.027 -0.948,-1.596 -0.529,-2.06 -0.01,-2.062 Z" /></g><g
           transform="translate(21.511,61.9067)"
           id="g72"><path
             id="path74"
             style="fill:#1d1d1b;fill-opacity:1;fill-rule:nonzero;stroke:none"
             d="M 0,0 C -0.042,-0.218 -0.131,-0.412 -0.252,-0.546 -0.36,-0.667 -0.478,-0.723 -0.586,-0.7 c -0.237,0.045 -0.368,0.442 -0.287,0.867 0.042,0.218 0.132,0.411 0.252,0.545 0.094,0.104 0.195,0.159 0.29,0.159 0.016,0 0.03,-0.001 0.045,-0.004 C -0.05,0.821 0.081,0.424 0,0 M -0.248,1.063 C -0.426,1.097 -0.612,1.02 -0.769,0.846 -0.805,0.807 -0.83,0.752 -0.861,0.705 L -3.737,1.256 -3.775,1.06 -0.967,0.522 C -1.01,0.423 -1.047,0.317 -1.069,0.205 c -0.105,-0.55 0.09,-1.034 0.445,-1.101 0.028,-0.006 0.056,-0.008 0.083,-0.008 0.152,0 0.305,0.077 0.437,0.224 0.146,0.161 0.252,0.389 0.3,0.642 0.106,0.549 -0.09,1.033 -0.444,1.101" /></g><g
           transform="translate(23.0481,61.6123)"
           id="g76"><path
             id="path78"
             style="fill:#1d1d1b;fill-opacity:1;fill-rule:nonzero;stroke:none"
             d="m 0,0 c -0.082,-0.425 -0.356,-0.745 -0.586,-0.7 -0.237,0.045 -0.368,0.442 -0.287,0.867 0.042,0.217 0.132,0.411 0.252,0.545 0.094,0.104 0.195,0.159 0.29,0.159 0.015,0 0.03,-0.001 0.044,-0.004 C -0.05,0.821 0.081,0.424 0,0 m -0.249,1.063 c -0.179,0.035 -0.363,-0.043 -0.52,-0.217 -0.145,-0.16 -0.252,-0.388 -0.3,-0.641 -0.105,-0.55 0.09,-1.034 0.444,-1.101 0.028,-0.006 0.056,-0.008 0.084,-0.008 0.326,0 0.64,0.36 0.737,0.866 0.106,0.549 -0.09,1.033 -0.445,1.101" /></g><g
           transform="translate(22.7487,60.2306)"
           id="g80"><path
             id="path82"
             style="fill:#f4a583;fill-opacity:1;fill-rule:nonzero;stroke:none"
             d="M 0,0 -1.249,-0.206 -0.9,1.611 Z" /></g></g></g><g
       id="g84"><g
         id="g86"><g
           id="g92"><g
             id="g94"><path
               id="path104"
               style="fill:url(#linearGradient102);stroke:none"
               d="m 35.16,18.493 c -1.87,-0.098 -3.631,-1.811 -3.272,-3.648 v 0 c 0.113,-0.582 0.748,-1.974 1.015,-2.545 v 0 c 0.078,-0.166 0.126,-0.345 0.141,-0.528 v 0 l 0.313,-3.784 c -0.173,0.053 -0.306,0.24 -0.528,0.24 v 0 c -1.565,0 -2.25,-0.525 -2.25,-2.25 v 0 c 0,-0.842 0.304,-1.809 0.794,-2.584 v 0 l -1.44,-0.417 c -0.391,0 -0.708,-0.317 -0.708,-0.708 v 0 c 0,-0.391 0.671,-0.292 1.063,-0.292 v 0 h 1.6 0.833 5.783 c 1.892,0 4.171,0.526 4.171,2.396 v 0 c 0,4.021 -3.982,7.678 -3.982,11.541 v 0 c 0,1.533 -1.705,2.584 -3.338,2.584 v 0 c -0.065,0 -0.13,-0.001 -0.195,-0.005" /></g></g></g></g><g
       id="g106"><g
         id="g108"><g
           id="g114"><g
             id="g116"><path
               id="path126"
               style="fill:url(#linearGradient124);stroke:none"
               d="m 33.147,9.938 c 0,0 -0.571,-2.825 -0.571,-4.393 v 0 c 0,-3.088 1.003,-3.568 2.973,-3.568 v 0 h 2.084 c 1.234,0 -1.354,3.066 -2.766,7.304 v 0 c -0.364,1.092 -0.963,1.627 -1.362,1.627 v 0 c -0.311,0 -0.5,-0.327 -0.358,-0.97" /></g></g></g></g><g
       id="g128"><g
         clip-path="url(#clipPath134)"
         id="g130"><g
           transform="translate(42.6271,3.8329)"
           id="g136"><path
             id="path138"
             style="fill:#caba9f;fill-opacity:1;fill-rule:nonzero;stroke:none"
             d="m 0,0 c 0.366,1.687 -1.208,3.676 -3.854,3.676 -1.565,0 -2.25,-0.524 -2.25,-2.25 0,-0.364 0.057,-0.752 0.161,-1.137 0.225,-0.829 -0.277,-1.681 -1.109,-1.894 v 0 c -0.391,0 -0.708,-0.318 -0.708,-0.709 0,-0.391 0.973,-0.26 1.364,-0.26 l 3,-0.011 c 0.938,0 1.159,0.06 2.219,0.809 C -0.801,-1.51 -0.175,-0.806 0,0" /></g><g
           transform="translate(32.1169,15.4149)"
           id="g140"><path
             id="path142"
             style="fill:#1d1d1b;fill-opacity:1;fill-rule:nonzero;stroke:none"
             d="m 0,0 c 0,-0.794 0.644,-1.437 1.437,-1.437 0.794,0 1.438,0.643 1.438,1.437 0,0.794 -0.644,1.437 -1.438,1.437 C 0.644,1.437 0,0.794 0,0" /></g><g
           transform="translate(35.5231,15.7482)"
           id="g144"><path
             id="path146"
             style="fill:#1d1d1b;fill-opacity:1;fill-rule:nonzero;stroke:none"
             d="m 0,0 c 0,-0.184 0.149,-0.333 0.333,-0.333 0.184,0 0.334,0.149 0.334,0.333 0,0.184 -0.15,0.333 -0.334,0.333 C 0.149,0.333 0,0.184 0,0" /></g><g
           transform="translate(32.829,17.4149)"
           id="g148"><path
             id="path150"
             style="fill:#1d1d1b;fill-opacity:1;fill-rule:nonzero;stroke:none"
             d="m 0,0 c 0,-0.184 0.149,-0.333 0.333,-0.333 0.184,0 0.334,0.149 0.334,0.333 0,0.184 -0.15,0.333 -0.334,0.333 C 0.149,0.333 0,0.184 0,0" /></g><g
           transform="translate(39.0068,15.2289)"
           id="g152"><path
             id="path154"
             style="fill:#1d1d1b;fill-opacity:1;fill-rule:nonzero;stroke:none"
             d="m 0,0 v 0 c -0.473,-0.231 -1.025,0.113 -1.025,0.64 v 1.213 c 0,0 1.047,-0.564 1.321,-0.845 C 0.588,0.709 0.376,0.184 0,0" /></g><g
           transform="translate(35.2843,1.5554)"
           id="g156"><path
             id="path158"
             style="fill:#caba9f;fill-opacity:1;fill-rule:nonzero;stroke:none"
             d="M 0,0 C -0.061,-0.321 -0.342,-0.554 -0.669,-0.554 H -1.48 l 0.713,7.755 C -0.665,8.306 0.529,8.95 1.508,8.428 L 1.945,8.195 C 2.654,7.816 2.956,6.959 2.642,6.22 Z" /></g><g
           transform="translate(32.5441,1.9775)"
           id="g160"><path
             id="path162"
             style="fill:#caba9f;fill-opacity:1;fill-rule:nonzero;stroke:none"
             d="M 0,0 C -0.061,-0.321 -0.342,-0.554 -0.669,-0.554 H -1.48 L 0.511,9.752 0.7,9.105 0.686,6.415 C 0.686,6.362 0.683,6.309 0.677,6.256 Z" /></g><g
           transform="translate(32.8484,15.5029)"
           id="g164"><path
             id="path166"
             style="fill:#f4a583;fill-opacity:1;fill-rule:nonzero;stroke:none"
             d="m 0,0 -0.146,-0.39 c -0.09,-0.241 0.047,-0.514 0.306,-0.611 0.258,-0.097 0.541,0.02 0.631,0.261 l 0.146,0.39 z" /></g><g
           transform="translate(39.3226,13.029)"
           id="g168"><path
             id="path170"
             style="fill:#e5332a;fill-opacity:1;fill-rule:nonzero;stroke:none"
             d="m 0,0 -6.491,-1.389 -0.175,0.821 6.358,1.449 z" /></g><g
           transform="translate(33.3042,11.7298)"
           id="g172"><path
             id="path174"
             style="fill:#ffffff;fill-opacity:1;fill-rule:nonzero;stroke:none"
             d="M 0,0 C 0,-0.276 0.224,-0.5 0.5,-0.5 0.776,-0.5 1,-0.276 1,0 1,0.276 0.776,0.5 0.5,0.5 0.224,0.5 0,0.276 0,0" /></g></g></g></g></svg>