<?xml version="1.0" encoding="UTF-8" standalone="no"?>
<svg
   xmlns:dc="http://purl.org/dc/elements/1.1/"
   xmlns:cc="http://creativecommons.org/ns#"
   xmlns:rdf="http://www.w3.org/1999/02/22-rdf-syntax-ns#"
   xmlns:svg="http://www.w3.org/2000/svg"
   xmlns="http://www.w3.org/2000/svg"
   viewBox="0 0 68.12307 89.339333"
   height="89.339333"
   width="68.12307"
   xml:space="preserve"
   id="svg2"
   version="1.1"><metadata
     id="metadata8"><rdf:RDF><cc:Work
         rdf:about=""><dc:format>image/svg+xml</dc:format><dc:type
           rdf:resource="http://purl.org/dc/dcmitype/StillImage" /></cc:Work></rdf:RDF></metadata><defs
     id="defs6"><clipPath
       id="clipPath18"
       clipPathUnits="userSpaceOnUse"><path
         id="path16"
         d="M 0,67.005 H 51.092 V 0 H 0 Z" /></clipPath><clipPath
       id="clipPath78"
       clipPathUnits="userSpaceOnUse"><path
         id="path76"
         d="M 4.40758,27.2986 H 7.56604 V 24.8921 H 4.40758 Z" /></clipPath><clipPath
       id="clipPath178"
       clipPathUnits="userSpaceOnUse"><path
         id="path176"
         d="m 36.5133,57.83 h 4.7725 v -3.5553 h -4.7725 z" /></clipPath><clipPath
       id="clipPath226"
       clipPathUnits="userSpaceOnUse"><path
         id="path224"
         d="M 16.2682,54.8627 H 21.915 V 49.569 h -5.6468 z" /></clipPath></defs><g
     transform="matrix(1.3333333,0,0,-1.3333333,0,89.339333)"
     id="g10"><g
       id="g12"><g
         clip-path="url(#clipPath18)"
         id="g14"><g
           transform="translate(16.043,22.1213)"
           id="g20"><path
             id="path22"
             style="fill:#fbddca;fill-opacity:1;fill-rule:nonzero;stroke:none"
             d="m 0,0 -2.951,-1.141 -3.921,3.485 -0.865,-1.441 3.844,-3.247 3.378,0.047 C -0.282,-1.974 0,0 0,0" /></g><g
           transform="translate(6.9237,33.375)"
           id="g24"><path
             id="path26"
             style="fill:#fbddca;fill-opacity:1;fill-rule:nonzero;stroke:none"
             d="M 0,0 6.884,8.417 9.345,15.356 6.827,16.227 4.493,9.002 -1.5,-0.31 C -0.85,-0.365 0,0 0,0" /></g><g
           transform="translate(7.9013,30.4997)"
           id="g28"><path
             id="path30"
             style="fill:#f4a583;fill-opacity:1;fill-rule:nonzero;stroke:none"
             d="M 0,0 C 0.38,0.002 0.69,0.082 0.692,-0.335 0.694,-0.752 0.322,-1.508 -0.058,-1.51 Z" /></g><g
           transform="translate(3.6084,30.5011)"
           id="g32"><path
             id="path34"
             style="fill:#f4a583;fill-opacity:1;fill-rule:nonzero;stroke:none"
             d="m 0,0 c -0.378,-0.002 -0.687,0.076 -0.685,-0.341 0.002,-0.417 0.314,-1.171 0.692,-1.169 z" /></g><g
           transform="translate(7.9012,25.6005)"
           id="g36"><path
             id="path38"
             style="fill:#fbddca;fill-opacity:1;fill-rule:nonzero;stroke:none"
             d="m 0,0 1.099,-2.387 -6.077,1.06 0.801,1.235 c 0.679,0.295 0.986,1.087 0.683,1.762 l -0.005,0.012 c 0,0 -0.002,0.01 -0.002,0.012 -0.644,0.414 -0.988,0.564 -0.988,3.431 0,1.835 1.223,1.529 2.339,1.529 1.093,0 2.321,0.455 2.321,-1.355 C 0.171,3.32 0.147,2.191 -0.795,1.698 -0.964,0.967 -0.94,0.277 0,0" /></g><g
           transform="translate(3.2405,9.3543)"
           id="g40"><path
             id="path42"
             style="fill:#fbddca;fill-opacity:1;fill-rule:nonzero;stroke:none"
             d="M 0,0 1.876,-0.205 1.225,-7.235 -0.038,-7.298 Z" /></g><g
           transform="translate(0.6361,1.2574)"
           id="g44"><path
             id="path46"
             style="fill:#f1c290;fill-opacity:1;fill-rule:nonzero;stroke:none"
             d="M 0,0 2.12,1.263 2.39,1.505 2.936,1.014 C 3.133,0.837 3.413,0.79 3.657,0.892 L 4.26,1.146 4.301,-0.471 H 0 Z" /></g><g
           transform="translate(9.1488,9.3543)"
           id="g48"><path
             id="path50"
             style="fill:#fbddca;fill-opacity:1;fill-rule:nonzero;stroke:none"
             d="m 0,0 -1.615,-0.372 0.415,-7.164 1.148,0.238 z" /></g><g
           transform="translate(9.4942,16.6158)"
           id="g52"><path
             id="path54"
             style="fill:#1d70b7;fill-opacity:1;fill-rule:nonzero;stroke:none"
             d="m 0,0 0.014,-7.89 -2.683,-0.686 -0.604,4.288 -0.718,-4.288 -2.74,0.727 -0.122,7.759 z" /></g><g
           transform="translate(10.9269,1.2574)"
           id="g56"><path
             id="path58"
             style="fill:#f1c290;fill-opacity:1;fill-rule:nonzero;stroke:none"
             d="M 0,0 -1.433,1.263 -1.685,1.505 -2.274,1.014 C -2.487,0.837 -2.773,0.79 -3.01,0.892 l -0.373,0.254 -0.173,-1.617 h 3.518 z" /></g><g
           transform="translate(2.7866,13.315)"
           id="g60"><path
             id="path62"
             style="fill:#fbddca;fill-opacity:1;fill-rule:nonzero;stroke:none"
             d="M 0,0 -2.787,5.302 -1.251,9.547 0.28,8.98 -1.426,4.648 0.219,1.75 C -0.111,1.977 0,0 0,0" /></g><g
           transform="translate(2.9236,25.055)"
           id="g64"><path
             id="path66"
             style="fill:#f4a583;fill-opacity:1;fill-rule:nonzero;stroke:none"
             d="m 0,0 1.279,0.66 1.77,-1.133 1.622,1.208 1.406,-0.403 0.836,-10.416 -7.196,0.375 z" /></g><g
           transform="translate(5.6226,29.7485)"
           id="g68"><path
             id="path70"
             style="fill:#f4a583;fill-opacity:1;fill-rule:nonzero;stroke:none"
             d="M 0,0 -0.354,-0.94 0,-1.022 0.354,-0.94 Z" /></g><g
           id="g72"><g
             id="g74" /><g
             id="g86"><g
               style="opacity:0.72000098"
               id="g84"
               clip-path="url(#clipPath78)"><g
                 id="g82"
                 transform="translate(7.566,25.7808)"><path
                   id="path80"
                   style="fill:#dab29b;fill-opacity:1;fill-rule:nonzero;stroke:none"
                   d="m 0,0 c -0.421,0.226 -0.64,0.704 -0.536,1.171 l 0.077,0.347 -0.742,-0.38 C -1.425,1.024 -1.674,0.965 -1.925,0.969 v 0 C -2.223,0.972 -2.514,1.062 -2.762,1.227 L -3.158,1.49 -1.177,-0.889 C -0.829,-0.726 0,0 0,0" /></g></g></g></g><g
           transform="translate(8.923,21.5861)"
           id="g88"><path
             id="path90"
             style="fill:#f4a583;fill-opacity:1;fill-rule:nonzero;stroke:none"
             d="M 0,0 V 3.801 L 1.827,2.031 Z" /></g><g
           transform="translate(3.2696,20.69)"
           id="g92"><path
             id="path94"
             style="fill:#f4a583;fill-opacity:1;fill-rule:nonzero;stroke:none"
             d="M 0,0 -0.346,4.365 -1.614,3.288 -2.58,1.428 Z" /></g><g
           transform="translate(40.1414,43.7121)"
           id="g96"><path
             id="path98"
             style="fill:#fbddca;fill-opacity:1;fill-rule:nonzero;stroke:none"
             d="M 0,0 -6.938,1.406 -13.356,7.11 -14.772,4.753 -8.48,-0.562 1.203,-2.315 C 1.585,-1.786 0,0 0,0" /></g><g
           transform="translate(17.888,38.6205)"
           id="g100"><path
             id="path102"
             style="fill:#fbddca;fill-opacity:1;fill-rule:nonzero;stroke:none"
             d="M 0,0 6.877,2.894 7.24,0.342 -0.764,-2.641 C -1.268,-2.174 0,0 0,0" /></g><g
           transform="translate(22.7471,40.8512)"
           id="g104"><path
             id="path106"
             style="fill:#1d70b7;fill-opacity:1;fill-rule:nonzero;stroke:none"
             d="M 0,0 3.875,2.289 8.922,13.424 12.508,13.338 13.102,11.14 6.636,-0.064 0.984,-2.878 Z" /></g><g
           transform="translate(20.5816,64)"
           id="g108"><path
             id="path110"
             style="fill:#f1c290;fill-opacity:1;fill-rule:nonzero;stroke:none"
             d="m 0,0 h 0.049 c 2.086,0 3.783,-1.544 3.804,-3.461 0,0 1.014,-9.366 -0.134,-10.431 -1.385,-1.287 -6.386,-1.409 -7.623,0 -0.995,1.132 -0.054,10.254 -0.054,10.254 C -3.958,-1.629 -2.186,0 0,0" /></g><g
           transform="translate(41.2858,62.2003)"
           id="g112"><path
             id="path114"
             style="fill:#f4a583;fill-opacity:1;fill-rule:nonzero;stroke:none"
             d="M 0,0 C 0.519,0.002 0.943,0.112 0.945,-0.457 0.948,-1.027 0.44,-2.06 -0.08,-2.062 Z" /></g><g
           transform="translate(35.4216,62.2048)"
           id="g116"><path
             id="path118"
             style="fill:#f4a583;fill-opacity:1;fill-rule:nonzero;stroke:none"
             d="m 0,0 c -0.516,-0.002 -0.938,0.103 -0.935,-0.466 0.002,-0.57 0.428,-1.599 0.945,-1.596 z" /></g><g
           transform="translate(41.2858,55.5104)"
           id="g120"><path
             id="path122"
             style="fill:#fbddca;fill-opacity:1;fill-rule:nonzero;stroke:none"
             d="m 0,0 1.502,-3.26 -8.302,1.448 1.094,1.687 c 0.928,0.402 1.348,1.484 0.934,2.406 L -4.78,2.297 c 0,0 -0.002,0.015 -0.002,0.017 -0.469,0.297 -0.64,0.554 -0.861,1.04 -0.375,0.823 -0.567,4.309 -0.489,4.807 0.387,2.477 1.671,3.282 3.194,3.282 1.494,0 2.757,-0.607 3.171,-3.044 C 0.327,7.849 0.017,4.342 -0.358,3.506 -0.584,3.004 -0.678,2.493 -1.086,2.32 -1.317,1.321 -1.284,0.379 0,0" /></g><g
           transform="translate(33.0107,9.4792)"
           id="g124"><path
             id="path126"
             style="fill:#fbddca;fill-opacity:1;fill-rule:nonzero;stroke:none"
             d="m 0,0 2.671,-1.656 0.372,-6.5 -2.701,0.812 z" /></g><g
           transform="translate(27.6619,0.7917)"
           id="g128"><path
             id="path130"
             style="fill:#b1b1b1;fill-opacity:1;fill-rule:nonzero;stroke:none"
             d="M 0,0 4.969,2.125 5.424,2.531 6.342,1.706 C 6.673,1.408 7.145,1.329 7.555,1.501 L 8.57,1.928 8.638,-0.792 H 0 Z" /></g><g
           transform="translate(44.6436,9.4792)"
           id="g132"><path
             id="path134"
             style="fill:#fbddca;fill-opacity:1;fill-rule:nonzero;stroke:none"
             d="m 0,0 -3.24,-0.625 2.382,-7.118 2.306,0.399 z" /></g><g
           transform="translate(45.698,35.0742)"
           id="g136"><path
             id="path138"
             style="fill:#1d1d1b;fill-opacity:1;fill-rule:nonzero;stroke:none"
             d="m 0,0 0.028,-29.552 -3.857,-0.956 -2.208,24.105 -0.634,-0.077 -2.973,-24.363 -3.043,-0.065 -1.28,30.756 z" /></g><g
           transform="translate(49.1019,0.7917)"
           id="g140"><path
             id="path142"
             style="fill:#b1b1b1;fill-opacity:1;fill-rule:nonzero;stroke:none"
             d="M 0,0 -2.584,2.125 -3.042,2.531 -3.965,1.706 C -4.298,1.408 -4.773,1.329 -5.185,1.501 l -0.662,0.427 -0.07,-2.72 H 0 Z" /></g><g
           transform="translate(31.6687,54.2747)"
           id="g144"><path
             id="path146"
             style="fill:#1d70b7;fill-opacity:1;fill-rule:nonzero;stroke:none"
             d="m 0,0 3.911,1.111 2.978,-1.907 2.728,2.032 3.858,-0.677 0.742,-22.625 H 0 Z" /></g><g
           transform="translate(23.6078,6.851)"
           id="g148"><path
             id="path150"
             style="fill:#fbddca;fill-opacity:1;fill-rule:nonzero;stroke:none"
             d="m 0,0 -2.462,4.034 0.527,-9.403 h 1.664 z" /></g><g
           transform="translate(12.3374,6.851)"
           id="g152"><path
             id="path154"
             style="fill:#fbddca;fill-opacity:1;fill-rule:nonzero;stroke:none"
             d="M 0,0 2.714,4.034 1.501,-5.369 h -1.664 z" /></g><g
           transform="translate(15.0816,52.0198)"
           id="g156"><path
             id="path158"
             style="fill:#f5f5f5;fill-opacity:1;fill-rule:nonzero;stroke:none"
             d="m 0,0 2.784,0.196 2.791,-1.674 2.245,2.031 3.175,-0.677 -1.838,-10.845 1.773,-3.105 -10.708,-0.738 1.665,3.376 z" /></g><g
           transform="translate(44.9499,31.8761)"
           id="g160"><path
             id="path162"
             style="fill:#fbddca;fill-opacity:1;fill-rule:nonzero;stroke:none"
             d="M 0,0 2.494,7.032 4.624,5.581 0.753,-2.107 C 0.068,-2.165 0,0 0,0" /></g><g
           transform="translate(38.0744,61.8437)"
           id="g164"><path
             id="path166"
             style="fill:#f4a583;fill-opacity:1;fill-rule:nonzero;stroke:none"
             d="M 0,0 -0.484,-1.898 0,-2.063 0.484,-1.898 Z" /></g><g
           transform="translate(34.9588,64.7135)"
           id="g168"><path
             id="path170"
             style="fill:#7e4e24;fill-opacity:1;fill-rule:nonzero;stroke:none"
             d="m 0,0 c -0.049,-1.391 2.906,-0.659 3.978,-0.155 l 0.913,0.43 -0.172,-0.447 0.95,0.813 0.89,-1.446 C 6.736,-0.477 6.807,-0.149 6.808,0.163 6.814,1.344 5.761,2.291 4.579,2.291 0.052,2.291 0,0 0,0" /></g><g
           id="g172"><g
             id="g174" /><g
             id="g186"><g
               style="opacity:0.72000098"
               id="g184"
               clip-path="url(#clipPath178)"><g
                 id="g182"
                 transform="translate(41.2858,55.5104)"><path
                   id="path180"
                   style="fill:#dab29b;fill-opacity:1;fill-rule:nonzero;stroke:none"
                   d="m 0,0 -0.458,0.246 c -0.575,0.309 -0.874,0.963 -0.733,1.6 L -1.086,2.32 -2.098,1.801 C -2.405,1.645 -2.744,1.565 -3.088,1.569 -3.495,1.574 -3.892,1.697 -4.231,1.922 l -0.541,0.359 2.93,-3.517 C -1.008,-0.941 0,0 0,0" /></g></g></g></g><g
           transform="translate(17.8661,59.1105)"
           id="g188"><path
             id="path190"
             style="fill:#f4a583;fill-opacity:1;fill-rule:nonzero;stroke:none"
             d="m 0,0 c -0.493,0.002 -0.895,0.107 -0.897,-0.434 -0.003,-0.54 0.395,-1.52 0.888,-1.523 z" /></g><g
           transform="translate(23.4128,59.1123)"
           id="g192"><path
             id="path194"
             style="fill:#f4a583;fill-opacity:1;fill-rule:nonzero;stroke:none"
             d="M 0,0 C 0.49,-0.002 0.891,0.098 0.888,-0.442 0.886,-0.983 0.481,-1.959 -0.009,-1.957 Z" /></g><g
           transform="translate(17.7354,52.3757)"
           id="g196"><path
             id="path198"
             style="fill:#fbddca;fill-opacity:1;fill-rule:nonzero;stroke:none"
             d="m 0,0 -1.467,-0.251 0.172,-2.556 8.062,0.306 0.359,2.268 -1.578,0.401 C 4.284,0.499 3.787,1.576 4.18,2.451 l 0.006,0.015 c 0,0 -0.007,0.013 -0.006,0.015 0.841,0.85 1.886,2.292 1.886,3.93 0,3.629 -1.409,4.731 -3.146,4.731 -1.738,0 -3.147,-0.865 -3.147,-4.731 C -0.227,4.777 0.8,3.337 1.638,2.487 1.858,1.539 1.465,0 0,0" /></g><g
           transform="translate(11.9034,5.401)"
           id="g200"><path
             id="path202"
             style="fill:#98bcc6;fill-opacity:1;fill-rule:nonzero;stroke:none"
             d="m 0,0 1.773,24.455 c 0,1.751 0.293,3.488 0.864,5.143 l 0.763,2.208 10.708,0.738 0.612,-1.949 c 0.586,-1.87 0.819,-3.833 0.687,-5.788 l -3.095,-24.6 c 0,0 -3.33,-1.167 -3.33,-0.566 0,3.989 0.03,24.916 0.03,24.916 H 8.107 C 8.107,24.557 5.065,9.849 3.294,0 3.196,-0.547 0,0 0,0" /></g><g
           transform="translate(46.5749,36.9699)"
           id="g204"><path
             id="path206"
             style="fill:#1d70b7;fill-opacity:1;fill-rule:nonzero;stroke:none"
             d="m 0,0 0.919,4.041 -2.35,6.031 v 7.791 L 0.477,15.603 4.517,4.496 2.79,-1.212 Z" /></g><g
           transform="translate(9.5841,0.6185)"
           id="g208"><path
             id="path210"
             style="fill:#1d1d1b;fill-opacity:1;fill-rule:nonzero;stroke:none"
             d="m 0,0 0.192,0.486 2.127,1.062 0.272,0.43 H 3.317 L 3.567,1.333 C 3.828,1.1 3.777,1.038 4.099,1.173 L 4.442,1.507 4.639,-0.619 H 0 Z" /></g><g
           transform="translate(27.9421,0.6185)"
           id="g212"><path
             id="path214"
             style="fill:#1d1d1b;fill-opacity:1;fill-rule:nonzero;stroke:none"
             d="M 0,0 -4.076,1.66 -4.432,1.978 -4.98,1.333 C -5.239,1.1 -5.608,1.038 -5.929,1.173 L -6.541,1.507 -6.776,-0.619 H 0 Z" /></g><g
           transform="translate(21.3741,56.8798)"
           id="g216"><path
             id="path218"
             style="fill:#f4a583;fill-opacity:1;fill-rule:nonzero;stroke:none"
             d="m 0,0 h -0.918 l 0.459,1.938 z" /></g><g
           id="g220"><g
             id="g222" /><g
             id="g234"><g
               style="opacity:0.57000703"
               id="g232"
               clip-path="url(#clipPath226)"><g
                 id="g230"
                 transform="translate(16.2682,52.1244)"><path
                   id="path228"
                   style="fill:#dab29b;fill-opacity:1;fill-rule:nonzero;stroke:none"
                   d="M 0,0 C 0,0 3.172,0.126 3.172,2.122 L 3.105,2.738 3.713,2.367 C 4.123,2.117 4.637,2.112 5.052,2.354 L 5.647,2.702 2.661,-2.461 0.172,-2.555 Z" /></g></g></g></g><g
           transform="translate(16.4403,47.1667)"
           id="g236"><path
             id="path238"
             style="fill:#f5f5f5;fill-opacity:1;fill-rule:nonzero;stroke:none"
             d="M 0,0 0.528,1.25 -1.359,4.853 -4.049,0.738 Z" /></g><g
           transform="translate(29.1233,49.3331)"
           id="g240"><path
             id="path242"
             style="fill:#f5f5f5;fill-opacity:1;fill-rule:nonzero;stroke:none"
             d="M 0,0 -3.047,2.5 -4.621,0.542 v -2.708 z" /></g><path
           id="path244"
           style="fill:#f5f5f5;fill-opacity:1;fill-rule:nonzero;stroke:none"
           d="m 9.584,0.619 h 4.639 V 0 H 9.584 Z" /><path
           id="path246"
           style="fill:#f5f5f5;fill-opacity:1;fill-rule:nonzero;stroke:none"
           d="m 21.146,0.619 h 6.796 V 0 h -6.796 z" /><g
           transform="translate(17.2483,59.0189)"
           id="g248"><path
             id="path250"
             style="fill:#f1c290;fill-opacity:1;fill-rule:nonzero;stroke:none"
             d="M 0,0 C 2.042,0 4.632,1.959 6.622,1.959 L 5.883,3.844 3.93,4.715 C 3.551,4.884 3.117,4.882 2.74,4.708 L 0.618,3.731 C 0.618,3.731 -0.844,0 0,0" /></g><g
           transform="translate(39.4073,60.8625)"
           id="g252"><path
             id="path254"
             style="fill:#1d70b7;fill-opacity:1;fill-rule:nonzero;stroke:none"
             d="m 0,0 c -0.397,0 -0.721,0.323 -0.721,0.721 0,0.397 0.324,0.721 0.721,0.721 0.397,0 0.722,-0.324 0.722,-0.721 C 0.722,0.323 0.397,0 0,0 m -2.668,0 c -0.397,0 -0.721,0.323 -0.721,0.721 0,0.397 0.324,0.721 0.721,0.721 0.397,0 0.722,-0.324 0.722,-0.721 C -1.946,0.323 -2.271,0 -2.668,0 M 2.059,1.276 2.045,1.375 0.657,1.188 C 0.508,1.396 0.276,1.542 0,1.542 -0.329,1.542 -0.609,1.344 -0.74,1.064 -1.079,1.354 -1.583,1.351 -1.911,1.04 -2.036,1.335 -2.328,1.542 -2.668,1.542 -2.942,1.542 -3.174,1.397 -3.323,1.19 L -4.225,1.395 -4.246,1.297 -3.383,1.101 C -3.444,0.986 -3.488,0.86 -3.488,0.721 c 0,-0.453 0.368,-0.821 0.82,-0.821 0.453,0 0.821,0.368 0.821,0.821 0,0.098 -0.024,0.19 -0.056,0.277 l 0.042,-0.041 c 0.3,0.299 0.783,0.3 1.09,0.009 C -0.796,0.888 -0.82,0.808 -0.82,0.721 -0.82,0.268 -0.452,-0.1 0,-0.1 c 0.453,0 0.821,0.368 0.821,0.821 0,0.137 -0.042,0.261 -0.102,0.375 z" /></g><g
           transform="translate(8.5799,32.0831)"
           id="g256"><path
             id="path258"
             style="fill:#925f36;fill-opacity:1;fill-rule:nonzero;stroke:none"
             d="m 0,0 -0.362,-0.906 -0.189,-1.066 -0.186,1.116 c -0.989,0 -3.176,1.575 -4.227,0 -0.158,-0.236 -0.19,-1.119 -0.19,-1.119 l -0.184,1.119 -0.223,0.768 c -0.202,0.991 0.634,1.064 1.54,0.601 C -3.519,0.256 -1.896,2.451 0,0" /></g></g></g></g></svg>