<?xml version="1.0" encoding="UTF-8" standalone="no"?>
<svg
   xmlns:dc="http://purl.org/dc/elements/1.1/"
   xmlns:cc="http://creativecommons.org/ns#"
   xmlns:rdf="http://www.w3.org/1999/02/22-rdf-syntax-ns#"
   xmlns:svg="http://www.w3.org/2000/svg"
   xmlns="http://www.w3.org/2000/svg"
   viewBox="0 0 55.400665 90.534264"
   height="90.534264"
   width="55.400665"
   xml:space="preserve"
   id="svg2"
   version="1.1"><metadata
     id="metadata8"><rdf:RDF><cc:Work
         rdf:about=""><dc:format>image/svg+xml</dc:format><dc:type
           rdf:resource="http://purl.org/dc/dcmitype/StillImage" /></cc:Work></rdf:RDF></metadata><defs
     id="defs6"><clipPath
       id="clipPath18"
       clipPathUnits="userSpaceOnUse"><path
         id="path16"
         d="M 0,67.901 H 41.55 V 0 H 0 Z" /></clipPath><clipPath
       id="clipPath82"
       clipPathUnits="userSpaceOnUse"><path
         id="path80"
         d="m 11.0913,57.83 h 4.7724 v -3.5553 h -4.7724 z" /></clipPath><clipPath
       id="clipPath146"
       clipPathUnits="userSpaceOnUse"><path
         id="path144"
         d="m 28.2545,54.8627 h 4.7564 v -4.038 h -4.7564 z" /></clipPath></defs><g
     transform="matrix(1.3333333,0,0,-1.3333333,0,90.534267)"
     id="g10"><g
       id="g12"><g
         clip-path="url(#clipPath18)"
         id="g14"><g
           transform="translate(12.2356,43.7121)"
           id="g20"><path
             id="path22"
             style="fill:#fbddca;fill-opacity:1;fill-rule:nonzero;stroke:none"
             d="M 0,0 6.938,1.406 13.356,7.11 14.772,4.753 7.848,0.344 -1.203,-2.315 C -1.585,-1.786 0,0 0,0" /></g><g
           transform="translate(31.7954,64)"
           id="g24"><path
             id="path26"
             style="fill:#422918;fill-opacity:1;fill-rule:nonzero;stroke:none"
             d="m 0,0 h -0.049 c -2.086,0 -3.783,-1.544 -3.804,-3.461 0,0 -1.215,-4.933 -0.067,-5.998 1.385,-1.287 6.641,-1.409 7.878,0 0.995,1.132 0,5.821 0,5.821 C 3.958,-1.629 2.186,0 0,0" /></g><g
           transform="translate(11.0912,62.2003)"
           id="g28"><path
             id="path30"
             style="fill:#f4a583;fill-opacity:1;fill-rule:nonzero;stroke:none"
             d="m 0,0 c -0.519,0.002 -0.943,0.112 -0.945,-0.457 -0.003,-0.57 0.416,-1.603 0.935,-1.605 z" /></g><g
           transform="translate(17.1456,62.2048)"
           id="g32"><path
             id="path34"
             style="fill:#f4a583;fill-opacity:1;fill-rule:nonzero;stroke:none"
             d="M 0,0 C 0.516,-0.002 0.938,0.103 0.935,-0.466 0.933,-1.036 0.507,-2.065 -0.01,-2.062 Z" /></g><g
           transform="translate(11.0913,55.5104)"
           id="g36"><path
             id="path38"
             style="fill:#fbddca;fill-opacity:1;fill-rule:nonzero;stroke:none"
             d="M 0,0 -1.502,-3.26 6.8,-1.812 5.706,-0.125 C 4.778,0.277 4.358,1.359 4.772,2.281 L 4.78,2.297 c 0,0 0.002,0.015 0.002,0.017 0.886,0.895 1.47,2.415 1.47,4.142 0,3.825 -1.484,4.987 -3.314,4.987 -1.831,0 -3.315,-0.912 -3.315,-4.987 0,-1.722 0.58,-3.24 1.463,-4.136 C 1.317,1.321 1.284,0.379 0,0" /></g><g
           transform="translate(19.3663,9.4792)"
           id="g40"><path
             id="path42"
             style="fill:#fbddca;fill-opacity:1;fill-rule:nonzero;stroke:none"
             d="m 0,0 -2.671,-1.656 -0.372,-6.5 2.701,0.812 z" /></g><g
           transform="translate(24.7151,0.7917)"
           id="g44"><path
             id="path46"
             style="fill:#422918;fill-opacity:1;fill-rule:nonzero;stroke:none"
             d="M 0,0 -4.969,2.125 -5.424,2.531 -6.342,1.706 C -6.673,1.408 -7.145,1.329 -7.555,1.501 L -8.57,1.928 -8.638,-0.792 H 0 Z" /></g><g
           transform="translate(4.4583,9.4792)"
           id="g48"><path
             id="path50"
             style="fill:#fbddca;fill-opacity:1;fill-rule:nonzero;stroke:none"
             d="M 0,0 3.24,-0.625 0.858,-7.743 -1.448,-7.344 Z" /></g><g
           transform="translate(6.679,35.0742)"
           id="g52"><path
             id="path54"
             style="fill:#29235c;fill-opacity:1;fill-rule:nonzero;stroke:none"
             d="m 0,0 -3.304,-29.552 3.858,-0.956 5.483,24.105 0.634,-0.077 2.973,-24.363 3.043,-0.065 1.28,30.756 z" /></g><g
           transform="translate(0,0.7917)"
           id="g56"><path
             id="path58"
             style="fill:#422918;fill-opacity:1;fill-rule:nonzero;stroke:none"
             d="M 0,0 2.584,2.125 3.042,2.531 3.965,1.706 C 4.298,1.408 4.773,1.329 5.185,1.501 l 0.662,0.427 0.07,-2.72 H 0 Z" /></g><g
           transform="translate(20.7083,54.2747)"
           id="g60"><path
             id="path62"
             style="fill:#f5f5f5;fill-opacity:1;fill-rule:nonzero;stroke:none"
             d="m 0,0 -3.911,1.111 -2.978,-1.907 -2.728,2.032 -3.858,-0.677 -0.942,-21.5 14.752,-2.105 z" /></g><g
           transform="translate(7.4271,31.5104)"
           id="g64"><path
             id="path66"
             style="fill:#fbddca;fill-opacity:1;fill-rule:nonzero;stroke:none"
             d="m 0,0 -2.494,7.032 -2.13,-1.451 3.187,-7.925 C -0.753,-2.401 0,0 0,0" /></g><g
           transform="translate(14.7863,59.9562)"
           id="g68"><path
             id="path70"
             style="fill:#f4a583;fill-opacity:1;fill-rule:nonzero;stroke:none"
             d="m 0,0 h -0.967 l 0.483,2.043 z" /></g><g
           transform="translate(17.5426,63.6667)"
           id="g72"><path
             id="path74"
             style="fill:#422918;fill-opacity:1;fill-rule:nonzero;stroke:none"
             d="M 0,0 V 0 C -1.156,-0.013 -2.706,0.236 -3.752,0.728 L -5.793,1.687 -6.684,0.242 c -1.14,4.633 0.668,3.045 0.668,3.045 C -2.622,5.41 1.676,3.813 0.055,0 Z" /></g><g
           id="g76"><g
             id="g78" /><g
             id="g90"><g
               style="opacity:0.72000098"
               id="g88"
               clip-path="url(#clipPath82)"><g
                 id="g86"
                 transform="translate(11.0913,55.5104)"><path
                   id="path84"
                   style="fill:#dab29b;fill-opacity:1;fill-rule:nonzero;stroke:none"
                   d="M 0,0 0.26,0.14 C 0.952,0.512 1.312,1.298 1.142,2.065 L 1.086,2.32 2.929,1.5 4.772,2.281 1.842,-1.236 C 1.008,-0.941 0,0 0,0" /></g></g></g></g><g
           transform="translate(34.4891,38.6205)"
           id="g92"><path
             id="path94"
             style="fill:#fbddca;fill-opacity:1;fill-rule:nonzero;stroke:none"
             d="M 0,0 -6.877,2.894 -7.24,0.342 0.764,-2.641 C 1.268,-2.174 0,0 0,0" /></g><g
           transform="translate(5.8021,36.6042)"
           id="g96"><path
             id="path98"
             style="fill:#f5f5f5;fill-opacity:1;fill-rule:nonzero;stroke:none"
             d="m 0,0 -0.919,4.406 2.35,6.032 v 7.791 L -0.594,17.187 -4.517,4.861 -2.79,-1.212 Z" /></g><g
           transform="translate(29.6299,40.8512)"
           id="g100"><path
             id="path102"
             style="fill:#f5f5f5;fill-opacity:1;fill-rule:nonzero;stroke:none"
             d="m 0,0 -3.875,2.289 -5.234,11.106 -3.399,-0.057 -0.594,-2.198 6.466,-11.204 5.652,-2.814 z" /></g><g
           transform="translate(34.5109,59.1105)"
           id="g104"><path
             id="path106"
             style="fill:#f4a583;fill-opacity:1;fill-rule:nonzero;stroke:none"
             d="M 0,0 C 0.493,0.002 0.895,0.107 0.897,-0.434 0.9,-0.974 0.502,-1.954 0.009,-1.957 Z" /></g><g
           transform="translate(28.9642,59.1123)"
           id="g108"><path
             id="path110"
             style="fill:#f4a583;fill-opacity:1;fill-rule:nonzero;stroke:none"
             d="m 0,0 c -0.49,-0.002 -0.891,0.098 -0.888,-0.442 0.002,-0.541 0.407,-1.517 0.897,-1.515 z" /></g><g
           transform="translate(34.5109,52.6621)"
           id="g112"><path
             id="path114"
             style="fill:#fbddca;fill-opacity:1;fill-rule:nonzero;stroke:none"
             d="m 0,0 1.089,-0.251 0.337,-2.842 -7.881,1.374 -0.541,1.199 1.579,0.401 c 1.264,0.332 1.761,1.409 1.368,2.283 l -0.007,0.015 c 0,0 0.008,0.014 0.007,0.016 -0.841,0.849 -1.886,2.292 -1.886,3.93 0,3.629 1.408,4.731 3.146,4.731 1.738,0 3.147,-0.865 3.147,-4.731 C 0.358,4.491 -0.67,3.051 -1.507,2.201 -1.727,1.253 -1.466,0 0,0" /></g><g
           transform="translate(39.3247,2.0259)"
           id="g116"><path
             id="path118"
             style="fill:#fbddca;fill-opacity:1;fill-rule:nonzero;stroke:none"
             d="M 0,0 -0.611,3.098 -1.592,29.703 -13.885,31.104 -12.346,0 c 0,0 2.025,-0.891 2.025,-0.29 0,3.989 2.097,24.763 2.097,24.763 l 2.405,-1.082 c 0,0 1.626,-15.188 3.63,-23.77 C -2.063,-0.92 0,0 0,0" /></g><g
           transform="translate(41.5505,0.6185)"
           id="g120"><path
             id="path122"
             style="fill:#f5f5f5;fill-opacity:1;fill-rule:nonzero;stroke:none"
             d="M 0,0 -1.752,1.66 -2.11,1.978 -2.832,1.333 C -3.092,1.1 -3.463,1.038 -3.786,1.173 L -4.584,1.507 -4.639,-0.619 H 0 Z" /></g><g
           transform="translate(22.5934,0.6185)"
           id="g124"><path
             id="path126"
             style="fill:#f5f5f5;fill-opacity:1;fill-rule:nonzero;stroke:none"
             d="M 0,0 3.886,1.66 4.242,1.978 4.96,1.333 C 5.219,1.1 5.588,1.038 5.908,1.173 L 6.702,1.507 6.756,-0.619 H 0 Z" /></g><g
           transform="translate(36.2016,34.5354)"
           id="g128"><path
             id="path130"
             style="fill:#fbddca;fill-opacity:1;fill-rule:nonzero;stroke:none"
             d="M 0,0 2.368,6.671 0.24,14.631 H 2.99 L 4.849,6.979 1.365,-2.223 C 0.714,-2.278 0,0 0,0" /></g><g
           transform="translate(26.3003,51.8333)"
           id="g132"><path
             id="path134"
             style="fill:#98bcc6;fill-opacity:1;fill-rule:nonzero;stroke:none"
             d="m 0,0 1.954,0.497 0.821,-0.765 c 1.567,-1.458 4.022,-1.356 5.462,0.227 L 8.886,0.673 10.995,0.186 10.059,-5.692 C 9.952,-6.368 9.682,-7.007 9.273,-7.556 L 9.108,-7.778 c 1.615,-2.855 3.547,-10.62 4.188,-13.838 L 15.25,-33.14 C 9.636,-35.5 3.33,-32.417 -2.666,-33.505 l 0.995,9.895 c 0.289,3.904 1.713,12.312 3.426,15.832 v 0 c -0.678,0.685 -1.103,1.58 -1.203,2.538 z" /></g><g
           transform="translate(31.0029,56.8798)"
           id="g136"><path
             id="path138"
             style="fill:#f4a583;fill-opacity:1;fill-rule:nonzero;stroke:none"
             d="M 0,0 H 0.918 L 0.459,1.938 Z" /></g><g
           id="g140"><g
             id="g142" /><g
             id="g154"><g
               style="opacity:0.72000098"
               id="g152"
               clip-path="url(#clipPath146)"><g
                 id="g150"
                 transform="translate(28.2545,52.3301)"><path
                   id="path148"
                   style="fill:#dab29b;fill-opacity:1;fill-rule:nonzero;stroke:none"
                   d="M 0,0 C 0,0 2.336,0.177 2.336,1.945 L 2.215,2.533 2.823,2.161 C 3.233,1.911 3.747,1.906 4.161,2.148 L 4.756,2.496 2.062,-1.505 C 1.069,-1.184 0,0 0,0" /></g></g></g></g><g
           transform="translate(35.9368,47.1667)"
           id="g156"><path
             id="path158"
             style="fill:#98bcc6;fill-opacity:1;fill-rule:nonzero;stroke:none"
             d="M 0,0 1.359,4.853 4.049,0.738 Z" /></g><g
           transform="translate(23.2537,49.3331)"
           id="g160"><path
             id="path162"
             style="fill:#98bcc6;fill-opacity:1;fill-rule:nonzero;stroke:none"
             d="M 0,0 3.047,2.5 4.621,0.542 v -2.708 z" /></g><path
           id="path164"
           style="fill:#f4a583;fill-opacity:1;fill-rule:nonzero;stroke:none"
           d="M 41.55,0.619 H 36.911 V 0 h 4.639 z" /><path
           id="path166"
           style="fill:#f4a583;fill-opacity:1;fill-rule:nonzero;stroke:none"
           d="M 29.37,0.619 H 22.574 V 0 h 6.796 z" /><g
           transform="translate(35.1287,59.0189)"
           id="g168"><path
             id="path170"
             style="fill:#422918;fill-opacity:1;fill-rule:nonzero;stroke:none"
             d="m 0,0 c -2.042,0 -4.632,1.959 -6.622,1.959 l 0.739,1.885 1.953,0.871 c 0.379,0.169 0.813,0.167 1.19,-0.007 L -0.618,3.731 C -0.618,3.731 0.844,0 0,0" /></g><path
           id="path172"
           style="fill:#1d1d1b;fill-opacity:1;fill-rule:nonzero;stroke:none"
           d="m 35.408,43.956 h -7.353 v 0.2 h 7.353 z" /></g></g></g></svg>