<svg width="240" height="64" viewBox="0 0 240 64" fill="none" xmlns="http://www.w3.org/2000/svg">
<path d="M76.8335 43.2155C75.5254 45.6163 74.1484 47.9486 72.8403 50.2809C71.5322 52.6131 70.1553 54.9454 68.8472 57.2777C68.503 57.895 68.0899 58.4438 67.7456 58.8554C67.4014 59.267 66.9883 59.6099 66.6441 59.8157C66.2998 60.0215 65.8868 60.2273 65.5425 60.2959C65.1983 60.3645 64.7852 60.4331 64.3721 60.4331H63.4771L63.8213 58.9926H64.3721C64.8541 58.9926 65.2671 58.8554 65.8179 58.6496C66.2999 58.3752 66.7129 57.895 67.1949 57.2091L67.6768 56.3859C67.2637 54.1908 66.8506 51.9958 66.4375 49.8007C66.0245 47.6056 65.6802 45.4106 65.2671 43.2155H66.9883L68.916 54.3966H68.9849L75.25 43.1469H76.8335V43.2155ZM77.3842 60.2959H75.7319L79.0366 43.2841H84.8886C85.577 43.2841 86.1967 43.3527 86.7474 43.5585C87.2982 43.6957 87.7802 43.97 88.1932 44.313C88.6063 44.656 88.9505 45.0676 89.1571 45.6163C89.3636 46.1651 89.5013 46.7825 89.5013 47.4684C89.5013 48.3602 89.3636 49.1147 89.0194 49.8007C88.6752 50.4867 88.2621 51.104 87.7113 51.6528C87.1605 52.2016 86.5409 52.5445 85.7836 52.8189C85.0263 53.0933 84.2689 53.2305 83.4428 53.2305H78.6923L77.3842 60.2959ZM87.9178 47.6742C87.9178 46.7139 87.6424 45.9593 87.0228 45.4792C86.4032 44.999 85.6459 44.7932 84.7509 44.7932H80.4823L79.1054 51.6528H83.6493C84.2689 51.6528 84.8197 51.5842 85.3016 51.3784C85.7836 51.1726 86.2655 50.8982 86.6786 50.5553C87.0228 50.2123 87.3671 49.8007 87.5736 49.2519C87.7801 48.7718 87.9178 48.223 87.9178 47.6742ZM98.7268 60.2959C98.658 59.6099 98.5203 58.924 98.4515 58.3066C98.3826 57.6892 98.2449 57.0033 98.1072 56.3173H90.6029L88.3998 60.3645H86.7474C88.3309 57.552 89.8456 54.671 91.429 51.8586C93.0125 49.0462 94.5272 46.2337 96.1795 43.3527H97.6941L100.517 60.3645H98.7268V60.2959ZM96.5237 45.2048C96.4549 45.4106 96.3172 45.6849 96.0418 46.1651C95.7664 46.6453 95.491 47.1941 95.1468 47.88C94.8026 48.4974 94.3895 49.2519 94.0452 49.9379C93.6322 50.6925 93.2879 51.3784 92.9437 52.0644C92.5994 52.6817 92.3241 53.2991 92.0487 53.7793C91.7733 54.2594 91.5667 54.6024 91.4979 54.8082H98.0384C97.9695 54.4652 97.9007 54.0537 97.8318 53.5049C97.763 52.9561 97.6941 52.4073 97.5564 51.79C97.4876 51.1726 97.3499 50.5553 97.2811 49.9379C97.2122 49.3205 97.0745 48.6346 97.0057 48.0858C96.9368 47.4684 96.7991 46.9197 96.7303 46.4395C96.6614 45.9593 96.5926 45.5477 96.5237 45.2048ZM117.384 43.2841L114.08 60.2959H112.427L115.457 44.7246H109.467C106.988 54.5338 106.025 56.7975 104.854 58.3752C104.235 59.267 103.271 59.8843 101.412 60.5017L100.999 59.1298C101.55 58.924 102.238 58.6496 102.651 58.3752C105.061 56.7975 107.47 46.7139 108.09 43.2155H117.384V43.2841ZM118.211 58.4438C121.584 56.4545 123.787 46.9883 124.613 43.2841H134.252L131.292 58.4438H132.806L131.773 64.0001H129.708L130.397 60.3645H118.624L117.935 64.0001H115.87L116.902 58.4438H118.211ZM125.921 45.1362C125.164 48.4288 123.168 55.8371 120.758 58.4438H129.364L131.98 45.1362H125.921ZM143.064 43.1469C143.891 43.1469 144.579 43.2841 145.267 43.4899C145.956 43.6957 146.507 44.1072 146.989 44.5188C147.471 44.999 147.884 45.4792 148.09 46.0965C148.366 46.7139 148.503 47.3998 148.503 48.0858C148.503 48.4288 148.434 48.909 148.366 49.3891C148.297 49.8693 148.228 50.4181 148.09 50.8982C148.021 51.447 147.884 51.9272 147.746 52.4759C147.608 53.0247 147.539 53.5049 147.402 54.0537C147.195 55.014 146.92 55.8371 146.507 56.5917C146.162 57.3463 145.612 58.0322 145.061 58.581C144.51 59.1298 143.822 59.5413 143.064 59.8843C142.307 60.2273 141.412 60.3645 140.448 60.3645C139.484 60.3645 138.658 60.2273 137.97 60.0215C137.281 59.7471 136.73 59.4041 136.317 58.924C135.904 58.4438 135.56 57.895 135.422 57.3463C135.216 56.7289 135.147 56.0429 135.147 55.357C135.147 54.9454 135.216 54.5338 135.285 53.9851C135.354 53.4363 135.422 52.9561 135.56 52.4073C135.698 51.8586 135.767 51.3098 135.904 50.761C136.042 50.2123 136.18 49.7321 136.249 49.2519C136.455 48.3602 136.73 47.6056 137.006 46.8511C137.35 46.0965 137.763 45.4792 138.314 44.8618C138.865 44.313 139.484 43.9014 140.242 43.5585C141.068 43.2841 142.032 43.1469 143.064 43.1469ZM142.858 45.0676C142.101 45.0676 141.412 45.2048 140.93 45.4792C140.379 45.7535 139.966 46.0965 139.622 46.5081C139.278 46.9197 138.934 47.3998 138.727 47.9486C138.52 48.4974 138.383 48.9775 138.245 49.5263L137.35 54.0537C137.212 54.671 137.212 55.2198 137.212 55.7686C137.281 56.3173 137.419 56.7975 137.625 57.2091C137.901 57.6206 138.245 57.9636 138.727 58.238C139.209 58.5124 139.829 58.581 140.655 58.581C141.343 58.581 141.894 58.4438 142.445 58.238C142.927 58.0322 143.409 57.6892 143.753 57.2777C144.166 56.8661 144.441 56.3859 144.717 55.8371C144.992 55.2884 145.199 54.671 145.336 54.0537C145.405 53.5735 145.543 53.1619 145.681 52.6817C145.818 52.2016 145.887 51.7214 146.025 51.2412C146.094 50.761 146.231 50.2809 146.231 49.8007C146.3 49.3205 146.3 48.909 146.3 48.566C146.3 47.537 146.025 46.7139 145.405 46.0965C144.923 45.4106 144.028 45.0676 142.858 45.0676ZM161.584 60.2959L163.994 48.223L158.073 57.7578H156.421L153.736 48.223H153.667L151.326 60.2959H149.192L152.496 43.2841H154.631L157.729 55.1512H157.798L165.027 43.2841H167.161L163.787 60.2959H161.584ZM179.278 56.7975C178.589 57.9636 177.694 58.924 176.593 59.4727C175.423 60.0901 174.183 60.3645 172.806 60.3645C171.911 60.3645 171.154 60.2273 170.534 59.9529C169.915 59.6785 169.364 59.3355 168.882 58.8554C168.469 58.3752 168.125 57.895 167.918 57.2777C167.712 56.6603 167.574 55.9743 167.574 55.2884C167.574 54.8082 167.643 54.328 167.712 53.8479L168.607 49.1833C168.813 48.3602 169.02 47.537 169.364 46.8511C169.708 46.0965 170.121 45.4792 170.672 44.8618C171.223 44.313 171.842 43.9014 172.669 43.5585C173.426 43.2155 174.321 43.0783 175.285 43.0783C176.662 43.0783 177.832 43.4213 178.727 44.1072C179.622 44.7246 180.311 45.6164 180.655 46.7139L178.589 47.6056C178.521 47.2626 178.383 46.9883 178.176 46.6453C177.97 46.3023 177.763 46.0965 177.488 45.8221C177.213 45.6163 176.868 45.4106 176.524 45.2734C176.18 45.1362 175.767 45.0676 175.285 45.0676C174.596 45.0676 173.977 45.2048 173.426 45.4792C172.875 45.7535 172.462 46.0965 172.118 46.5081C171.774 46.9197 171.429 47.3998 171.223 47.9486C171.016 48.4974 170.879 48.9775 170.741 49.5263L169.846 53.9165C169.777 54.1223 169.777 54.2594 169.777 54.4652C169.777 54.671 169.777 54.8082 169.777 55.014C169.777 55.4942 169.846 55.9057 169.915 56.3173C169.984 56.7289 170.121 57.0719 170.397 57.3463C170.672 57.6892 170.947 57.895 171.361 58.1008C171.774 58.3066 172.324 58.3752 172.944 58.3752C173.839 58.3752 174.665 58.1694 175.423 57.6892C176.18 57.2091 176.799 56.5917 177.213 55.8371L179.278 56.7975ZM188.779 45.1362L185.818 60.2959H183.684L186.645 45.1362H181.894L182.238 43.2841H193.874L193.529 45.1362H188.779ZM195.113 60.2959H192.979L196.283 43.2841H202.273C202.961 43.2841 203.581 43.3527 204.132 43.5585C204.751 43.7643 205.233 44.0386 205.646 44.3816C206.06 44.7246 206.404 45.2048 206.61 45.7535C206.817 46.3023 206.955 46.9197 206.955 47.6056C206.955 48.4974 206.748 49.2519 206.473 50.0065C206.197 50.761 205.715 51.3098 205.096 51.8586C204.545 52.3388 203.856 52.7503 203.099 53.0247C202.342 53.2991 201.584 53.4363 200.689 53.4363H196.352L195.113 60.2959ZM204.82 47.88C204.82 46.9883 204.545 46.3709 204.063 45.8907C203.512 45.4792 202.824 45.2734 201.998 45.2734H198.073L196.903 51.5156H201.034C201.584 51.5156 202.066 51.447 202.479 51.2412C202.961 51.0354 203.374 50.8296 203.719 50.4867C204.063 50.1437 204.338 49.8007 204.545 49.3205C204.751 48.8404 204.82 48.3602 204.82 47.88ZM215.492 43.1469C216.249 43.1469 217.006 43.2841 217.695 43.4899C218.383 43.6957 218.934 44.1072 219.416 44.5188C219.898 44.999 220.242 45.4792 220.517 46.0965C220.793 46.7139 220.93 47.3998 220.93 48.0858C220.93 48.4288 220.862 48.909 220.793 49.3891C220.724 49.8693 220.655 50.4181 220.517 50.8982C220.449 51.447 220.311 51.9272 220.173 52.4759C220.035 53.0247 219.967 53.5049 219.829 54.0537C219.622 55.014 219.347 55.8371 218.934 56.5917C218.521 57.3463 218.039 58.0322 217.488 58.581C216.937 59.1298 216.249 59.5413 215.492 59.8843C214.734 60.2273 213.839 60.3645 212.875 60.3645C211.912 60.3645 211.085 60.2273 210.397 60.0215C209.708 59.7471 209.158 59.4041 208.745 58.924C208.331 58.4438 207.987 57.895 207.85 57.3463C207.643 56.7289 207.574 56.0429 207.574 55.357C207.574 54.9454 207.643 54.5338 207.643 53.9851C207.712 53.4363 207.85 52.9561 207.918 52.4073C207.987 51.8586 208.125 51.3098 208.263 50.761C208.4 50.2123 208.469 49.7321 208.607 49.2519C208.813 48.3602 209.089 47.6056 209.364 46.8511C209.708 46.0965 210.121 45.4106 210.672 44.8618C211.223 44.313 211.843 43.9014 212.6 43.5585C213.495 43.2841 214.39 43.1469 215.492 43.1469ZM215.354 45.0676C214.597 45.0676 213.908 45.2048 213.426 45.4792C212.875 45.7535 212.462 46.0965 212.049 46.5081C211.705 46.9197 211.43 47.3998 211.223 47.9486C211.016 48.4974 210.879 48.9775 210.741 49.5263L209.846 54.0537C209.708 54.671 209.708 55.2198 209.708 55.7686C209.708 56.3173 209.846 56.7975 210.121 57.2091C210.328 57.6206 210.741 57.9636 211.223 58.238C211.705 58.5124 212.325 58.581 213.151 58.581C213.77 58.581 214.39 58.4438 214.872 58.238C215.354 58.0322 215.836 57.6892 216.249 57.2777C216.593 56.8661 216.937 56.3859 217.213 55.8371C217.488 55.2884 217.695 54.671 217.832 54.0537C217.901 53.5735 218.039 53.1619 218.177 52.6817C218.314 52.2016 218.383 51.7214 218.521 51.2412C218.59 50.761 218.727 50.2809 218.727 49.8007C218.796 49.3205 218.796 48.909 218.796 48.566C218.796 47.537 218.521 46.7139 217.901 46.0965C217.35 45.4106 216.455 45.0676 215.354 45.0676ZM229.949 39.0311C229.881 39.4427 229.949 39.7857 230.156 40.1287C230.363 40.4031 230.776 40.6088 231.326 40.6088C231.671 40.6088 231.946 40.5402 232.221 40.4716C232.428 40.4031 232.703 40.2659 232.841 40.0601C232.979 39.9229 233.116 39.7171 233.254 39.5799C233.392 39.4427 233.392 39.2369 233.461 39.0997H235.32C235.251 39.4427 235.113 39.8543 234.975 40.1973C234.769 40.5402 234.493 40.8832 234.218 41.2262C233.874 41.5692 233.461 41.775 232.979 41.9808C232.497 42.1865 231.946 42.2551 231.258 42.2551C230.638 42.2551 230.087 42.1866 229.674 41.9122C229.261 41.7064 228.986 41.432 228.71 41.1576C228.504 40.8832 228.366 40.5402 228.297 40.1287C228.228 39.7857 228.228 39.3741 228.297 39.0997H229.949V39.0311ZM233.943 60.2959H231.808L234.356 47.3312H234.287L231.326 50.9668L223.409 60.2959H221.344L224.717 43.2841H226.782L224.235 56.3173L224.304 56.3859L227.678 52.3388L235.32 43.3527H237.178L233.943 60.2959Z" fill="#979695"/>
<path fill-rule="evenodd" clip-rule="evenodd" d="M96.0415 24.3516L94.5957 32.1029H95.6284L98.5888 28.2615C99.2773 27.3698 99.8969 26.478 100.448 25.6549H100.517C100.31 26.6152 100.103 27.4384 99.8969 28.5359L99.2085 32.1029H100.103L101.618 24.3516H100.585L97.4873 28.3987C96.7988 29.2905 96.248 30.1136 95.6973 30.9368C95.9726 29.9764 96.1103 29.0161 96.3169 27.85L97.0054 24.3516H96.0415V24.3516ZM105.818 31.2112C105.542 31.3484 105.06 31.5541 104.51 31.5541C103.615 31.5541 103.133 30.9368 103.133 30.045C103.133 28.7417 104.028 27.3012 105.474 27.3012C105.887 27.3012 106.231 27.3698 106.437 27.507L106.713 26.7524C106.506 26.6838 106.093 26.478 105.542 26.478C103.546 26.478 102.1 28.2615 102.1 30.1136C102.1 31.2798 102.789 32.2401 104.234 32.2401C104.992 32.2401 105.542 32.0343 105.887 31.8971L105.818 31.2112ZM108.296 26.5466L107.195 32.1029H108.159L108.641 29.5649H108.847C109.536 29.5649 109.88 29.8392 110.155 30.731C110.362 31.2112 110.499 31.7599 110.637 32.1029H111.601C111.394 31.7599 111.326 31.2112 111.119 30.6624C110.844 29.7706 110.499 29.2219 109.88 29.0847L112.634 26.5466H111.463L109.054 29.0161H108.847L109.329 26.5466H108.296ZM113.047 26.5466L114.148 31.8285C114.148 31.8971 114.148 31.9657 114.079 32.1029C113.804 32.6517 113.391 33.1318 112.978 33.4062C112.565 33.6806 112.221 33.8864 111.945 33.955L112.152 34.7782C112.496 34.7096 113.184 34.4352 113.804 33.8178C114.561 33.0633 115.112 32.1029 115.732 30.8682L117.866 26.6152H116.833L115.388 29.7021C115.112 30.3194 114.906 30.731 114.768 31.074C114.699 30.6624 114.63 30.2508 114.493 29.6335L113.942 26.6152H113.047V26.5466ZM121.79 31.2112C121.515 31.3484 121.033 31.5541 120.482 31.5541C119.587 31.5541 119.105 30.9368 119.105 30.045C119.105 28.7417 120 27.3012 121.515 27.3012C121.928 27.3012 122.272 27.3698 122.479 27.507L122.754 26.7524C122.548 26.6838 122.135 26.478 121.584 26.478C119.587 26.478 118.141 28.2615 118.141 30.1136C118.141 31.2798 118.83 32.2401 120.276 32.2401C121.033 32.2401 121.584 32.0343 121.859 31.8971L121.79 31.2112ZM126.885 31.2112C126.61 31.3484 126.128 31.5541 125.577 31.5541C124.682 31.5541 124.2 30.9368 124.2 30.045C124.2 28.7417 125.095 27.3012 126.541 27.3012C126.954 27.3012 127.298 27.3698 127.505 27.507L127.78 26.7524C127.573 26.6838 127.16 26.478 126.61 26.478C124.613 26.478 123.167 28.2615 123.167 30.1136C123.167 31.2798 123.856 32.2401 125.302 32.2401C126.059 32.2401 126.61 32.0343 126.954 31.8971L126.885 31.2112ZM129.157 32.1715L129.639 29.3591C129.845 28.1929 130.74 27.2326 131.429 27.2326C132.117 27.2326 132.255 27.7128 132.255 28.1929C132.255 28.3987 132.255 28.6731 132.186 28.8789L131.567 32.1715H132.53L133.081 29.2905C133.288 28.0557 134.114 27.2326 134.802 27.2326C135.422 27.2326 135.629 27.6442 135.629 28.1929C135.629 28.3987 135.629 28.6731 135.56 28.9475L134.94 32.1715H135.835L136.455 28.8789C136.524 28.5359 136.524 28.1929 136.524 27.9186C136.524 26.8896 135.835 26.478 135.147 26.478C134.32 26.478 133.563 26.8896 133.081 27.7128C133.012 27.0268 132.599 26.478 131.773 26.478C131.016 26.478 130.327 26.8896 129.777 27.6442H129.708L129.845 26.6152H129.019C128.95 27.0954 128.882 27.6442 128.744 28.2615L127.987 32.2401H129.157V32.1715ZM140.999 26.478C140.379 26.478 139.897 26.6838 139.484 26.9582C138.451 27.7128 138.038 29.6335 138.038 30.6624C138.038 31.8285 138.796 32.2401 139.897 32.2401C141.068 32.2401 142.444 31.6913 142.444 30.388C142.444 29.6335 141.825 29.2219 141.274 29.1533V29.0847C141.825 28.8789 142.582 28.4673 142.582 27.7128C142.582 26.8896 141.894 26.478 140.999 26.478ZM140.861 27.164C141.274 27.164 141.618 27.3698 141.618 27.85C141.618 28.1929 141.343 28.4673 140.999 28.6045C140.517 28.8789 139.759 28.9475 139.14 29.0847C139.415 28.1929 139.828 27.164 140.861 27.164ZM140.241 29.5649C140.861 29.5649 141.412 29.8392 141.412 30.4566C141.412 31.2112 140.723 31.5541 139.966 31.5541C139.277 31.5541 138.933 31.2112 138.933 30.5938C138.933 30.3194 139.002 29.9764 139.002 29.7706C139.346 29.6335 139.759 29.5649 140.241 29.5649ZM146.782 26.478C144.992 26.478 143.684 28.1929 143.684 29.9764C143.684 31.2798 144.441 32.3087 145.887 32.3087C147.746 32.3087 148.985 30.5252 148.985 28.8103C148.916 27.5756 148.296 26.478 146.782 26.478ZM146.644 27.2326C147.677 27.2326 147.952 28.1243 147.952 28.8103C147.952 30.1136 147.126 31.5541 145.956 31.5541C145.129 31.5541 144.648 30.8682 144.648 29.9764C144.648 28.6731 145.474 27.2326 146.644 27.2326ZM155.525 31.2112C155.25 31.3484 154.768 31.5541 154.217 31.5541C153.322 31.5541 152.84 30.9368 152.84 30.045C152.84 28.7417 153.735 27.3012 155.181 27.3012C155.594 27.3012 155.938 27.3698 156.145 27.507L156.42 26.7524C156.214 26.6838 155.801 26.478 155.25 26.478C153.253 26.478 151.808 28.2615 151.808 30.1136C151.808 31.2798 152.496 32.2401 153.942 32.2401C154.699 32.2401 155.25 32.0343 155.525 31.8971V31.2112ZM157.797 32.1715L158.279 29.3591C158.486 28.1929 159.381 27.2326 160.069 27.2326C160.758 27.2326 160.895 27.7128 160.895 28.1929C160.895 28.3987 160.895 28.6731 160.827 28.8789L160.207 32.1715H161.102L161.653 29.2905C161.859 28.0557 162.685 27.2326 163.374 27.2326C163.994 27.2326 164.2 27.6442 164.2 28.1929C164.2 28.3987 164.2 28.6731 164.131 28.9475L163.512 32.1715H164.407L165.026 28.8789C165.095 28.5359 165.095 28.1929 165.095 27.9186C165.095 26.8896 164.407 26.478 163.718 26.478C162.892 26.478 162.135 26.8896 161.653 27.7128C161.584 27.0268 161.171 26.478 160.345 26.478C159.587 26.478 158.899 26.8896 158.348 27.6442L158.486 26.6152H157.66C157.591 27.0954 157.522 27.6442 157.384 28.2615L156.627 32.2401H157.797V32.1715ZM166.954 34.4352L167.436 32.0343C167.643 32.1715 168.056 32.3087 168.675 32.3087C170.534 32.3087 171.98 30.4566 171.98 28.4673C171.98 27.4384 171.498 26.478 170.259 26.478C169.501 26.478 168.744 26.9582 168.262 27.6442L168.4 26.6152H167.505C167.436 27.164 167.298 27.9186 167.161 28.6045L166.059 34.5038H166.954V34.4352ZM167.849 29.7021C168.124 28.1243 169.088 27.3012 169.846 27.3012C170.672 27.3012 170.947 27.9871 170.947 28.6045C170.947 30.045 169.914 31.6227 168.675 31.6227C168.193 31.6227 167.849 31.5541 167.642 31.3484L167.849 29.7021ZM175.973 26.478C174.183 26.478 172.875 28.1929 172.875 29.9764C172.875 31.2798 173.632 32.3087 175.078 32.3087C176.937 32.3087 178.176 30.5252 178.176 28.8103C178.176 27.5756 177.488 26.478 175.973 26.478ZM175.904 27.2326C176.937 27.2326 177.212 28.1243 177.212 28.8103C177.212 30.1136 176.386 31.5541 175.216 31.5541C174.39 31.5541 173.908 30.8682 173.908 29.9764C173.839 28.6731 174.665 27.2326 175.904 27.2326ZM183.615 26.5466L183.064 29.4277C182.858 30.6624 181.963 31.4855 181.205 31.4855C180.586 31.4855 180.31 31.074 180.31 30.5252C180.31 30.3194 180.379 30.045 180.448 29.7021L181.068 26.6152H180.104L179.484 29.7706C179.415 30.1136 179.415 30.4566 179.415 30.6624C179.415 31.9657 180.173 32.3087 180.861 32.3087C181.618 32.3087 182.307 31.8285 182.858 31.1426L182.72 32.1715H183.615C183.684 31.6913 183.753 31.1426 183.89 30.5252L184.648 26.5466H183.615V26.5466ZM186.369 32.1715L186.851 29.3591C187.057 28.1929 187.952 27.2326 188.641 27.2326C189.329 27.2326 189.467 27.7128 189.467 28.1929C189.467 28.3987 189.467 28.6731 189.398 28.8789L188.779 32.1715H189.674L190.224 29.2905C190.431 28.0557 191.257 27.2326 191.946 27.2326C192.565 27.2326 192.772 27.6442 192.772 28.1929C192.772 28.3987 192.703 28.6731 192.703 28.9475L192.083 32.1715H193.047L193.667 28.8789C193.736 28.5359 193.736 28.1929 193.736 27.9186C193.736 26.8896 193.047 26.478 192.359 26.478C191.532 26.478 190.775 26.8896 190.293 27.7128C190.224 27.0268 189.811 26.478 188.985 26.478C188.228 26.478 187.539 26.8896 186.989 27.6442H186.92L187.057 26.6152H186.231C186.162 27.0954 186.094 27.6442 185.956 28.2615L185.199 32.2401H186.369V32.1715ZM196.076 26.5466L195.319 29.9764C195.25 30.2508 195.181 30.731 195.181 31.0054C195.181 31.9657 195.939 32.2401 196.765 32.2401C198.417 32.2401 199.519 31.2112 199.519 29.9078C199.519 28.9475 198.899 28.4673 198.004 28.4673C197.384 28.4673 196.765 28.8103 196.352 29.2219L196.971 26.6838H196.076V26.5466ZM196.971 31.5541C196.489 31.5541 196.145 31.2798 196.145 30.8682C196.145 30.6624 196.214 30.4566 196.283 30.2508C196.489 29.7706 197.04 29.1533 197.729 29.1533C198.348 29.1533 198.624 29.5649 198.624 30.045C198.624 30.9368 197.798 31.5541 196.971 31.5541ZM203.512 26.5466L202.479 32.1029H203.443L203.925 29.5649H206.472L205.99 32.1029H206.954L207.987 26.5466H207.023L206.61 28.8103H204.063L204.476 26.5466H203.512ZM213.426 32.1715C213.426 31.5541 213.495 30.5938 213.701 29.5649L214.252 26.6838C213.839 26.5466 213.288 26.478 212.737 26.478C210.328 26.478 208.882 28.5359 208.882 30.4566C208.882 31.5541 209.502 32.3087 210.465 32.3087C211.292 32.3087 212.049 31.8971 212.669 30.731C212.6 31.2798 212.531 31.8285 212.531 32.1715H213.426ZM212.875 29.0161C212.6 30.5252 211.636 31.5541 210.878 31.5541C210.121 31.5541 209.915 30.9368 209.915 30.3194C209.915 28.7417 211.085 27.2326 212.6 27.2326C212.944 27.2326 213.15 27.3012 213.288 27.3012L212.875 29.0161ZM220.173 26.478C219.553 26.478 219.071 26.6838 218.658 26.9582C217.626 27.7128 217.212 29.6335 217.212 30.6624C217.212 31.8285 217.97 32.2401 219.071 32.2401C220.242 32.2401 221.619 31.6913 221.619 30.388C221.619 29.6335 220.999 29.2219 220.448 29.1533V29.0847C221.068 28.8789 221.756 28.4673 221.756 27.7128C221.756 26.8896 221.068 26.478 220.173 26.478ZM220.035 27.164C220.517 27.164 220.792 27.3698 220.792 27.85C220.792 28.1929 220.517 28.4673 220.242 28.6045C219.76 28.8789 219.002 28.9475 218.383 29.0847C218.589 28.1929 219.002 27.164 220.035 27.164ZM219.416 29.5649C220.035 29.5649 220.586 29.8392 220.586 30.4566C220.586 31.2112 219.897 31.5541 219.14 31.5541C218.452 31.5541 218.107 31.2112 218.107 30.5938C218.107 30.3194 218.176 29.9764 218.176 29.7706C218.521 29.6335 218.934 29.5649 219.416 29.5649ZM226.644 31.1426C226.3 31.3484 225.818 31.5541 225.13 31.5541C224.51 31.5541 224.097 31.2798 223.891 30.7996C223.753 30.5252 223.753 29.9764 223.753 29.7706C225.818 29.8392 227.471 29.4277 227.471 27.9186C227.471 27.0954 226.92 26.478 225.818 26.478C224.028 26.478 222.789 28.3987 222.789 30.045C222.789 31.2798 223.409 32.3087 224.923 32.3087C225.681 32.3087 226.369 32.1029 226.782 31.8971L226.644 31.1426ZM226.576 27.9186C226.576 28.8103 225.405 29.0161 223.891 28.9475C224.097 28.0557 224.786 27.164 225.749 27.164C226.231 27.2326 226.576 27.4384 226.576 27.9186ZM229.33 26.5466L228.297 32.1029H229.192L229.674 29.5649H229.811C230.5 29.5649 230.844 29.8392 231.188 30.731C231.395 31.2112 231.533 31.7599 231.67 32.1029H232.634C232.428 31.7599 232.359 31.2112 232.152 30.6624C231.877 29.7706 231.533 29.2219 230.913 29.0847L233.667 26.5466H232.496L230.087 29.0161H229.88L230.362 26.5466H229.33ZM238.348 32.1715C238.348 31.5541 238.417 30.5938 238.555 29.5649L239.106 26.6838C238.762 26.5466 238.142 26.478 237.591 26.478C235.182 26.478 233.736 28.5359 233.736 30.4566C233.736 31.5541 234.355 32.3087 235.319 32.3087C236.145 32.3087 236.903 31.8971 237.522 30.731C237.453 31.2798 237.385 31.8285 237.385 32.1715H238.348ZM237.729 29.0161C237.453 30.5252 236.49 31.5541 235.732 31.5541C234.975 31.5541 234.768 30.9368 234.768 30.3194C234.768 28.7417 235.939 27.2326 237.385 27.2326C237.729 27.2326 237.935 27.3012 238.073 27.3012L237.729 29.0161Z" fill="#979695"/>
<path d="M33.9774 37.0418C32.0496 37.0418 29.7088 37.0418 27.7811 37.0418C22.6864 37.0418 19.1064 32.9947 19.6572 27.9186C20.5522 20.0986 21.3783 12.2101 22.2734 4.39014C17.5917 4.39014 12.9101 4.39014 8.29739 4.39014C7.05814 15.0911 5.88774 25.7921 4.64849 36.4931C4.02887 41.9121 5.75005 46.9196 8.91701 50.4866C12.1528 54.0536 16.8344 56.3173 22.3422 56.3173C25.578 56.3173 28.8827 56.3173 32.1185 56.3173C37.6263 56.3173 42.8586 54.0536 46.9206 50.4866C50.9826 46.851 53.943 41.9807 54.5627 36.4931C55.8019 25.7921 58.2115 4.39014 58.2115 4.39014H44.1667L40.3801 38.0708C40.0359 41.2948 38.2459 44.1072 35.9051 46.2337C33.5643 48.3602 30.4662 49.5949 27.2992 49.5949C24.6142 49.5949 21.998 49.5949 19.3818 49.5949C19.5883 48.1544 19.726 46.7139 19.8637 45.2733C22.5487 45.2733 25.1649 45.2733 27.7811 45.2733C29.7777 45.2733 31.6366 44.4502 33.0823 43.1469C34.5281 41.8435 35.6985 40.0601 35.9739 38.0708C37.4197 25.3805 38.7967 12.6903 40.2424 0.0685949C47.8845 0.0685949 55.4577 0.0685949 63.0997 0.0685949C63.0308 0.823151 62.8931 1.5777 62.8243 2.26366C61.5162 13.6506 60.277 25.1061 58.9689 36.4931C58.5558 39.8543 57.3854 43.0097 55.8019 45.8907C54.2184 48.7717 52.153 51.447 49.6745 53.5735C47.196 55.7685 44.3733 57.552 41.344 58.7868C38.3147 60.0215 35.0101 60.6388 31.6366 60.6388C28.4007 60.6388 25.0961 60.6388 21.8603 60.6388C18.4868 60.6388 15.3886 60.0215 12.5659 58.7868C9.81203 57.552 7.33353 55.8371 5.40581 53.5735C3.40924 51.3784 1.89461 48.7717 0.999595 45.8907C0.104582 43.0097 -0.239651 39.7857 0.173431 36.4931C1.55037 24.3516 2.92731 12.2101 4.23541 0C11.8774 0 19.4506 0 27.0927 0C26.0599 9.26046 25.0272 18.5895 23.9945 27.85C23.7191 30.388 25.578 32.5831 28.1942 32.5831C30.1219 32.5831 32.4627 32.5831 34.3216 32.5831C34.3216 34.1608 34.1151 35.6013 33.9774 37.0418Z" fill="#979695"/>
</svg>
