<svg width="104" height="28" viewBox="0 0 104 28" fill="none" xmlns="http://www.w3.org/2000/svg">
<path d="M33.419 18.7967C32.8501 19.841 32.2511 20.8554 31.6822 21.8699C31.1132 22.8843 30.5143 23.8987 29.9454 24.9131C29.7956 25.1817 29.616 25.4204 29.4662 25.5994C29.3165 25.7784 29.1368 25.9276 28.9871 26.0171C28.8374 26.1066 28.6577 26.1961 28.508 26.2259C28.3583 26.2558 28.1786 26.2856 27.9989 26.2856H27.6096L27.7593 25.6591H27.9989C28.2085 25.6591 28.3882 25.5994 28.6278 25.5099C28.8374 25.3905 29.0171 25.1817 29.2267 24.8833L29.4363 24.5253C29.2566 23.5705 29.0769 22.6158 28.8973 21.661C28.7176 20.7063 28.5679 19.7515 28.3882 18.7967H29.1368L29.9753 23.66H30.0052L32.7303 18.7669H33.419V18.7967ZM33.6586 26.2259H32.9399L34.3773 18.8266H36.9226C37.2221 18.8266 37.4916 18.8564 37.7311 18.9459C37.9707 19.0056 38.1803 19.1249 38.36 19.2741C38.5397 19.4233 38.6894 19.6023 38.7792 19.841C38.8691 20.0797 38.929 20.3482 38.929 20.6466C38.929 21.0345 38.8691 21.3627 38.7193 21.661C38.5696 21.9594 38.3899 22.2279 38.1504 22.4666C37.9108 22.7053 37.6413 22.8545 37.3119 22.9738C36.9825 23.0931 36.6531 23.1528 36.2938 23.1528H34.2275L33.6586 26.2259ZM38.2402 20.7361C38.2402 20.3184 38.1204 19.9902 37.8509 19.7813C37.5814 19.5725 37.252 19.483 36.8627 19.483H35.0061L34.4072 22.4666H36.3836C36.6531 22.4666 36.8927 22.4368 37.1023 22.3472C37.3119 22.2577 37.5215 22.1384 37.7012 21.9892C37.8509 21.84 38.0006 21.661 38.0905 21.4223C38.1803 21.2135 38.2402 20.9748 38.2402 20.7361ZM42.9416 26.2259C42.9117 25.9276 42.8518 25.6292 42.8218 25.3607C42.7919 25.0922 42.732 24.7938 42.6721 24.4954H39.4081L38.4498 26.2558H37.7311C38.4199 25.0325 39.0787 23.7794 39.7674 22.5561C40.4562 21.3328 41.115 20.1095 41.8336 18.8564H42.4924L43.7202 26.2558H42.9416V26.2259ZM41.9834 19.662C41.9534 19.7515 41.8935 19.8708 41.7738 20.0797C41.654 20.2886 41.5342 20.5272 41.3845 20.8256C41.2347 21.0941 41.0551 21.4223 40.9053 21.7207C40.7257 22.0489 40.5759 22.3472 40.4262 22.6456C40.2765 22.9141 40.1567 23.1827 40.0369 23.3915C39.9171 23.6004 39.8273 23.7495 39.7974 23.839H42.6422C42.6122 23.6899 42.5823 23.5109 42.5523 23.2722C42.5224 23.0335 42.4924 22.7948 42.4326 22.5263C42.4026 22.2577 42.3427 21.9892 42.3128 21.7207C42.2828 21.4522 42.2229 21.1538 42.193 20.9151C42.163 20.6466 42.1032 20.4079 42.0732 20.199C42.0433 19.9902 42.0133 19.8112 41.9834 19.662ZM51.0568 18.8266L49.6194 26.2259H48.9007L50.2183 19.4531H47.6131C46.5351 23.7197 46.1158 24.7043 45.6068 25.3905C45.3373 25.7784 44.918 26.0469 44.1095 26.3154L43.9298 25.7187C44.1694 25.6292 44.4688 25.5099 44.6485 25.3905C45.6966 24.7043 46.7447 20.3184 47.0142 18.7967H51.0568V18.8266ZM51.4162 25.4204C52.8835 24.5551 53.8417 20.4377 54.2011 18.8266H58.3934L57.1058 25.4204H57.7646L57.3154 27.8371H56.417L56.7165 26.2558H51.5958L51.2964 27.8371H50.398L50.8472 25.4204H51.4162ZM54.77 19.6322C54.4406 21.0643 53.5722 24.2866 52.5241 25.4204H56.2673L57.4052 19.6322H54.77ZM62.2264 18.7669C62.5858 18.7669 62.8852 18.8266 63.1847 18.9161C63.4841 19.0056 63.7237 19.1846 63.9333 19.3636C64.1429 19.5725 64.3226 19.7813 64.4124 20.0499C64.5322 20.3184 64.5921 20.6168 64.5921 20.9151C64.5921 21.0643 64.5622 21.2731 64.5322 21.482C64.5023 21.6909 64.4723 21.9295 64.4124 22.1384C64.3825 22.3771 64.3226 22.5859 64.2627 22.8246C64.2028 23.0633 64.1729 23.2722 64.113 23.5109C64.0231 23.9286 63.9034 24.2866 63.7237 24.6148C63.574 24.943 63.3344 25.2413 63.0948 25.48C62.8553 25.7187 62.5558 25.8977 62.2264 26.0469C61.897 26.1961 61.5077 26.2558 61.0885 26.2558C60.6693 26.2558 60.3099 26.1961 60.0105 26.1066C59.711 25.9872 59.4714 25.8381 59.2918 25.6292C59.1121 25.4204 58.9624 25.1817 58.9025 24.943C58.8126 24.6745 58.7827 24.3761 58.7827 24.0777C58.7827 23.8987 58.8126 23.7197 58.8426 23.481C58.8725 23.2423 58.9025 23.0335 58.9624 22.7948C59.0223 22.5561 59.0522 22.3174 59.1121 22.0787C59.172 21.84 59.2319 21.6312 59.2618 21.4223C59.3517 21.0345 59.4714 20.7063 59.5912 20.3781C59.741 20.0499 59.9206 19.7813 60.1602 19.5128C60.3997 19.2741 60.6693 19.0951 60.9987 18.9459C61.358 18.8266 61.7772 18.7669 62.2264 18.7669ZM62.1366 19.6023C61.8072 19.6023 61.5077 19.662 61.2981 19.7813C61.0585 19.9007 60.8789 20.0499 60.7292 20.2289C60.5794 20.4079 60.4297 20.6167 60.3399 20.8554C60.25 21.0941 60.1901 21.303 60.1302 21.5417L59.741 23.5109C59.6811 23.7794 59.6811 24.0181 59.6811 24.2568C59.711 24.4954 59.7709 24.7043 59.8607 24.8833C59.9805 25.0623 60.1302 25.2115 60.3399 25.3309C60.5495 25.4502 60.819 25.48 61.1783 25.48C61.4778 25.48 61.7173 25.4204 61.9569 25.3309C62.1665 25.2413 62.3761 25.0922 62.5259 24.9131C62.7055 24.7341 62.8253 24.5253 62.9451 24.2866C63.0649 24.0479 63.1547 23.7794 63.2146 23.5109C63.2446 23.302 63.3045 23.123 63.3643 22.9141C63.4242 22.7053 63.4542 22.4964 63.5141 22.2876C63.544 22.0787 63.6039 21.8699 63.6039 21.661C63.6338 21.4522 63.6338 21.2731 63.6338 21.124C63.6338 20.6764 63.5141 20.3184 63.2446 20.0499C63.0349 19.7515 62.6457 19.6023 62.1366 19.6023ZM70.2817 26.2259L71.3298 20.9748L68.7545 25.122H68.0358L66.8679 20.9748H66.838L65.8199 26.2259H64.8916L66.3289 18.8266H67.2572L68.6048 23.9882H68.6347L71.779 18.8266H72.7073L71.24 26.2259H70.2817ZM77.9777 24.7043C77.6782 25.2115 77.2889 25.6292 76.8098 25.8679C76.3007 26.1364 75.7617 26.2558 75.1628 26.2558C74.7735 26.2558 74.4441 26.1961 74.1746 26.0768C73.9051 25.9574 73.6655 25.8082 73.4559 25.5994C73.2762 25.3905 73.1265 25.1817 73.0367 24.9131C72.9468 24.6446 72.887 24.3463 72.887 24.0479C72.887 23.8391 72.9169 23.6302 72.9468 23.4213L73.3361 21.3925C73.426 21.0345 73.5158 20.6764 73.6655 20.3781C73.8153 20.0499 73.9949 19.7813 74.2345 19.5128C74.4741 19.2741 74.7436 19.0951 75.1029 18.9459C75.4323 18.7967 75.8216 18.7371 76.2408 18.7371C76.8397 18.7371 77.3488 18.8863 77.7381 19.1846C78.1274 19.4531 78.4268 19.841 78.5766 20.3184L77.6782 20.7063C77.6483 20.5571 77.5884 20.4377 77.4985 20.2886C77.4087 20.1394 77.3189 20.0499 77.1991 19.9305C77.0793 19.841 76.9296 19.7515 76.7798 19.6918C76.6301 19.6322 76.4504 19.6023 76.2408 19.6023C75.9414 19.6023 75.6719 19.662 75.4323 19.7813C75.1927 19.9007 75.0131 20.0499 74.8633 20.2289C74.7136 20.4079 74.5639 20.6167 74.4741 20.8554C74.3842 21.0941 74.3243 21.303 74.2644 21.5417L73.8752 23.4512C73.8452 23.5407 73.8452 23.6004 73.8452 23.6899C73.8452 23.7794 73.8452 23.839 73.8452 23.9286C73.8452 24.1374 73.8751 24.3164 73.9051 24.4954C73.935 24.6745 73.9949 24.8236 74.1147 24.943C74.2345 25.0922 74.3543 25.1817 74.5339 25.2712C74.7136 25.3607 74.9532 25.3905 75.2227 25.3905C75.612 25.3905 75.9713 25.301 76.3007 25.0922C76.6301 24.8833 76.8996 24.6148 77.0793 24.2866L77.9777 24.7043ZM82.1101 19.6322L80.8225 26.2259H79.8942L81.1818 19.6322H79.1156L79.2653 18.8266H84.3261L84.1763 19.6322H82.1101ZM84.8651 26.2259H83.9368L85.3742 18.8266H87.9794C88.2788 18.8266 88.5484 18.8564 88.7879 18.9459C89.0574 19.0354 89.267 19.1548 89.4467 19.304C89.6264 19.4531 89.7761 19.662 89.866 19.9007C89.9558 20.1394 90.0157 20.4079 90.0157 20.7063C90.0157 21.0941 89.9258 21.4223 89.8061 21.7505C89.6863 22.0787 89.4767 22.3174 89.2072 22.5561C88.9676 22.765 88.6681 22.944 88.3387 23.0633C88.0093 23.1827 87.6799 23.2423 87.2907 23.2423H85.4041L84.8651 26.2259ZM89.0874 20.8256C89.0874 20.4377 88.9676 20.1692 88.758 19.9604C88.5184 19.7813 88.219 19.6918 87.8596 19.6918H86.1527L85.6437 22.4069H87.4404C87.6799 22.4069 87.8896 22.3771 88.0692 22.2876C88.2789 22.1981 88.4585 22.1086 88.6082 21.9594C88.758 21.8102 88.8778 21.661 88.9676 21.4522C89.0574 21.2433 89.0874 21.0345 89.0874 20.8256ZM93.7289 18.7669C94.0583 18.7669 94.3877 18.8266 94.6872 18.9161C94.9866 19.0056 95.2262 19.1846 95.4358 19.3636C95.6454 19.5725 95.7951 19.7813 95.9149 20.0499C96.0347 20.3184 96.0946 20.6168 96.0946 20.9151C96.0946 21.0643 96.0646 21.2731 96.0347 21.482C96.0047 21.6909 95.9748 21.9295 95.9149 22.1384C95.885 22.3771 95.8251 22.5859 95.7652 22.8246C95.7053 23.0633 95.6753 23.2722 95.6154 23.5109C95.5256 23.9286 95.4058 24.2866 95.2262 24.6148C95.0465 24.943 94.8369 25.2413 94.5973 25.48C94.3577 25.7187 94.0583 25.8977 93.7289 26.0469C93.3995 26.1961 93.0102 26.2558 92.591 26.2558C92.1717 26.2558 91.8124 26.1961 91.5129 26.1066C91.2135 25.9872 90.9739 25.8381 90.7943 25.6292C90.6146 25.4204 90.4649 25.1817 90.405 24.943C90.3151 24.6745 90.2852 24.3761 90.2852 24.0777C90.2852 23.8987 90.3151 23.7197 90.3151 23.481C90.3451 23.2423 90.405 23.0335 90.4349 22.7948C90.4649 22.5561 90.5247 22.3174 90.5846 22.0787C90.6445 21.84 90.6745 21.6312 90.7344 21.4223C90.8242 21.0345 90.944 20.7063 91.0638 20.3781C91.2135 20.0499 91.3932 19.7515 91.6327 19.5128C91.8723 19.2741 92.1418 19.0951 92.4712 18.9459C92.8605 18.8266 93.2498 18.7669 93.7289 18.7669ZM93.669 19.6023C93.3396 19.6023 93.0402 19.662 92.8305 19.7813C92.591 19.9007 92.4113 20.0499 92.2316 20.2289C92.0819 20.4079 91.9621 20.6167 91.8723 20.8554C91.7824 21.0941 91.7226 21.303 91.6627 21.5417L91.2734 23.5109C91.2135 23.7794 91.2135 24.0181 91.2135 24.2568C91.2135 24.4954 91.2734 24.7043 91.3932 24.8833C91.483 25.0623 91.6627 25.2115 91.8723 25.3309C92.0819 25.4502 92.3514 25.48 92.7108 25.48C92.9803 25.48 93.2498 25.4204 93.4594 25.3309C93.669 25.2413 93.8786 25.0922 94.0583 24.9131C94.208 24.7341 94.3577 24.5253 94.4775 24.2866C94.5973 24.0479 94.6871 23.7794 94.747 23.5109C94.777 23.302 94.8369 23.123 94.8968 22.9141C94.9567 22.7053 94.9866 22.4964 95.0465 22.2876C95.0764 22.0787 95.1363 21.8699 95.1363 21.661C95.1663 21.4522 95.1663 21.2731 95.1663 21.124C95.1663 20.6764 95.0465 20.3184 94.777 20.0499C94.5374 19.7515 94.1481 19.6023 93.669 19.6023ZM100.017 16.9767C99.9875 17.1558 100.017 17.3049 100.107 17.4541C100.197 17.5735 100.377 17.663 100.616 17.663C100.766 17.663 100.886 17.6331 101.006 17.6033C101.095 17.5735 101.215 17.5138 101.275 17.4243C101.335 17.3646 101.395 17.2751 101.455 17.2154C101.515 17.1558 101.515 17.0663 101.545 17.0066H102.353C102.323 17.1558 102.263 17.3348 102.203 17.484C102.114 17.6331 101.994 17.7823 101.874 17.9315C101.724 18.0807 101.545 18.1702 101.335 18.2597C101.125 18.3492 100.886 18.379 100.586 18.379C100.317 18.379 100.077 18.3492 99.8976 18.2299C99.718 18.1404 99.5982 18.021 99.4784 17.9017C99.3886 17.7823 99.3287 17.6331 99.2987 17.4541C99.2688 17.3049 99.2688 17.1259 99.2987 17.0066H100.017V16.9767ZM101.754 26.2259H100.826L101.934 20.5869H101.904L100.616 22.1682L97.1726 26.2259H96.2743L97.7416 18.8266H98.6399L97.532 24.4954L97.5619 24.5253L99.0292 22.765L102.353 18.8564H103.162L101.754 26.2259Z" fill="#D8D8D8"/>
<path fill-rule="evenodd" clip-rule="evenodd" d="M41.7736 10.5918L41.1448 13.9633H41.594L42.8816 12.2925C43.1811 11.9046 43.4506 11.5167 43.6901 11.1587H43.7201C43.6302 11.5764 43.5404 11.9344 43.4506 12.4118L43.1511 13.9633H43.5404L44.1992 10.5918H43.75L42.4025 12.3521C42.103 12.74 41.8635 13.098 41.6239 13.4561C41.7437 13.0384 41.8036 12.6207 41.8934 12.1134L42.1929 10.5918H41.7736ZM46.0259 13.5754C45.9061 13.6351 45.6965 13.7246 45.4569 13.7246C45.0676 13.7246 44.858 13.4561 44.858 13.0682C44.858 12.5013 45.2473 11.8748 45.8761 11.8748C46.0558 11.8748 46.2055 11.9046 46.2954 11.9643L46.4152 11.6361C46.3253 11.6062 46.1456 11.5167 45.9061 11.5167C45.0377 11.5167 44.4088 12.2925 44.4088 13.098C44.4088 13.6052 44.7083 14.0229 45.3371 14.0229C45.6665 14.0229 45.9061 13.9334 46.0558 13.8738L46.0259 13.5754ZM47.1039 11.5466L46.6248 13.9633H47.044L47.2536 12.8593H47.3435C47.6429 12.8593 47.7926 12.9787 47.9124 13.3666C48.0023 13.5754 48.0621 13.8141 48.122 13.9633H48.5413C48.4514 13.8141 48.4215 13.5754 48.3317 13.3367C48.2119 12.9488 48.0621 12.7102 47.7926 12.6505L48.9905 11.5466H48.4814L47.4333 12.6207H47.3435L47.5531 11.5466H47.1039ZM49.1701 11.5466L49.6493 13.8439C49.6493 13.8738 49.6492 13.9036 49.6193 13.9633C49.4995 14.202 49.3199 14.4108 49.1402 14.5302C48.9605 14.6495 48.8108 14.739 48.691 14.7689L48.7808 15.1269C48.9306 15.097 49.23 14.9777 49.4995 14.7092C49.8289 14.381 50.0685 13.9633 50.338 13.4262L51.2663 11.5764H50.8171L50.1883 12.919C50.0685 13.1875 49.9786 13.3666 49.9188 13.5157C49.8888 13.3367 49.8589 13.1577 49.799 12.8892L49.5594 11.5764H49.1701V11.5466ZM52.9732 13.5754C52.8534 13.6351 52.6438 13.7246 52.4042 13.7246C52.0149 13.7246 51.8053 13.4561 51.8053 13.0682C51.8053 12.5013 52.1946 11.8748 52.8534 11.8748C53.0331 11.8748 53.1828 11.9046 53.2726 11.9643L53.3924 11.6361C53.3026 11.6062 53.1229 11.5167 52.8833 11.5167C52.0149 11.5167 51.3861 12.2925 51.3861 13.098C51.3861 13.6052 51.6855 14.0229 52.3144 14.0229C52.6438 14.0229 52.8833 13.9334 53.0031 13.8738L52.9732 13.5754ZM55.1891 13.5754C55.0694 13.6351 54.8597 13.7246 54.6202 13.7246C54.2309 13.7246 54.0213 13.4561 54.0213 13.0682C54.0213 12.5013 54.4106 11.8748 55.0394 11.8748C55.2191 11.8748 55.3688 11.9046 55.4586 11.9643L55.5784 11.6361C55.4886 11.6062 55.3089 11.5167 55.0694 11.5167C54.2009 11.5167 53.5721 12.2925 53.5721 13.098C53.5721 13.6052 53.8715 14.0229 54.5004 14.0229C54.8298 14.0229 55.0694 13.9334 55.2191 13.8738L55.1891 13.5754ZM56.1773 13.9931L56.3869 12.7698C56.4768 12.2626 56.8661 11.8449 57.1655 11.8449C57.465 11.8449 57.5249 12.0538 57.5249 12.2626C57.5249 12.3521 57.5249 12.4715 57.4949 12.561L57.2254 13.9931H57.6446L57.8842 12.74C57.9741 12.2029 58.3334 11.8449 58.6328 11.8449C58.9024 11.8449 58.9922 12.0239 58.9922 12.2626C58.9922 12.3521 58.9922 12.4715 58.9622 12.5908L58.6927 13.9931H59.082L59.3515 12.561C59.3815 12.4118 59.3815 12.2626 59.3815 12.1433C59.3815 11.6957 59.082 11.5167 58.7826 11.5167C58.4232 11.5167 58.0938 11.6957 57.8842 12.0538C57.8543 11.7554 57.6746 11.5167 57.3153 11.5167C56.9859 11.5167 56.6864 11.6957 56.4468 12.0239H56.4169L56.4768 11.5764H56.1174C56.0875 11.7852 56.0575 12.0239 55.9977 12.2925L55.6683 14.0229H56.1773V13.9931ZM61.3279 11.5167C61.0584 11.5167 60.8488 11.6062 60.6691 11.7256C60.2199 12.0538 60.0403 12.8892 60.0403 13.3367C60.0403 13.8439 60.3697 14.0229 60.8488 14.0229C61.3579 14.0229 61.9568 13.7843 61.9568 13.2174C61.9568 12.8892 61.6873 12.7102 61.4477 12.6803V12.6505C61.6873 12.561 62.0167 12.382 62.0167 12.0538C62.0167 11.6957 61.7172 11.5167 61.3279 11.5167ZM61.268 11.8151C61.4477 11.8151 61.5974 11.9046 61.5974 12.1134C61.5974 12.2626 61.4777 12.382 61.3279 12.4416C61.1183 12.561 60.7889 12.5908 60.5194 12.6505C60.6392 12.2626 60.8189 11.8151 61.268 11.8151ZM60.9985 12.8593C61.268 12.8593 61.5076 12.9787 61.5076 13.2472C61.5076 13.5754 61.2081 13.7246 60.8787 13.7246C60.5793 13.7246 60.4296 13.5754 60.4296 13.3069C60.4296 13.1875 60.4595 13.0384 60.4595 12.9488C60.6092 12.8892 60.7889 12.8593 60.9985 12.8593ZM63.8433 11.5167C63.0648 11.5167 62.4958 12.2626 62.4958 13.0384C62.4958 13.6052 62.8252 14.0528 63.454 14.0528C64.2626 14.0528 64.8016 13.277 64.8016 12.5311C64.7716 11.9941 64.5021 11.5167 63.8433 11.5167ZM63.7834 11.8449C64.2326 11.8449 64.3524 12.2328 64.3524 12.5311C64.3524 13.098 63.9931 13.7246 63.484 13.7246C63.1246 13.7246 62.915 13.4262 62.915 13.0384C62.915 12.4715 63.2744 11.8449 63.7834 11.8449ZM67.6464 13.5754C67.5266 13.6351 67.317 13.7246 67.0774 13.7246C66.6881 13.7246 66.4785 13.4561 66.4785 13.0682C66.4785 12.5013 66.8678 11.8748 67.4967 11.8748C67.6763 11.8748 67.8261 11.9046 67.9159 11.9643L68.0357 11.6361C67.9458 11.6062 67.7662 11.5167 67.5266 11.5167C66.6582 11.5167 66.0293 12.2925 66.0293 13.098C66.0293 13.6052 66.3288 14.0229 66.9576 14.0229C67.287 14.0229 67.5266 13.9334 67.6464 13.8738V13.5754ZM68.6346 13.9931L68.8442 12.7698C68.934 12.2626 69.3233 11.8449 69.6228 11.8449C69.9222 11.8449 69.9821 12.0538 69.9821 12.2626C69.9821 12.3521 69.9821 12.4715 69.9522 12.561L69.6827 13.9931H70.072L70.3115 12.74C70.4014 12.2029 70.7607 11.8449 71.0602 11.8449C71.3297 11.8449 71.4195 12.0239 71.4195 12.2626C71.4195 12.3521 71.4195 12.4715 71.3896 12.5908L71.12 13.9931H71.5093L71.7788 12.561C71.8088 12.4118 71.8088 12.2626 71.8088 12.1433C71.8088 11.6957 71.5093 11.5167 71.2099 11.5167C70.8505 11.5167 70.5211 11.6957 70.3115 12.0538C70.2816 11.7554 70.1019 11.5167 69.7426 11.5167C69.4132 11.5167 69.1137 11.6957 68.8741 12.0239L68.934 11.5764H68.5747C68.5447 11.7852 68.5148 12.0239 68.4549 12.2925L68.1255 14.0229H68.6346V13.9931ZM72.6173 14.9777L72.8269 13.9334C72.9168 13.9931 73.0964 14.0528 73.3659 14.0528C74.1745 14.0528 74.8033 13.2472 74.8033 12.382C74.8033 11.9344 74.5937 11.5167 74.0547 11.5167C73.7253 11.5167 73.3959 11.7256 73.1863 12.0239L73.2462 11.5764H72.8569C72.8269 11.8151 72.767 12.1433 72.7071 12.4416L72.228 15.0075H72.6173V14.9777ZM73.0066 12.919C73.1264 12.2328 73.5456 11.8748 73.875 11.8748C74.2344 11.8748 74.3541 12.1731 74.3541 12.4416C74.3541 13.0682 73.905 13.7544 73.3659 13.7544C73.1563 13.7544 73.0066 13.7246 72.9168 13.6351L73.0066 12.919ZM76.5401 11.5167C75.7616 11.5167 75.1926 12.2626 75.1926 13.0384C75.1926 13.6052 75.522 14.0528 76.1509 14.0528C76.9594 14.0528 77.4984 13.277 77.4984 12.5311C77.4984 11.9941 77.1989 11.5167 76.5401 11.5167ZM76.5102 11.8449C76.9594 11.8449 77.0792 12.2328 77.0792 12.5311C77.0792 13.098 76.7198 13.7246 76.2108 13.7246C75.8514 13.7246 75.6418 13.4262 75.6418 13.0384C75.6118 12.4715 75.9712 11.8449 76.5102 11.8449ZM79.8641 11.5466L79.6245 12.7997C79.5347 13.3367 79.1454 13.6948 78.816 13.6948C78.5465 13.6948 78.4267 13.5157 78.4267 13.277C78.4267 13.1875 78.4566 13.0682 78.4866 12.919L78.7561 11.5764H78.3369L78.0674 12.9488C78.0374 13.098 78.0374 13.2472 78.0374 13.3367C78.0374 13.9036 78.3668 14.0528 78.6663 14.0528C78.9957 14.0528 79.2951 13.8439 79.5347 13.5456L79.4748 13.9931H79.8641C79.894 13.7843 79.924 13.5456 79.9839 13.277L80.3133 11.5466H79.8641ZM81.0619 13.9931L81.2715 12.7698C81.3613 12.2626 81.7506 11.8449 82.0501 11.8449C82.3495 11.8449 82.4094 12.0538 82.4094 12.2626C82.4094 12.3521 82.4094 12.4715 82.3795 12.561L82.11 13.9931H82.4993L82.7388 12.74C82.8287 12.2029 83.188 11.8449 83.4875 11.8449C83.757 11.8449 83.8468 12.0239 83.8468 12.2626C83.8468 12.3521 83.8169 12.4715 83.8169 12.5908L83.5474 13.9931H83.9666L84.2361 12.561C84.266 12.4118 84.266 12.2626 84.266 12.1433C84.266 11.6957 83.9666 11.5167 83.6671 11.5167C83.3078 11.5167 82.9784 11.6957 82.7688 12.0538C82.7388 11.7554 82.5592 11.5167 82.1998 11.5167C81.8704 11.5167 81.571 11.6957 81.3314 12.0239H81.3015L81.3614 11.5764H81.002C80.9721 11.7852 80.9421 12.0239 80.8822 12.2925L80.5528 14.0229H81.0619V13.9931ZM85.2842 11.5466L84.9548 13.0384C84.9248 13.1577 84.8949 13.3666 84.8949 13.4859C84.8949 13.9036 85.2243 14.0229 85.5836 14.0229C86.3023 14.0229 86.7814 13.5754 86.7814 13.0085C86.7814 12.5908 86.5119 12.382 86.1227 12.382C85.8531 12.382 85.5836 12.5311 85.404 12.7102L85.6735 11.6062H85.2842V11.5466ZM85.6735 13.7246C85.4639 13.7246 85.3141 13.6052 85.3141 13.4262C85.3141 13.3367 85.3441 13.2472 85.374 13.1577C85.4639 12.9488 85.7034 12.6803 86.0029 12.6803C86.2724 12.6803 86.3922 12.8593 86.3922 13.0682C86.3922 13.4561 86.0328 13.7246 85.6735 13.7246ZM88.5183 11.5466L88.0691 13.9633H88.4883L88.698 12.8593H89.8059L89.5963 13.9633H90.0155L90.4647 11.5466H90.0455L89.8658 12.5311H88.7578L88.9375 11.5466H88.5183ZM92.8304 13.9931C92.8304 13.7246 92.8603 13.3069 92.9502 12.8593L93.1898 11.6062C93.0101 11.5466 92.7705 11.5167 92.531 11.5167C91.4829 11.5167 90.854 12.4118 90.854 13.2472C90.854 13.7246 91.1235 14.0528 91.5428 14.0528C91.9021 14.0528 92.2315 13.8738 92.501 13.3666C92.4711 13.6052 92.4411 13.8439 92.4411 13.9931H92.8304ZM92.5908 12.6207C92.4711 13.277 92.0518 13.7246 91.7224 13.7246C91.393 13.7246 91.3032 13.4561 91.3032 13.1875C91.3032 12.5013 91.8123 11.8449 92.4711 11.8449C92.6208 11.8449 92.7106 11.8748 92.7705 11.8748L92.5908 12.6207ZM95.765 11.5167C95.4955 11.5167 95.2859 11.6062 95.1063 11.7256C94.6571 12.0538 94.4774 12.8892 94.4774 13.3367C94.4774 13.8439 94.8068 14.0229 95.2859 14.0229C95.795 14.0229 96.3939 13.7843 96.3939 13.2174C96.3939 12.8892 96.1244 12.7102 95.8848 12.6803V12.6505C96.1543 12.561 96.4538 12.382 96.4538 12.0538C96.4538 11.6957 96.1543 11.5167 95.765 11.5167ZM95.7052 11.8151C95.9148 11.8151 96.0346 11.9046 96.0346 12.1134C96.0346 12.2626 95.9148 12.382 95.795 12.4416C95.5854 12.561 95.256 12.5908 94.9865 12.6505C95.0763 12.2626 95.256 11.8151 95.7052 11.8151ZM95.4356 12.8593C95.7052 12.8593 95.9447 12.9787 95.9447 13.2472C95.9447 13.5754 95.6453 13.7246 95.3159 13.7246C95.0164 13.7246 94.8667 13.5754 94.8667 13.3069C94.8667 13.1875 94.8966 13.0384 94.8966 12.9488C95.0464 12.8892 95.226 12.8593 95.4356 12.8593ZM98.5799 13.5456C98.4302 13.6351 98.2206 13.7246 97.9211 13.7246C97.6516 13.7246 97.4719 13.6052 97.3821 13.3964C97.3222 13.277 97.3222 13.0384 97.3222 12.9488C98.2206 12.9787 98.9392 12.7997 98.9392 12.1433C98.9392 11.7852 98.6997 11.5167 98.2206 11.5167C97.442 11.5167 96.903 12.3521 96.903 13.0682C96.903 13.6052 97.1725 14.0528 97.8313 14.0528C98.1607 14.0528 98.4601 13.9633 98.6398 13.8738L98.5799 13.5456ZM98.55 12.1433C98.55 12.5311 98.0409 12.6207 97.3821 12.5908C97.4719 12.2029 97.7714 11.8151 98.1906 11.8151C98.4002 11.8449 98.55 11.9344 98.55 12.1433ZM99.7478 11.5466L99.2986 13.9633H99.6879L99.8975 12.8593H99.9574C100.257 12.8593 100.407 12.9787 100.556 13.3666C100.646 13.5754 100.706 13.8141 100.766 13.9633H101.185C101.095 13.8141 101.065 13.5754 100.976 13.3367C100.856 12.9488 100.706 12.7102 100.437 12.6505L101.634 11.5466H101.125L100.077 12.6207H99.9873L100.197 11.5466H99.7478ZM103.671 13.9931C103.671 13.7246 103.701 13.3069 103.76 12.8593L104 11.6062C103.85 11.5466 103.581 11.5167 103.341 11.5167C102.293 11.5167 101.664 12.4118 101.664 13.2472C101.664 13.7246 101.934 14.0528 102.353 14.0528C102.712 14.0528 103.042 13.8738 103.311 13.3666C103.281 13.6052 103.251 13.8439 103.251 13.9931H103.671ZM103.401 12.6207C103.281 13.277 102.862 13.7246 102.533 13.7246C102.203 13.7246 102.113 13.4561 102.113 13.1875C102.113 12.5013 102.623 11.8449 103.251 11.8449C103.401 11.8449 103.491 11.8748 103.551 11.8748L103.401 12.6207Z" fill="#D8D8D8"/>
<path d="M14.7786 16.1115C13.9401 16.1115 12.922 16.1115 12.0835 16.1115C9.86755 16.1115 8.3104 14.3512 8.54996 12.1433C8.93925 8.74197 9.29859 5.31082 9.68788 1.90951C7.6516 1.90951 5.61532 1.90951 3.60898 1.90951C3.06997 6.56394 2.5609 11.2184 2.02188 15.8728C1.75237 18.2299 2.501 20.4079 3.87849 21.9594C5.28592 23.5108 7.3222 24.4954 9.71783 24.4954C11.1253 24.4954 12.5626 24.4954 13.9701 24.4954C16.3657 24.4954 18.6415 23.5108 20.4083 21.9594C22.1751 20.378 23.4627 18.2597 23.7322 15.8728C24.2713 11.2184 25.3193 1.90951 25.3193 1.90951H19.2105L17.5635 16.559C17.4138 17.9613 16.6352 19.1846 15.6171 20.1095C14.5989 21.0344 13.2514 21.5715 11.8739 21.5715C10.706 21.5715 9.5681 21.5715 8.43018 21.5715C8.52002 20.9449 8.57991 20.3184 8.6398 19.6918C9.80766 19.6918 10.9456 19.6918 12.0835 19.6918C12.9519 19.6918 13.7604 19.3338 14.3893 18.7669C15.0181 18.2 15.5272 17.4243 15.647 16.559C16.2759 11.0394 16.8748 5.51968 17.5036 0.0298356C20.8275 0.0298356 24.1215 0.0298356 27.4455 0.0298356C27.4155 0.358033 27.3556 0.686229 27.3257 0.98459C26.7567 5.93738 26.2177 10.92 25.6487 15.8728C25.4691 17.3348 24.96 18.7072 24.2713 19.9603C23.5825 21.2135 22.6842 22.3771 21.6061 23.302C20.5281 24.2567 19.3003 25.0325 17.9827 25.5695C16.6651 26.1066 15.2278 26.3751 13.7604 26.3751C12.353 26.3751 10.9156 26.3751 9.50821 26.3751C8.04089 26.3751 6.69335 26.1066 5.46559 25.5695C4.26778 25.0325 3.18975 24.2866 2.35128 23.302C1.48286 22.3472 0.824067 21.2135 0.434778 19.9603C0.0454884 18.7072 -0.104237 17.3049 0.0754347 15.8728C0.674341 10.5918 1.27325 5.31082 1.84221 0C5.16614 0 8.46012 0 11.7841 0C11.3349 4.02787 10.8857 8.08558 10.4365 12.1135C10.3167 13.2174 11.1253 14.1721 12.2632 14.1721C13.1016 14.1721 14.1198 14.1721 14.9283 14.1721C14.9283 14.8584 14.8385 15.4849 14.7786 16.1115Z" fill="#D8D8D8"/>
</svg>
