<svg width="34" height="51" viewBox="0 0 34 51" fill="none" xmlns="http://www.w3.org/2000/svg">
<path d="M23.8902 25.1034L28.6496 23.7502C29.8161 20.8573 30.5627 18.2909 30.5627 16.5178C30.5627 12.9716 29.2562 9.79872 27.1098 7.32571L19.4575 9.4721L23.8902 25.1034Z" fill="#D5DD24"/>
<path d="M8.95884 10.032L16.5645 7.88565L15.0714 2.61301C12.3184 2.89297 9.79873 4.01282 7.74567 5.64594L8.95884 10.032Z" fill="#A6CD44"/>
<path d="M18.8042 7.2324L25.1034 5.4593C22.957 3.77952 20.344 2.75299 17.451 2.56635L18.8042 7.2324Z" fill="#31B56C"/>
<path d="M7.37238 12.8783L2.75299 14.1848C2.61301 14.9314 2.56635 15.7246 2.56635 16.5179C2.56635 19.5041 4.66607 24.6368 7.27906 29.7694L11.8051 28.5096L7.37238 12.8783Z" fill="#ED5024"/>
<path d="M12.4117 30.7493L8.35223 31.9158C12.2251 39.2416 16.5645 46.054 16.5645 46.054C16.5645 46.054 16.6112 45.9607 16.7045 45.8207L12.4117 30.7493Z" fill="#2291B3"/>
<path d="M23.8903 33.5956L22.3038 27.9964L14.6981 30.1428L18.3843 43.161C19.7841 40.828 21.8372 37.3751 23.8903 33.5956Z" fill="#24BBBB"/>
<path d="M24.5435 27.3431L25.4767 30.6094C26.1766 29.2562 26.8298 27.8564 27.4364 26.5499L24.5435 27.3431Z" fill="#31B56C"/>
<path d="M6.71912 10.6386L5.83257 7.51236C4.8527 8.72553 4.01281 10.0787 3.45288 11.5718L6.71912 10.6386Z" fill="#D5DD24"/>
<path d="M21.6505 25.7567L17.2177 10.1254L9.61206 12.2718L14.0448 27.903L21.6505 25.7567Z" fill="#F9AD18"/>
</svg>
