<?xml version="1.0" encoding="UTF-8" standalone="no"?>
<svg
   xmlns:dc="http://purl.org/dc/elements/1.1/"
   xmlns:cc="http://creativecommons.org/ns#"
   xmlns:rdf="http://www.w3.org/1999/02/22-rdf-syntax-ns#"
   xmlns:svg="http://www.w3.org/2000/svg"
   xmlns="http://www.w3.org/2000/svg"
   viewBox="0 0 24 24"
   height="24"
   width="24"
   xml:space="preserve"
   id="svg2"
   version="1.1"><metadata
     id="metadata8"><rdf:RDF><cc:Work
         rdf:about=""><dc:format>image/svg+xml</dc:format><dc:type
           rdf:resource="http://purl.org/dc/dcmitype/StillImage" /></cc:Work></rdf:RDF></metadata><defs
     id="defs6"><clipPath
       id="clipPath18"
       clipPathUnits="userSpaceOnUse"><path
         id="path16"
         d="M 0,18 H 18 V 0 H 0 Z" /></clipPath></defs><g
     transform="matrix(1.3333333,0,0,-1.3333333,0,24)"
     id="g10"><g
       id="g12"><g
         clip-path="url(#clipPath18)"
         id="g14"><g
           transform="translate(9,17.28)"
           id="g20"><path
             id="path22"
             style="fill:#cecece;fill-opacity:1;fill-rule:nonzero;stroke:none"
             d="m 0,0 c -4.566,0 -8.28,-3.714 -8.28,-8.28 0,-4.566 3.714,-8.28 8.28,-8.28 4.566,0 8.28,3.714 8.28,8.28 C 8.28,-3.714 4.566,0 0,0 m 0,-17.28 c -4.962,0 -9,4.037 -9,9 0,4.963 4.038,9 9,9 4.962,0 9,-4.037 9,-9 0,-4.963 -4.038,-9 -9,-9" /></g><g
           transform="translate(12.5375,11.7361)"
           id="g24"><path
             id="path26"
             style="fill:#cecece;fill-opacity:1;fill-rule:nonzero;stroke:none"
             d="m 0,0 -4.648,-4.648 -2.428,2.427 -0.411,-0.412 2.839,-2.839 5.06,5.06 z" /></g></g></g></g></svg>