<?xml version="1.0" encoding="UTF-8" standalone="no"?>
<svg
   xmlns:dc="http://purl.org/dc/elements/1.1/"
   xmlns:cc="http://creativecommons.org/ns#"
   xmlns:rdf="http://www.w3.org/1999/02/22-rdf-syntax-ns#"
   xmlns:svg="http://www.w3.org/2000/svg"
   xmlns="http://www.w3.org/2000/svg"
   viewBox="0 0 1575.8267 1297.9948"
   height="1297.9948"
   width="1575.8267"
   xml:space="preserve"
   id="svg2"
   version="1.1"><metadata
     id="metadata8"><rdf:RDF><cc:Work
         rdf:about=""><dc:format>image/svg+xml</dc:format><dc:type
           rdf:resource="http://purl.org/dc/dcmitype/StillImage" /></cc:Work></rdf:RDF></metadata><defs
     id="defs6"><clipPath
       id="clipPath18"
       clipPathUnits="userSpaceOnUse"><path
         id="path16"
         d="M 0,973.496 H 1181.865 V 0 H 0 Z" /></clipPath></defs><g
     transform="matrix(1.3333333,0,0,-1.3333333,0,1297.9947)"
     id="g10"><g
       id="g12"><g
         clip-path="url(#clipPath18)"
         id="g14"><g
           transform="translate(16.7594,862.15)"
           id="g20"><path
             id="path22"
             style="fill:none;stroke:#b2b2b2;stroke-width:1;stroke-linecap:butt;stroke-linejoin:miter;stroke-miterlimit:10;stroke-dasharray:none;stroke-opacity:1"
             d="M 0,0 C 1.781,-1.473 3.618,-2.91 5.511,-4.313" /></g><g
           transform="translate(30.5153,852.1622)"
           id="g24"><path
             id="path26"
             style="fill:none;stroke:#b2b2b2;stroke-width:1;stroke-linecap:butt;stroke-linejoin:miter;stroke-miterlimit:10;stroke-dasharray:14.015, 10.011;stroke-dashoffset:0;stroke-opacity:1"
             d="m 0,0 c 114.633,-73.333 394.615,-39.324 519.156,16.988 175.752,79.467 411.132,190.645 526,-7 102.883,-177.02 -104.26,-432.009 -526.857,-297.12 -485.994,155.125 -560.658,-51.57 -532.055,-123.03 59.664,-149.056 254.496,-71.355 532.912,5 174,47.719 370.742,63.619 526,0 166.984,-68.424 145.791,-326.526 -133.251,-326.526 -326.888,0 -315.242,120.678 -615.977,120.678 -345.803,0 -347.641,-175.096 -309.684,-213.054 127.844,-127.844 232.6,243.059 474.327,12.389" /></g><g
           transform="translate(494.6886,37.0147)"
           id="g28"><path
             id="path30"
             style="fill:none;stroke:#b2b2b2;stroke-width:1;stroke-linecap:butt;stroke-linejoin:miter;stroke-miterlimit:10;stroke-dasharray:none;stroke-opacity:1"
             d="M 0,0 C 1.655,-1.61 3.316,-3.25 4.983,-4.917" /></g></g></g></g></svg>