<?xml version="1.0" encoding="UTF-8" standalone="no"?>
<svg
   xmlns:dc="http://purl.org/dc/elements/1.1/"
   xmlns:cc="http://creativecommons.org/ns#"
   xmlns:rdf="http://www.w3.org/1999/02/22-rdf-syntax-ns#"
   xmlns:svg="http://www.w3.org/2000/svg"
   xmlns="http://www.w3.org/2000/svg"
   viewBox="0 0 46.667332 46.666668"
   height="46.666668"
   width="46.667332"
   xml:space="preserve"
   id="svg2"
   version="1.1"><metadata
     id="metadata8"><rdf:RDF><cc:Work
         rdf:about=""><dc:format>image/svg+xml</dc:format><dc:type
           rdf:resource="http://purl.org/dc/dcmitype/StillImage" /></cc:Work></rdf:RDF></metadata><defs
     id="defs6"><clipPath
       id="clipPath18"
       clipPathUnits="userSpaceOnUse"><path
         id="path16"
         d="M 0,35 H 35 V 0 H 0 Z" /></clipPath></defs><g
     transform="matrix(1.3333333,0,0,-1.3333333,0,46.666667)"
     id="g10"><g
       id="g12"><g
         clip-path="url(#clipPath18)"
         id="g14"><g
           transform="translate(17.5,34)"
           id="g20"><path
             id="path22"
             style="fill:#d4d92c;fill-opacity:1;fill-rule:nonzero;stroke:none"
             d="m 0,0 c -9.098,0 -16.5,-7.402 -16.5,-16.5 0,-9.098 7.402,-16.5 16.5,-16.5 9.099,0 16.5,7.402 16.5,16.5 C 16.5,-7.402 9.099,0 0,0 m 0,-34 c -9.649,0 -17.5,7.851 -17.5,17.5 C -17.5,-6.851 -9.649,1 0,1 9.65,1 17.5,-6.851 17.5,-16.5 17.5,-26.149 9.65,-34 0,-34" /></g><g
           transform="translate(23.5104,12.1967)"
           id="g24"><path
             id="path26"
             style="fill:#000000;fill-opacity:1;fill-rule:nonzero;stroke:none"
             d="M 0,0 -5.303,5.303 0,10.607 -0.707,11.314 -6.01,6.01 -11.314,11.314 -12.021,10.607 -6.718,5.303 -12.021,0 l 0.707,-0.707 5.304,5.303 5.303,-5.303 z" /></g></g></g></g></svg>