<?xml version="1.0" encoding="UTF-8" standalone="no"?>
<svg
   xmlns:dc="http://purl.org/dc/elements/1.1/"
   xmlns:cc="http://creativecommons.org/ns#"
   xmlns:rdf="http://www.w3.org/1999/02/22-rdf-syntax-ns#"
   xmlns:svg="http://www.w3.org/2000/svg"
   xmlns="http://www.w3.org/2000/svg"
   viewBox="0 0 41.333332 41.333332"
   height="41.333332"
   width="41.333332"
   xml:space="preserve"
   id="svg2"
   version="1.1"><metadata
     id="metadata8"><rdf:RDF><cc:Work
         rdf:about=""><dc:format>image/svg+xml</dc:format><dc:type
           rdf:resource="http://purl.org/dc/dcmitype/StillImage" /></cc:Work></rdf:RDF></metadata><defs
     id="defs6"><clipPath
       id="clipPath18"
       clipPathUnits="userSpaceOnUse"><path
         id="path16"
         d="M 0,31 H 31 V 0 H 0 Z" /></clipPath></defs><g
     transform="matrix(1.3333333,0,0,-1.3333333,0,41.333333)"
     id="g10"><g
       id="g12"><g
         clip-path="url(#clipPath18)"
         id="g14"><g
           transform="translate(0.9996,15.5)"
           id="g20"><path
             id="path22"
             style="fill:#d4d92c;fill-opacity:1;fill-rule:nonzero;stroke:none"
             d="M 0,0 C 0,7.995 6.505,14.5 14.5,14.5 22.496,14.5 29,7.995 29,0 29,-7.995 22.496,-14.5 14.5,-14.5 6.505,-14.5 0,-7.995 0,0" /></g><g
           transform="translate(0.9996,15.5)"
           id="g24"><path
             id="path26"
             style="fill:none;stroke:#ffffff;stroke-width:2;stroke-linecap:butt;stroke-linejoin:miter;stroke-miterlimit:10;stroke-dasharray:none;stroke-opacity:1"
             d="M 0,0 C 0,7.995 6.505,14.5 14.5,14.5 22.496,14.5 29,7.995 29,0 29,-7.995 22.496,-14.5 14.5,-14.5 6.505,-14.5 0,-7.995 0,0 Z" /></g><g
           transform="translate(21.6471,11.4507)"
           id="g28"><path
             id="path30"
             style="fill:#000000;fill-opacity:1;fill-rule:nonzero;stroke:none"
             d="M 0,0 -1.987,1.988 C -2.384,2.382 -3.039,2.371 -3.449,1.96 L -4.45,0.959 C -4.514,0.994 -4.579,1.031 -4.648,1.069 -5.28,1.42 -6.146,1.9 -7.057,2.812 -7.971,3.725 -8.451,4.592 -8.803,5.225 -8.84,5.292 -8.875,5.356 -8.91,5.418 l 0.672,0.671 0.33,0.331 c 0.411,0.411 0.422,1.066 0.027,1.461 L -9.869,9.87 c -0.395,0.395 -1.051,0.383 -1.461,-0.028 l -0.561,-0.563 0.016,-0.015 c -0.188,-0.24 -0.346,-0.516 -0.462,-0.815 -0.107,-0.283 -0.175,-0.554 -0.205,-0.825 -0.263,-2.177 0.731,-4.166 3.43,-6.864 3.73,-3.73 6.737,-3.448 6.867,-3.435 0.282,0.034 0.553,0.101 0.828,0.208 0.295,0.116 0.571,0.273 0.812,0.46 l 0.011,-0.011 0.568,0.556 C 0.384,-1.052 0.396,-0.396 0,0" /></g></g></g></g></svg>