<svg width="21" height="21" viewBox="0 0 21 21" fill="none" xmlns="http://www.w3.org/2000/svg">
<path d="M0 10.5C0 4.7069 4.7069 0 10.5 0C16.2931 0 21 4.7069 21 10.5C21 16.2931 16.2931 21 10.5 21C4.7069 21 0 16.2931 0 10.5Z" fill="#D4D92C"/>
<path d="M14.9173 13.3966L13.469 11.9483C13.1793 11.6586 12.6724 11.6586 12.3828 11.9483L11.6586 12.6724C11.5862 12.6724 11.5862 12.6 11.5138 12.6C11.0793 12.3103 10.4276 12.0207 9.77588 11.369C9.12416 10.7172 8.76209 10.0655 8.54485 9.63103C8.54485 9.55862 8.47243 9.55862 8.47243 9.48621L8.97933 8.97931L9.19657 8.76207C9.48622 8.47241 9.48622 7.96552 9.19657 7.67586L7.74829 6.22759C7.45864 5.93793 6.95174 5.93793 6.66209 6.22759L6.37243 6.73448C6.2276 6.87931 6.15519 7.09655 6.01036 7.31379C5.93795 7.53103 5.86554 7.74828 5.86554 7.8931C5.64829 9.48621 6.37243 10.9345 8.3276 12.8897C11.0069 15.569 13.1793 15.3517 13.3242 15.3517C13.5414 15.3517 13.7586 15.2793 13.9035 15.2069C14.1207 15.1345 14.3379 14.9897 14.4828 14.8448L14.9173 14.4103C15.2069 14.1931 15.2069 13.6862 14.9173 13.3966Z" fill="black"/>
</svg>
