<?xml version="1.0" encoding="UTF-8" standalone="no"?>
<svg
   xmlns:dc="http://purl.org/dc/elements/1.1/"
   xmlns:cc="http://creativecommons.org/ns#"
   xmlns:rdf="http://www.w3.org/1999/02/22-rdf-syntax-ns#"
   xmlns:svg="http://www.w3.org/2000/svg"
   xmlns="http://www.w3.org/2000/svg"
   viewBox="0 0 38.666668 38.666668"
   height="38.666668"
   width="38.666668"
   xml:space="preserve"
   id="svg2"
   version="1.1"><metadata
     id="metadata8"><rdf:RDF><cc:Work
         rdf:about=""><dc:format>image/svg+xml</dc:format><dc:type
           rdf:resource="http://purl.org/dc/dcmitype/StillImage" /></cc:Work></rdf:RDF></metadata><defs
     id="defs6"><clipPath
       id="clipPath18"
       clipPathUnits="userSpaceOnUse"><path
         id="path16"
         d="M 0,29 H 29 V 0 H 0 Z" /></clipPath></defs><g
     transform="matrix(1.3333333,0,0,-1.3333333,0,38.666667)"
     id="g10"><g
       id="g12"><g
         clip-path="url(#clipPath18)"
         id="g14"><g
           transform="translate(0,14.5)"
           id="g20"><path
             id="path22"
             style="fill:#ffffff;fill-opacity:1;fill-rule:nonzero;stroke:none"
             d="M 0,0 C 0,7.995 6.505,14.5 14.5,14.5 22.495,14.5 29,7.995 29,0 29,-7.995 22.495,-14.5 14.5,-14.5 6.505,-14.5 0,-7.995 0,0" /></g><path
             class="arrow"
           id="path24"
           style="fill:#000000;fill-opacity:1;fill-rule:nonzero;stroke:none"
           d="m 17.814,10.602 h -6.628 v 9.365 h 6.628 z M 14.501,8.293 c -0.372,0 -0.676,0.302 -0.676,0.673 0,0.372 0.304,0.674 0.676,0.674 0.369,0 0.671,-0.302 0.671,-0.674 0,-0.371 -0.302,-0.673 -0.671,-0.673 m -1.506,12.814 h 3.01 c 0.077,0 0.14,-0.113 0.14,-0.253 0,-0.142 -0.063,-0.255 -0.14,-0.255 h -3.01 c -0.078,0 -0.138,0.113 -0.138,0.255 0,0.14 0.06,0.253 0.138,0.253 m 4.556,0.643 h -6.102 c -0.583,0 -1.055,-0.475 -1.055,-1.055 V 8.305 c 0,-0.583 0.472,-1.055 1.055,-1.055 h 6.102 c 0.583,0 1.055,0.472 1.055,1.055 v 12.39 c 0,0.58 -0.472,1.055 -1.055,1.055" /></g></g></g></svg>