<?xml version="1.0" encoding="UTF-8" standalone="no"?>
<svg
   xmlns:dc="http://purl.org/dc/elements/1.1/"
   xmlns:cc="http://creativecommons.org/ns#"
   xmlns:rdf="http://www.w3.org/1999/02/22-rdf-syntax-ns#"
   xmlns:svg="http://www.w3.org/2000/svg"
   xmlns="http://www.w3.org/2000/svg"
   viewBox="0 0 71.555603 109.34827"
   height="109.34827"
   width="71.555603"
   xml:space="preserve"
   id="svg2"
   version="1.1"><metadata
     id="metadata8"><rdf:RDF><cc:Work
         rdf:about=""><dc:format>image/svg+xml</dc:format><dc:type
           rdf:resource="http://purl.org/dc/dcmitype/StillImage" /></cc:Work></rdf:RDF></metadata><defs
     id="defs6"><clipPath
       id="clipPath18"
       clipPathUnits="userSpaceOnUse"><path
         id="path16"
         d="M 0,82.011 H 53.667 V 0 H 0 Z" /></clipPath></defs><g
     transform="matrix(1.3333333,0,0,-1.3333333,0,109.34827)"
     id="g10"><g
       id="g12"><g
         clip-path="url(#clipPath18)"
         id="g14"><g
           transform="translate(53.6667,55.1779)"
           id="g20"><path
             id="path22"
             style="fill:#ffffff;fill-opacity:1;fill-rule:nonzero;stroke:none"
             d="m 0,0 c 0,-14.82 -26.833,-55.178 -26.833,-55.178 0,0 -26.834,40.358 -26.834,55.178 0,14.82 12.014,26.833 26.834,26.833 C -12.014,26.833 0,14.82 0,0" /></g><g
           transform="translate(24.0925,41.6779)"
           id="g24"><path
             id="path26"
             style="fill:#363886;fill-opacity:1;fill-rule:nonzero;stroke:none"
             d="m 0,0 h -9 v 6 10.996 5.443 l 9,4.453 9,-4.453 v -4.443 z" /></g><g
           transform="translate(17.856,50.8978)"
           id="g28"><path
             id="path30"
             style="fill:#39ad6a;fill-opacity:1;fill-rule:nonzero;stroke:none"
             d="m 0,0 c 0.223,0.504 0.311,1.082 0.217,1.69 -0.188,1.209 -1.13,2.217 -2.328,2.468 -1.952,0.408 -3.67,-1.07 -3.67,-2.95 0,-0.481 0.113,-0.935 0.315,-1.337 0.402,-0.803 0.303,-1.749 -0.061,-2.57 -0.223,-0.504 -0.311,-1.082 -0.217,-1.69 0.188,-1.209 1.13,-2.217 2.328,-2.468 1.951,-0.408 3.67,1.07 3.67,2.95 0,0.481 -0.113,0.935 -0.315,1.337 C -0.463,-1.767 -0.364,-0.821 0,0" /></g><g
           transform="translate(42.0925,41.6779)"
           id="g32"><path
             id="path34"
             style="fill:#f6ac8f;fill-opacity:1;fill-rule:nonzero;stroke:none"
             d="M 0,0 H -18 V 13.5 L -9,17.987 0,13.5 Z" /></g><g
           transform="translate(30.0925,41.6779)"
           id="g36"><path
             id="path38"
             style="fill:#2b2b2a;fill-opacity:1;fill-rule:nonzero;stroke:none"
             d="M 0,0 H 6 V 6 C 6,7.657 4.657,9 3,9 V 9 C 1.343,9 0,7.657 0,6 Z" /></g></g></g></g></svg>