<?xml version="1.0" encoding="UTF-8" standalone="no"?>
<svg
   xmlns:dc="http://purl.org/dc/elements/1.1/"
   xmlns:cc="http://creativecommons.org/ns#"
   xmlns:rdf="http://www.w3.org/1999/02/22-rdf-syntax-ns#"
   xmlns:svg="http://www.w3.org/2000/svg"
   xmlns="http://www.w3.org/2000/svg"
   viewBox="0 0 32 18.666668"
   height="18.666668"
   width="32"
   xml:space="preserve"
   id="svg2"
   version="1.1"><metadata
     id="metadata8"><rdf:RDF><cc:Work
         rdf:about=""><dc:format>image/svg+xml</dc:format><dc:type
           rdf:resource="http://purl.org/dc/dcmitype/StillImage" /></cc:Work></rdf:RDF></metadata><defs
     id="defs6"><clipPath
       id="clipPath18"
       clipPathUnits="userSpaceOnUse"><path
         id="path16"
         d="M 0,14 H 24 V 0 H 0 Z" /></clipPath></defs><g
     transform="matrix(1.3333333,0,0,-1.3333333,0,18.666667)"
     id="g10"><g
       id="g12"><g
         clip-path="url(#clipPath18)"
         id="g14"><g
           transform="translate(9.1799,14)"
           id="g20"><path
             id="path22"
             style="fill:#cecdcd;fill-opacity:1;fill-rule:nonzero;stroke:none"
             d="m 0,0 h 3.952 c 0.619,-0.125 0.761,-0.418 0.846,-1.063 v -4.522 c -0.007,-0.249 0.121,-0.99 0.562,-1.158 0.348,-0.117 0.576,0.168 0.789,0.403 0.945,1.033 1.62,2.257 2.218,3.525 0.27,0.558 0.504,1.137 0.725,1.708 0.163,0.433 0.426,0.645 0.895,0.638 l 3.796,-0.007 c 0.114,0 0.228,0 0.341,-0.022 0.64,-0.11 0.818,-0.396 0.619,-1.041 -0.313,-1.012 -0.917,-1.855 -1.514,-2.705 -0.633,-0.901 -1.315,-1.773 -1.941,-2.69 -0.576,-0.828 -0.533,-1.246 0.185,-1.971 0.796,-0.799 1.635,-1.554 2.353,-2.434 0.313,-0.395 0.611,-0.799 0.839,-1.253 0.327,-0.645 0.035,-1.356 -0.534,-1.4 l -3.49,0.007 c -0.903,-0.08 -1.62,0.294 -2.232,0.931 -0.483,0.506 -0.931,1.048 -1.393,1.576 -0.192,0.213 -0.391,0.418 -0.633,0.572 -0.476,0.322 -0.888,0.227 -1.158,-0.286 -0.278,-0.528 -0.342,-1.1 -0.37,-1.686 -0.036,-0.85 -0.284,-1.07 -1.116,-1.107 -1.763,-0.088 -3.44,0.191 -4.997,1.107 -1.379,0.814 -2.445,1.957 -3.37,3.247 -1.805,2.521 -3.184,5.292 -4.428,8.143 -0.284,0.645 -0.078,0.99 0.611,0.997 1.138,0.022 2.282,0.022 3.419,0.007 0.47,-0.007 0.775,-0.286 0.953,-0.733 0.618,-1.568 1.372,-3.056 2.317,-4.434 0.256,-0.366 0.512,-0.733 0.875,-0.997 0.412,-0.286 0.718,-0.19 0.909,0.279 0.121,0.293 0.171,0.615 0.199,0.931 0.093,1.084 0.107,2.169 -0.056,3.254 -0.093,0.681 -0.462,1.114 -1.124,1.246 -0.334,0.066 -0.284,0.19 -0.12,0.388 C -0.789,-0.213 -0.526,0 0,0" /></g></g></g></g></svg>