<?xml version="1.0" encoding="UTF-8" standalone="no"?>
<svg
   xmlns:dc="http://purl.org/dc/elements/1.1/"
   xmlns:cc="http://creativecommons.org/ns#"
   xmlns:rdf="http://www.w3.org/1999/02/22-rdf-syntax-ns#"
   xmlns:svg="http://www.w3.org/2000/svg"
   xmlns="http://www.w3.org/2000/svg"
   viewBox="0 0 28.266666 17.6"
   height="17.6"
   width="28.266666"
   xml:space="preserve"
   id="svg2"
   version="1.1"><metadata
     id="metadata8"><rdf:RDF><cc:Work
         rdf:about=""><dc:format>image/svg+xml</dc:format><dc:type
           rdf:resource="http://purl.org/dc/dcmitype/StillImage" /></cc:Work></rdf:RDF></metadata><defs
     id="defs6"><clipPath
       id="clipPath18"
       clipPathUnits="userSpaceOnUse"><path
         id="path16"
         d="M 0,13.2 H 21.2 V 0 H 0 Z" /></clipPath></defs><g
     transform="matrix(1.3333333,0,0,-1.3333333,0,17.6)"
     id="g10"><g
       id="g12"><g
         clip-path="url(#clipPath18)"
         id="g14"><g
           transform="translate(8.2497,12.5999)"
           id="g20"><path
             id="path22"
             style="fill:none;stroke:#231f20;stroke-width:1.20000005;stroke-linecap:butt;stroke-linejoin:miter;stroke-miterlimit:10;stroke-dasharray:none;stroke-opacity:1"
             d="M 0,0 H 3.294 C 3.81,-0.106 3.928,-0.358 3.999,-0.911 V -4.787 C 3.993,-5.001 4.1,-5.635 4.467,-5.779 c 0.29,-0.101 0.479,0.144 0.657,0.344 0.788,0.886 1.351,1.936 1.849,3.023 0.224,0.477 0.42,0.974 0.603,1.464 0.137,0.37 0.356,0.552 0.747,0.546 l 3.163,-0.006 c 0.095,0 0.19,0 0.285,-0.019 0.533,-0.094 0.681,-0.34 0.515,-0.892 -0.261,-0.868 -0.765,-1.589 -1.262,-2.319 -0.527,-0.772 -1.095,-1.52 -1.617,-2.305 -0.48,-0.71 -0.444,-1.068 0.154,-1.69 0.664,-0.684 1.363,-1.332 1.96,-2.086 0.261,-0.339 0.51,-0.684 0.7,-1.074 0.272,-0.553 0.029,-1.162 -0.445,-1.2 l -2.908,0.007 c -0.753,-0.07 -1.35,0.251 -1.86,0.798 -0.403,0.433 -0.777,0.898 -1.161,1.35 -0.16,0.182 -0.326,0.358 -0.528,0.49 -0.396,0.277 -0.74,0.195 -0.965,-0.245 -0.231,-0.453 -0.285,-0.942 -0.308,-1.445 -0.029,-0.729 -0.236,-0.917 -0.93,-0.948 -1.469,-0.077 -2.867,0.163 -4.164,0.948 -1.149,0.697 -2.038,1.678 -2.808,2.783 -1.504,2.161 -2.654,4.536 -3.691,6.98 -0.236,0.552 -0.064,0.848 0.51,0.854 0.948,0.019 1.901,0.019 2.85,0.007 0.39,-0.007 0.645,-0.245 0.793,-0.629 0.515,-1.344 1.143,-2.619 1.931,-3.801 0.213,-0.314 0.427,-0.628 0.729,-0.854 0.343,-0.245 0.598,-0.163 0.757,0.239 0.102,0.251 0.143,0.527 0.166,0.798 0.078,0.93 0.089,1.859 -0.046,2.789 -0.078,0.584 -0.385,0.955 -0.937,1.068 -0.278,0.057 -0.236,0.163 -0.101,0.333 C -0.657,-0.182 -0.438,0 0,0 Z" /></g></g></g></g></svg>