<?xml version="1.0" encoding="UTF-8" standalone="no"?>
<svg
  xmlns:dc="http://purl.org/dc/elements/1.1/"
  xmlns:cc="http://creativecommons.org/ns#"
  xmlns:rdf="http://www.w3.org/1999/02/22-rdf-syntax-ns#"
  xmlns:svg="http://www.w3.org/2000/svg"
  xmlns="http://www.w3.org/2000/svg"
  viewBox="0 0 32 24"
  height="24"
  width="32"
  xml:space="preserve"
  id="svg2"
  version="1.1">
  <metadata id="metadata8">
    <rdf:RDF>
      <cc:Work rdf:about="">
        <dc:format>image/svg+xml</dc:format><dc:type rdf:resource="http://purl.org/dc/dcmitype/StillImage"/></cc:Work>
    </rdf:RDF>
  </metadata>
  <defs id="defs6">
    <clipPath id="clipPath18" clipPathUnits="userSpaceOnUse"><path id="path16" d="M 0,18 H 24 V 0 H 0 Z"/></clipPath>
  </defs>
  <g transform="matrix(1.3333333,0,0,-1.3333333,0,24)" id="g10">
    <g id="g12">
      <g clip-path="url(#clipPath18)" id="g14">
        <g transform="translate(15.1819,9.646)" id="g20">
          <path
            id="path22"
            style="fill:#d5dd24;fill-opacity:1;fill-rule:nonzero;stroke:none"
            d="M 0,0 -4.431,2.26 C -4.686,2.39 -4.987,2.385 -5.237,2.247 -5.487,2.109 -5.636,1.865 -5.636,1.594 v -4.48 c 0,-0.27 0.148,-0.513 0.396,-0.652 0.13,-0.072 0.274,-0.108 0.418,-0.108 0.132,0 0.264,0.03 0.385,0.091 l 4.432,2.221 c 0.263,0.132 0.427,0.387 0.428,0.666 C 0.424,-0.39 0.262,-0.134 0,0"/></g>
        <g transform="translate(22.5935,8.0966)" id="g24">
          <path
            id="path26"
            style="fill:#d5dd24;fill-opacity:1;fill-rule:nonzero;stroke:none"
            d="m 0,0 c 0,-1.761 -0.155,-3.574 -0.17,-3.741 -0.06,-0.458 -0.302,-1.512 -0.69,-1.929 -0.598,-0.651 -1.212,-0.715 -1.66,-0.762 -0.054,-0.006 -0.104,-0.011 -0.149,-0.017 -3.069,-0.22 -7.68,-0.254 -7.892,-0.255 -0.239,0.004 -5.898,0.089 -7.675,0.253 -0.091,0.014 -0.189,0.026 -0.293,0.037 -0.525,0.06 -1.245,0.141 -1.798,0.744 l -0.013,0.014 c -0.381,0.393 -0.617,1.378 -0.677,1.91 -0.011,0.126 -0.17,1.961 -0.17,3.746 v 1.778 c 0,1.759 0.155,3.57 0.17,3.74 0.071,0.54 0.318,1.53 0.69,1.93 0.616,0.671 1.265,0.745 1.695,0.794 0.041,0.005 0.079,0.009 0.114,0.014 3.114,0.221 7.758,0.254 7.924,0.255 0.167,-10e-4 4.809,-0.034 7.895,-0.255 0.038,-0.005 0.079,-0.01 0.124,-0.015 0.442,-0.049 1.109,-0.125 1.722,-0.772 L -0.847,7.463 C -0.466,7.07 -0.23,6.068 -0.171,5.525 -0.16,5.406 0,3.567 0,1.778 Z M 1.23,5.655 1.229,5.666 C 1.208,5.857 1.006,7.559 0.171,8.424 -0.795,9.442 -1.889,9.566 -2.416,9.625 -2.459,9.63 -2.499,9.634 -2.535,9.639 l -0.042,0.004 c -3.173,0.229 -7.964,0.26 -8.012,0.26 h -0.009 c -0.048,0 -4.839,-0.031 -8.041,-0.26 l -0.042,-0.004 c -0.034,-0.004 -0.072,-0.008 -0.113,-0.013 -0.52,-0.06 -1.603,-0.184 -2.571,-1.238 -0.796,-0.856 -1.026,-2.522 -1.049,-2.709 l -0.003,-0.024 c -0.007,-0.08 -0.177,-1.974 -0.177,-3.877 V 0 c 0,-1.902 0.17,-3.797 0.177,-3.877 l 0.001,-0.012 c 0.021,-0.188 0.223,-1.859 1.054,-2.724 0.908,-0.984 2.056,-1.114 2.673,-1.184 0.098,-0.011 0.182,-0.021 0.239,-0.031 l 0.056,-0.008 c 1.832,-0.172 7.575,-0.257 7.819,-0.261 h 0.015 c 0.048,10e-4 4.839,0.032 8.012,0.26 l 0.042,0.005 c 0.04,0.005 0.085,0.01 0.135,0.015 0.517,0.054 1.594,0.167 2.549,1.207 0.795,0.857 1.026,2.522 1.049,2.709 L 1.23,-3.877 C 1.237,-3.797 1.406,-1.902 1.406,0 v 1.778 c 0,1.903 -0.169,3.797 -0.176,3.877"/></g>
      </g>
    </g>
  </g>
</svg>
