<?xml version="1.0" encoding="UTF-8" standalone="no"?>
<svg
   xmlns:dc="http://purl.org/dc/elements/1.1/"
   xmlns:cc="http://creativecommons.org/ns#"
   xmlns:rdf="http://www.w3.org/1999/02/22-rdf-syntax-ns#"
   xmlns:svg="http://www.w3.org/2000/svg"
   xmlns="http://www.w3.org/2000/svg"
   viewBox="0 0 119.58333 186.66667"
   height="186.66667"
   width="119.58333"
   xml:space="preserve"
   id="svg2"
   version="1.1"><metadata
     id="metadata8"><rdf:RDF><cc:Work
         rdf:about=""><dc:format>image/svg+xml</dc:format><dc:type
           rdf:resource="http://purl.org/dc/dcmitype/StillImage" /></cc:Work></rdf:RDF></metadata><defs
     id="defs6"><clipPath
       id="clipPath18"
       clipPathUnits="userSpaceOnUse"><path
         id="path16"
         d="M 0,140 H 89.687 V 0 H 0 Z" /></clipPath></defs><g
     transform="matrix(1.3333333,0,0,-1.3333333,0,186.66667)"
     id="g10"><g
       id="g12"><g
         clip-path="url(#clipPath18)"
         id="g14"><g
           transform="translate(44.8444,140)"
           id="g20"><path
             id="path22"
             style="fill:#33aee5;fill-opacity:1;fill-rule:nonzero;stroke:none"
             d="m 0,0 c -24.728,0 -44.844,-20.017 -44.844,-44.622 0,-14.471 7.666,-31.289 14.096,-42.849 C -18.883,-108.797 0.148,-140 0.148,-140 c 0,0 17.97,30.958 29.975,52.528 9.768,17.551 14.72,31.968 14.72,42.85 C 44.843,-20.017 24.726,0 0,0" /></g><g
           transform="translate(23.4713,36.1118)"
           id="g24"><path
             id="path26"
             style="fill:#33aee5;fill-opacity:1;fill-rule:nonzero;stroke:none"
             d="M 0,0 -2.279,3.93 C -1.525,2.625 -0.764,1.313 0,0" /></g><g
           transform="translate(56.0295,88.0561)"
           id="g28"><path
             id="path30"
             style="fill:#ffffff;fill-opacity:1;fill-rule:nonzero;stroke:none"
             d="m 0,0 v -16.721 c 5.61,1.514 11.219,3.029 16.829,3.472 V 0.26 3.473 C 11.219,3.029 5.61,1.515 0,0" /></g><g
           transform="translate(56.0295,71.3349)"
           id="g32"><path
             id="path34"
             style="fill:#ffffff;fill-opacity:1;fill-rule:nonzero;stroke:none"
             d="m 0,0 c -5.61,-1.515 -11.219,-3.029 -16.829,-3.473 v -17.153 c -1.402,-0.11 -2.805,-0.154 -4.207,-0.115 7.012,-0.198 14.024,1.695 21.036,3.589 z" /></g><g
           transform="translate(39.2009,101.3042)"
           id="g36"><path
             id="path38"
             style="fill:#ffffff;fill-opacity:1;fill-rule:nonzero;stroke:none"
             d="m 0,0 v -13.509 -3.212 c 5.609,0.444 11.219,1.958 16.829,3.473 V 3.473 C 11.219,1.958 5.609,0.444 0,0" /></g><g
           transform="translate(39.2009,84.583)"
           id="g40"><path
             id="path42"
             style="fill:#ffffff;fill-opacity:1;fill-rule:nonzero;stroke:none"
             d="M 0,0 C -5.192,-0.411 -10.384,0.119 -15.576,2.392 V -14.33 c 5.192,-2.272 10.384,-2.802 15.576,-2.391 v 3.212 z" /></g><g
           transform="translate(47.6149,119.3603)"
           id="g44"><path
             id="path46"
             style="fill:#ffffff;fill-opacity:1;fill-rule:nonzero;stroke:none"
             d="M 0,0 C 1.402,0.312 2.805,0.657 4.208,1.019 2.805,0.657 1.402,0.312 0,0" /></g><g
           transform="translate(39.2009,101.3042)"
           id="g48"><path
             id="path50"
             style="fill:#ffffff;fill-opacity:1;fill-rule:nonzero;stroke:none"
             d="m 0,0 v 3.212 13.509 c -5.192,-0.41 -10.384,0.119 -15.576,2.392 V 2.392 C -10.384,0.119 -5.192,-0.411 0,0" /></g><g
           transform="translate(72.8586,74.8076)"
           id="g52"><path
             id="path54"
             style="fill:#ffffff;fill-opacity:1;fill-rule:nonzero;stroke:none"
             d="m 0,0 v -3.212 -13.94 c 1.634,0.13 3.268,0.153 4.902,0.074 2.952,5.678 5.372,11.005 7.231,15.952 C 8.089,0.068 4.044,0.32 0,0" /></g><g
           transform="translate(77.0656,125.0864)"
           id="g56"><path
             id="path58"
             style="fill:#ffffff;fill-opacity:1;fill-rule:nonzero;stroke:none"
             d="m 0,0 c -8.415,0.238 -16.829,-2.536 -25.243,-4.708 1.402,0.362 2.805,0.741 4.207,1.12 v -16.721 c 5.61,1.515 11.219,3.029 16.829,3.473 V -0.115 C -2.805,-0.004 -1.402,0.04 0,0" /></g><g
           transform="translate(78.3317,125.0117)"
           id="g60"><path
             id="path62"
             style="fill:#ffffff;fill-opacity:1;fill-rule:nonzero;stroke:none"
             d="M 0,0 V 0 C -0.378,0.024 -0.756,0.055 -1.134,0.067 -0.756,0.055 -0.378,0.024 0,0" /></g><g
           transform="translate(72.8586,108.25)"
           id="g64"><path
             id="path66"
             style="fill:#ffffff;fill-opacity:1;fill-rule:nonzero;stroke:none"
             d="m 0,0 v -3.212 -13.509 c 5.432,0.429 10.864,-0.163 16.295,-2.713 0.354,2.312 0.534,4.501 0.534,6.562 0,3.611 -0.445,7.12 -1.262,10.484 C 10.378,-0.118 5.189,0.411 0,0" /></g><g
           transform="translate(77.0656,125.0864)"
           id="g68"><path
             id="path70"
             style="fill:#1d1d1b;fill-opacity:1;fill-rule:nonzero;stroke:none"
             d="M 0,0 C 0.044,-0.001 0.088,-0.006 0.132,-0.008 0.088,-0.006 0.044,-0.001 0,0" /></g><g
           transform="translate(77.0656,125.0864)"
           id="g72"><path
             id="path74"
             style="fill:#1d1d1b;fill-opacity:1;fill-rule:nonzero;stroke:none"
             d="m 0,0 c -1.402,0.04 -2.805,-0.004 -4.207,-0.115 v -16.721 c 5.189,0.41 10.378,-0.119 15.567,-2.388 C 9.604,-11.999 6.081,-5.456 1.266,-0.075 0.888,-0.05 0.51,-0.02 0.132,-0.008 0.088,-0.006 0.044,-0.001 0,0" /></g><g
           transform="translate(23.6252,53.101)"
           id="g76"><path
             id="path78"
             style="fill:#1d1d1b;fill-opacity:1;fill-rule:nonzero;stroke:none"
             d="M 0,0 C 3.79,-1.659 7.579,-2.4 11.368,-2.507 7.579,-2.4 3.79,-1.659 0,0" /></g><g
           transform="translate(39.2009,67.8618)"
           id="g80"><path
             id="path82"
             style="fill:#1d1d1b;fill-opacity:1;fill-rule:nonzero;stroke:none"
             d="m 0,0 c -5.192,-0.411 -10.384,0.119 -15.576,2.392 v -17.153 c 3.79,-1.658 7.579,-2.4 11.368,-2.507 1.403,-0.039 2.806,0.005 4.208,0.116 z" /></g><g
           transform="translate(56.0295,104.7768)"
           id="g84"><path
             id="path86"
             style="fill:#1d1d1b;fill-opacity:1;fill-rule:nonzero;stroke:none"
             d="m 0,0 v -16.721 c 5.61,1.515 11.219,3.029 16.829,3.473 V 0.261 3.473 C 11.219,3.029 5.61,1.515 0,0 Z" /></g><g
           transform="translate(56.0295,104.7768)"
           id="g88"><path
             id="path90"
             style="fill:#1d1d1b;fill-opacity:1;fill-rule:nonzero;stroke:none"
             d="M 0,0 Z" /></g><g
           transform="translate(39.2009,118.0254)"
           id="g92"><path
             id="path94"
             style="fill:#1d1d1b;fill-opacity:1;fill-rule:nonzero;stroke:none"
             d="M 0,0 V 0 C 0.701,0.055 1.402,0.127 2.104,0.214 1.402,0.127 0.701,0.055 0,0" /></g><g
           transform="translate(41.3044,118.2397)"
           id="g96"><path
             id="path98"
             style="fill:#1d1d1b;fill-opacity:1;fill-rule:nonzero;stroke:none"
             d="M 0,0 C 2.104,0.261 4.207,0.653 6.311,1.121 4.207,0.653 2.104,0.261 0,0" /></g><g
           transform="translate(39.2009,101.3042)"
           id="g100"><path
             id="path102"
             style="fill:#1d1d1b;fill-opacity:1;fill-rule:nonzero;stroke:none"
             d="m 0,0 c 5.609,0.444 11.219,1.958 16.829,3.473 v 0 16.721 C 15.426,19.815 14.024,19.437 12.622,19.075 11.219,18.713 9.816,18.368 8.414,18.056 6.311,17.588 4.207,17.196 2.104,16.936 1.402,16.849 0.701,16.776 0,16.721 V 3.212 Z" /></g><g
           transform="translate(56.0295,88.0561)"
           id="g104"><path
             id="path106"
             style="fill:#1d1d1b;fill-opacity:1;fill-rule:nonzero;stroke:none"
             d="M 0,0 Z" /></g><g
           transform="translate(72.8586,74.8076)"
           id="g108"><path
             id="path110"
             style="fill:#1d1d1b;fill-opacity:1;fill-rule:nonzero;stroke:none"
             d="M 0,0 C 4.044,0.32 8.089,0.068 12.133,-1.126 14.206,4.389 15.595,9.44 16.295,14.008 10.864,16.559 5.432,17.151 0,16.721 v -3.212 z" /></g><g
           transform="translate(39.2009,84.583)"
           id="g112"><path
             id="path114"
             style="fill:#1d1d1b;fill-opacity:1;fill-rule:nonzero;stroke:none"
             d="m 0,0 v 3.212 13.509 c -5.192,-0.41 -10.384,0.119 -15.576,2.392 V 2.392 C -10.384,0.119 -5.192,-0.411 0,0" /></g><g
           transform="translate(72.8586,57.6557)"
           id="g116"><path
             id="path118"
             style="fill:#1d1d1b;fill-opacity:1;fill-rule:nonzero;stroke:none"
             d="M 0,0 V 0 C -4.208,-0.333 -8.415,-1.268 -12.622,-2.354 -8.415,-1.268 -4.208,-0.333 0,0" /></g><g
           transform="translate(60.237,55.3017)"
           id="g120"><path
             id="path122"
             style="fill:#1d1d1b;fill-opacity:1;fill-rule:nonzero;stroke:none"
             d="M 0,0 C -1.402,-0.362 -2.805,-0.741 -4.208,-1.119 -2.805,-0.74 -1.402,-0.362 0,0" /></g><g
           transform="translate(56.0295,71.3349)"
           id="g124"><path
             id="path126"
             style="fill:#1d1d1b;fill-opacity:1;fill-rule:nonzero;stroke:none"
             d="m 0,0 v -17.152 c 1.403,0.378 2.805,0.757 4.208,1.119 4.207,1.086 8.414,2.021 12.621,2.354 V 0.26 3.473 C 11.219,3.029 5.61,1.515 0,0" /></g><g
           transform="translate(39.2009,84.583)"
           id="g128"><path
             id="path130"
             style="fill:#1d1d1b;fill-opacity:1;fill-rule:nonzero;stroke:none"
             d="m 0,0 v -13.509 -3.212 c 5.609,0.444 11.219,1.958 16.829,3.473 V 3.473 C 11.219,1.958 5.609,0.444 0,0" /></g><g
           transform="translate(56.0295,71.3349)"
           id="g132"><path
             id="path134"
             style="fill:#1d1d1b;fill-opacity:1;fill-rule:nonzero;stroke:none"
             d="M 0,0 Z" /></g><g
           transform="translate(23.6252,35.8466)"
           id="g136"><path
             id="path138"
             style="fill:#d5dd24;fill-opacity:1;fill-rule:nonzero;stroke:none"
             d="M 0,0 V 0 C -0.051,0.089 -0.103,0.177 -0.154,0.265 Z" /></g><g
           transform="translate(21.1178,40.1699)"
           id="g140"><path
             id="path142"
             style="fill:#d5dd24;fill-opacity:1;fill-rule:nonzero;stroke:none"
             d="M 0,0 0.074,-0.128 C 0.049,-0.085 0.025,-0.042 0,0 Z" /></g><g
           transform="translate(22.3717,53.6611)"
           id="g144"><path
             id="path146"
             style="fill:#d5dd24;fill-opacity:1;fill-rule:nonzero;stroke:none"
             d="m 0,0 v 17.152 16.722 16.721 16.721 c 0.418,-0.207 0.835,-0.378 1.253,-0.56 v 3.633 h -2.507 v -83.88 c 0.025,-0.043 0.049,-0.085 0.074,-0.128 l 2.28,-3.93 c 0.051,-0.089 0.102,-0.177 0.153,-0.265 V -0.56 C 0.835,-0.377 0.418,-0.206 0,0" /></g><g
           transform="translate(23.6252,86.9746)"
           id="g148"><path
             id="path150"
             style="fill:#d5dd24;fill-opacity:1;fill-rule:nonzero;stroke:none"
             d="m 0,0 c -0.418,0.183 -0.835,0.354 -1.253,0.56 v -16.721 c 0.418,-0.206 0.835,-0.377 1.253,-0.56 z" /></g><g
           transform="translate(23.6252,120.417)"
           id="g152"><path
             id="path154"
             style="fill:#d5dd24;fill-opacity:1;fill-rule:nonzero;stroke:none"
             d="m 0,0 c -0.418,0.183 -0.835,0.354 -1.253,0.56 v -16.721 c 0.418,-0.206 0.835,-0.378 1.253,-0.56 z" /></g><g
           transform="translate(22.3717,53.6611)"
           id="g156"><path
             id="path158"
             style="fill:#d5dd24;fill-opacity:1;fill-rule:nonzero;stroke:none"
             d="M 0,0 C 0.418,-0.206 0.835,-0.377 1.253,-0.56 0.835,-0.377 0.418,-0.206 0,0" /></g><g
           transform="translate(23.6252,70.2534)"
           id="g160"><path
             id="path162"
             style="fill:#d5dd24;fill-opacity:1;fill-rule:nonzero;stroke:none"
             d="m 0,0 c -0.418,0.183 -0.835,0.354 -1.253,0.56 v -17.152 c 0.418,-0.206 0.835,-0.377 1.253,-0.56 z" /></g><g
           transform="translate(23.6252,103.6958)"
           id="g164"><path
             id="path166"
             style="fill:#d5dd24;fill-opacity:1;fill-rule:nonzero;stroke:none"
             d="m 0,0 c -0.418,0.183 -0.835,0.354 -1.253,0.56 v -16.721 c 0.418,-0.206 0.835,-0.377 1.253,-0.56 z" /></g></g></g></g></svg>