<?xml version="1.0" encoding="UTF-8" standalone="no"?>
<svg
   xmlns:dc="http://purl.org/dc/elements/1.1/"
   xmlns:cc="http://creativecommons.org/ns#"
   xmlns:rdf="http://www.w3.org/1999/02/22-rdf-syntax-ns#"
   xmlns:svg="http://www.w3.org/2000/svg"
   xmlns="http://www.w3.org/2000/svg"
   viewBox="0 0 119.58333 186.66667"
   height="186.66667"
   width="119.58333"
   xml:space="preserve"
   id="svg2"
   version="1.1"><metadata
     id="metadata8"><rdf:RDF><cc:Work
         rdf:about=""><dc:format>image/svg+xml</dc:format><dc:type
           rdf:resource="http://purl.org/dc/dcmitype/StillImage" /></cc:Work></rdf:RDF></metadata><defs
     id="defs6"><clipPath
       id="clipPath18"
       clipPathUnits="userSpaceOnUse"><path
         id="path16"
         d="M 0,140 H 89.688 V 0 H 0 Z" /></clipPath></defs><g
     transform="matrix(1.3333333,0,0,-1.3333333,0,186.66667)"
     id="g10"><g
       id="g12"><g
         clip-path="url(#clipPath18)"
         id="g14"><g
           transform="translate(44.8441,139.9999)"
           id="g20"><path
             id="path22"
             style="fill:#33aee5;fill-opacity:1;fill-rule:nonzero;stroke:none"
             d="m 0,0 c -24.727,0 -44.844,-20.017 -44.844,-44.622 0,-14.471 7.666,-31.289 14.096,-42.849 C -18.883,-108.797 0.148,-140 0.148,-140 c 0,0 17.971,30.958 29.975,52.528 9.768,17.551 14.72,31.968 14.72,42.85 C 44.843,-20.017 24.727,0 0,0" /></g><g
           transform="translate(47.227,58.6776)"
           id="g24"><path
             id="path26"
             style="fill:#d5dd24;fill-opacity:1;fill-rule:nonzero;stroke:none"
             d="m 0,0 c -1.495,0.973 -2.397,2.637 -2.397,4.421 v 34.906 c 0,4.431 -3.351,8.023 -7.484,8.023 h -36.045 c -0.844,-3.415 -1.301,-6.979 -1.301,-10.649 0,-0.814 0.032,-1.638 0.079,-2.466 h 31.529 v -3.512 h -31.2 c 0.366,-2.868 0.968,-5.782 1.746,-8.693 h 29.454 v -3.512 h -28.43 c 0.923,-2.945 1.995,-5.858 3.161,-8.692 H -28.68 V 6.313 h -10.707 c 2.018,-4.525 4.199,-8.764 6.257,-12.461 0.119,-0.215 0.243,-0.437 0.364,-0.653 h 43.217 z" /></g><g
           transform="translate(31.6083,89.4003)"
           id="g28"><path
             id="path30"
             style="fill:#1d1d1b;fill-opacity:1;fill-rule:nonzero;stroke:none"
             d="M 0,0 V 3.513 H -31.529 C -31.463,2.353 -31.351,1.181 -31.2,0 Z" /></g><g
           transform="translate(31.6083,77.1957)"
           id="g32"><path
             id="path34"
             style="fill:#1d1d1b;fill-opacity:1;fill-rule:nonzero;stroke:none"
             d="M 0,0 V 3.512 H -29.454 C -29.141,2.339 -28.796,1.168 -28.43,0 Z" /></g><g
           transform="translate(18.5468,64.9911)"
           id="g36"><path
             id="path38"
             style="fill:#1d1d1b;fill-opacity:1;fill-rule:nonzero;stroke:none"
             d="M 0,0 V 3.512 H -12.208 C -11.72,2.326 -11.221,1.152 -10.707,0 Z" /></g><g
           transform="translate(58.079,78.1059)"
           id="g40"><path
             id="path42"
             style="fill:#ffffff;fill-opacity:1;fill-rule:nonzero;stroke:none"
             d="m 0,0 v 3.512 h 29.513 c 0.845,3.078 1.424,5.971 1.758,8.693 H 0 v 3.512 h 31.565 c 0.021,0.523 0.043,1.047 0.043,1.555 0,2.43 -0.203,4.812 -0.58,7.137 H 0 v 3.512 h 30.308 c -1.163,4.709 -3.08,9.123 -5.616,13.115 H -5.737 c -4.134,0 -7.484,-3.592 -7.484,-8.022 V -1.889 c 0,-1.786 -0.904,-3.451 -2.402,-4.424 l -10.475,-6.802 H 23.259 C 25.406,-8.463 27.13,-4.094 28.452,0 Z" /></g><g
           transform="translate(58.079,102.515)"
           id="g44"><path
             id="path46"
             style="fill:#1d1d1b;fill-opacity:1;fill-rule:nonzero;stroke:none"
             d="m 0,0 h 31.028 c -0.193,1.187 -0.435,2.358 -0.72,3.512 H 0 Z" /></g><g
           transform="translate(58.079,90.3105)"
           id="g48"><path
             id="path50"
             style="fill:#1d1d1b;fill-opacity:1;fill-rule:nonzero;stroke:none"
             d="m 0,0 h 31.271 c 0.147,1.206 0.248,2.378 0.294,3.512 H 0 Z" /></g><g
           transform="translate(58.079,78.1059)"
           id="g52"><path
             id="path54"
             style="fill:#1d1d1b;fill-opacity:1;fill-rule:nonzero;stroke:none"
             d="m 0,0 h 28.452 c 0.384,1.192 0.746,2.368 1.061,3.512 H 0 Z" /></g></g></g></g></svg>