<?xml version="1.0" encoding="UTF-8" standalone="no"?>
<svg
   xmlns:dc="http://purl.org/dc/elements/1.1/"
   xmlns:cc="http://creativecommons.org/ns#"
   xmlns:rdf="http://www.w3.org/1999/02/22-rdf-syntax-ns#"
   xmlns:svg="http://www.w3.org/2000/svg"
   xmlns="http://www.w3.org/2000/svg"
   viewBox="0 0 119.58333 186.66667"
   height="186.66667"
   width="119.58333"
   xml:space="preserve"
   id="svg2"
   version="1.1"><metadata
     id="metadata8"><rdf:RDF><cc:Work
         rdf:about=""><dc:format>image/svg+xml</dc:format><dc:type
           rdf:resource="http://purl.org/dc/dcmitype/StillImage" /></cc:Work></rdf:RDF></metadata><defs
     id="defs6"><clipPath
       id="clipPath18"
       clipPathUnits="userSpaceOnUse"><path
         id="path16"
         d="M 0,140 H 89.687 V 0 H 0 Z" /></clipPath></defs><g
     transform="matrix(1.3333333,0,0,-1.3333333,0,186.66667)"
     id="g10"><g
       id="g12"><g
         clip-path="url(#clipPath18)"
         id="g14"><g
           transform="translate(44.8443,139.9999)"
           id="g20"><path
             id="path22"
             style="fill:#33aee5;fill-opacity:1;fill-rule:nonzero;stroke:none"
             d="m 0,0 c -24.727,0 -44.844,-20.017 -44.844,-44.622 0,-14.471 7.666,-31.289 14.096,-42.849 C -18.883,-108.797 0.148,-140 0.148,-140 c 0,0 17.971,30.958 29.975,52.528 9.768,17.551 14.72,31.968 14.72,42.85 C 44.843,-20.017 24.726,0 0,0" /></g><g
           transform="translate(16.1934,75.5829)"
           id="g24"><path
             id="path26"
             style="fill:#ffffff;fill-opacity:1;fill-rule:nonzero;stroke:none"
             d="m 0,0 h 57.251 c -0.04,-0.805 0.129,-1.636 0,-2.491 H 0 Z m 0,6.229 h 57.251 c -0.04,-0.805 0.129,-1.637 0,-2.492 H 0 Z m 0,6.228 h 57.251 c -0.04,-0.805 0.129,-1.636 0,-2.492 H 0 Z m 28.799,-88.04 c 0,0 9.143,15.752 18.743,32.612 H 28.65 v 2.491 h 20.308 c 0.709,1.246 1.416,2.493 2.121,3.737 l 1.409,2.492 c 2.185,3.865 4.316,7.657 6.285,11.196 1.454,2.612 2.788,5.145 4.028,7.617 V 34.878 H -5.5 V -16.61 c 1.141,-2.277 2.29,-4.443 3.403,-6.444 11.865,-21.326 30.896,-52.529 30.896,-52.529" /></g><g
           transform="translate(73.4449,88.0395)"
           id="g28"><path
             id="path30"
             style="fill:#1d1d1b;fill-opacity:1;fill-rule:nonzero;stroke:none"
             d="M 0,0 H -57.251 V -2.491 H 0 C 0.128,-1.636 -0.041,-0.805 0,0" /></g><g
           transform="translate(73.4449,75.5829)"
           id="g32"><path
             id="path34"
             style="fill:#1d1d1b;fill-opacity:1;fill-rule:nonzero;stroke:none"
             d="M 0,0 H -57.251 V -2.491 H 0 C 0.128,-1.636 -0.041,-0.805 0,0" /></g><g
           transform="translate(73.4356,69.3544)"
           id="g36"><path
             id="path38"
             style="fill:#1d1d1b;fill-opacity:1;fill-rule:nonzero;stroke:none"
             d="M 0,0 H -57.242 V -2.491 H 0 C 0.153,-1.636 -0.049,-0.804 0,0" /></g><g
           transform="translate(73.4449,81.8114)"
           id="g40"><path
             id="path42"
             style="fill:#1d1d1b;fill-opacity:1;fill-rule:nonzero;stroke:none"
             d="M 0,0 H -57.251 V -2.492 H 0 C 0.128,-1.636 -0.041,-0.805 0,0" /></g><g
           transform="translate(45.3911,62.765)"
           id="g44"><path
             id="path46"
             style="fill:#1d1d1b;fill-opacity:1;fill-rule:nonzero;stroke:none"
             d="M 0,0 H -29.198 V -2.491 H 0 C 0.065,-1.636 -0.021,-0.805 0,0" /></g><g
           transform="translate(44.8438,32.6117)"
           id="g48"><path
             id="path50"
             style="fill:#1d1d1b;fill-opacity:1;fill-rule:nonzero;stroke:none"
             d="m 0,0 h 18.891 c 0.472,0.829 0.944,1.659 1.417,2.491 H 0 Z" /></g><g
           transform="translate(55.9077,38.6459)"
           id="g52"><path
             id="path54"
             style="fill:#d5dd24;fill-opacity:1;fill-rule:nonzero;stroke:none"
             d="m 0,0 c -0.447,0 -0.855,0.069 -1.22,0.208 -0.818,0.311 -1.363,0.981 -1.495,1.838 -0.253,1.635 0.96,3.691 3.243,5.501 1.15,0.911 2.572,1.651 3.947,2.367 1.679,0.875 3.769,1.963 3.769,2.791 0,0.2 -0.047,0.279 -0.22,0.364 C 6.865,13.641 2.936,12.754 -0.585,10.06 -2.201,8.824 -4.91,6.252 -4.91,2.906 h -2 c 0,3.117 1.814,6.222 5.11,8.742 3.725,2.85 8.529,4.293 10.71,3.214 0.86,-0.425 1.334,-1.191 1.334,-2.157 C 10.244,10.664 7.89,9.438 5.398,8.14 4.106,7.467 2.771,6.772 1.771,5.979 -0.236,4.39 -0.83,2.938 -0.739,2.351 -0.715,2.201 -0.66,2.134 -0.508,2.077 0.287,1.775 2.827,2.25 7.308,5.951 L 8.581,4.409 C 5.085,1.521 2.105,0 0,0" /></g></g></g></g></svg>