<?xml version="1.0" encoding="UTF-8" standalone="no"?>
<svg
   xmlns:dc="http://purl.org/dc/elements/1.1/"
   xmlns:cc="http://creativecommons.org/ns#"
   xmlns:rdf="http://www.w3.org/1999/02/22-rdf-syntax-ns#"
   xmlns:svg="http://www.w3.org/2000/svg"
   xmlns="http://www.w3.org/2000/svg"
   viewBox="0 0 119.58333 186.66667"
   height="186.66667"
   width="119.58333"
   xml:space="preserve"
   id="svg2"
   version="1.1"><metadata
     id="metadata8"><rdf:RDF><cc:Work
         rdf:about=""><dc:format>image/svg+xml</dc:format><dc:type
           rdf:resource="http://purl.org/dc/dcmitype/StillImage" /></cc:Work></rdf:RDF></metadata><defs
     id="defs6"><clipPath
       id="clipPath18"
       clipPathUnits="userSpaceOnUse"><path
         id="path16"
         d="M 0,140 H 89.687 V 0 H 0 Z" /></clipPath></defs><g
     transform="matrix(1.3333333,0,0,-1.3333333,0,186.66667)"
     id="g10"><g
       id="g12"><g
         clip-path="url(#clipPath18)"
         id="g14"><g
           transform="translate(44.843,139.9999)"
           id="g20"><path
             id="path22"
             style="fill:#33aee5;fill-opacity:1;fill-rule:nonzero;stroke:none"
             d="m 0,0 c 24.728,0 44.844,-20.017 44.844,-44.622 0,-14.471 -7.666,-31.289 -14.096,-42.849 C 18.883,-108.797 -0.148,-140 -0.148,-140 c 0,0 -17.97,30.958 -29.974,52.528 -9.769,17.551 -14.721,31.968 -14.721,42.85 C -44.843,-20.017 -24.726,0 0,0" /></g><g
           transform="translate(32.7912,63.1405)"
           id="g24"><path
             id="path26"
             style="fill:#ffffff;fill-opacity:1;fill-rule:nonzero;stroke:none"
             d="m 0,0 -12.058,12.058 2.259,2.259 9.315,-9.315 12.755,18.945 2.652,-1.784 z m 27.793,-12.239 v 50.034 c 0,0.688 -0.558,1.246 -1.245,1.246 h -50.034 c -0.688,0 -1.246,-0.558 -1.246,-1.246 V 2.494 c 1.893,-4.152 4.108,-8.52 6.661,-13.107 0.523,-0.938 1.06,-1.9 1.603,-2.871 h 43.016 c 0.687,0 1.245,0.557 1.245,1.245" /></g><g
           transform="translate(32.3074,68.1425)"
           id="g28"><path
             id="path30"
             style="fill:#1d1d1b;fill-opacity:1;fill-rule:nonzero;stroke:none"
             d="M 0,0 -9.315,9.315 -11.574,7.056 0.484,-5.002 15.407,17.161 12.755,18.945 Z" /></g><g
           transform="translate(59.3391,39.8686)"
           id="g32"><path
             id="path34"
             style="fill:#ffffff;fill-opacity:1;fill-rule:nonzero;stroke:none"
             d="m 0,0 h -37.506 c 10.917,-19.291 22.862,-39.869 22.862,-39.869 0,0 7.424,12.173 15.89,26.509 V -1.246 C 1.246,-0.558 0.687,0 0,0" /></g><g
           transform="translate(37.8176,139.4482)"
           id="g36"><path
             id="path38"
             style="fill:#ffffff;fill-opacity:1;fill-rule:nonzero;stroke:none"
             d="m 0,0 c -3.684,-0.579 -7.22,-1.605 -10.55,-3.022 l 5.089,-5.089 z" /></g><g
           transform="translate(9.2556,112.0453)"
           id="g40"><path
             id="path42"
             style="fill:#ffffff;fill-opacity:1;fill-rule:nonzero;stroke:none"
             d="m 0,0 h 50.034 c 0.688,0 1.246,0.558 1.246,1.246 v 23.883 c -4.887,1.823 -10.174,2.826 -15.693,2.826 -0.964,0 -1.919,-0.041 -2.869,-0.101 L 23.585,14.289 14.947,22.927 C 8.463,19.566 2.904,14.679 -1.246,8.741 V 1.246 C -1.246,0.558 -0.688,0 0,0" /></g><g
           transform="translate(32.3562,131.3368)"
           id="g44"><path
             id="path46"
             style="fill:#1d1d1b;fill-opacity:1;fill-rule:nonzero;stroke:none"
             d="M 0,0 -5.089,5.089 C -6.133,4.645 -7.151,4.155 -8.153,3.636 L 0.484,-5.002 9.617,8.562 C 8.214,8.474 6.827,8.326 5.461,8.111 Z" /></g><g
           transform="translate(77.2405,126.183)"
           id="g48"><path
             id="path50"
             style="fill:#d5dd24;fill-opacity:1;fill-rule:nonzero;stroke:none"
             d="m 0,0 -1.381,-1.1 c -7.79,-6.2 -14.561,-13.583 -20.067,-21.879 l -7.385,-11.127 c -2.311,-3.482 1.193,-7.885 5.106,-6.415 l 12.5,4.7 c 8.222,3.091 15.969,7.303 23.029,12.509 C 10.273,-14.354 6.054,-6.301 0,0" /></g><g
           transform="translate(57.3362,87.1)"
           id="g52"><path
             id="path54"
             style="fill:#1d1d1b;fill-opacity:1;fill-rule:nonzero;stroke:none"
             d="m 0,0 -6.67,8.38 -6.351,-9.569 c -1.027,-1.549 0.531,-3.506 2.271,-2.853 z" /></g></g></g></g></svg>