<?xml version="1.0" encoding="UTF-8" standalone="no"?>
<svg
   xmlns:dc="http://purl.org/dc/elements/1.1/"
   xmlns:cc="http://creativecommons.org/ns#"
   xmlns:rdf="http://www.w3.org/1999/02/22-rdf-syntax-ns#"
   xmlns:svg="http://www.w3.org/2000/svg"
   xmlns="http://www.w3.org/2000/svg"
   viewBox="0 0 119.58333 186.66667"
   height="186.66667"
   width="119.58333"
   xml:space="preserve"
   id="svg2"
   version="1.1"><metadata
     id="metadata8"><rdf:RDF><cc:Work
         rdf:about=""><dc:format>image/svg+xml</dc:format><dc:type
           rdf:resource="http://purl.org/dc/dcmitype/StillImage" /></cc:Work></rdf:RDF></metadata><defs
     id="defs6"><clipPath
       id="clipPath18"
       clipPathUnits="userSpaceOnUse"><path
         id="path16"
         d="M 0,140 H 89.687 V 0 H 0 Z" /></clipPath></defs><g
     transform="matrix(1.3333333,0,0,-1.3333333,0,186.66667)"
     id="g10"><g
       id="g12"><g
         clip-path="url(#clipPath18)"
         id="g14"><g
           transform="translate(44.8444,139.9999)"
           id="g20"><path
             id="path22"
             style="fill:#1d1d1b;fill-opacity:1;fill-rule:nonzero;stroke:none"
             d="m 0,0 c -24.728,0 -44.844,-20.017 -44.844,-44.622 0,-14.471 7.666,-31.289 14.096,-42.849 C -18.883,-108.797 0.148,-140 0.148,-140 c 0,0 17.97,30.958 29.975,52.528 9.768,17.551 14.72,31.968 14.72,42.85 C 44.843,-20.017 24.726,0 0,0" /></g><g
           transform="translate(30.6965,68.0282)"
           id="g24"><path
             id="path26"
             style="fill:#d5dd24;fill-opacity:1;fill-rule:nonzero;stroke:none"
             d="m 0,0 v 26.406 c 0,7.813 6.334,14.147 14.147,14.147 7.814,0 14.147,-6.334 14.147,-14.147 V 0 h 7.19 v 26.569 c 0,11.784 -9.552,21.337 -21.337,21.337 -11.784,0 -21.336,-9.553 -21.336,-21.337 L -7.189,0 Z" /></g><g
           transform="translate(78.4762,76.14)"
           id="g28"><path
             id="path30"
             style="fill:#33aee5;fill-opacity:1;fill-rule:nonzero;stroke:none"
             d="m 0,0 c 0,2.425 -1.966,4.392 -4.391,4.392 h -58.483 c -2.425,0 -4.391,-1.967 -4.391,-4.392 v -18.189 c 0.97,-1.901 1.94,-3.724 2.885,-5.422 11.865,-21.327 30.897,-52.529 30.897,-52.529 0,0 17.97,30.958 29.974,52.528 1.249,2.245 2.418,4.437 3.509,6.579 z" /></g><g
           transform="translate(51.8244,52.975)"
           id="g32"><path
             id="path34"
             style="fill:#1d1d1b;fill-opacity:1;fill-rule:nonzero;stroke:none"
             d="m 0,0 c 0,4.346 -3.972,7.764 -8.483,6.824 -2.663,-0.555 -4.805,-2.724 -5.335,-5.392 -0.534,-2.679 0.47,-5.154 2.285,-6.716 0.645,-0.555 1.062,-1.33 1.062,-2.181 v -2.443 c 0,-1.89 1.415,-3.584 3.303,-3.683 2.013,-0.105 3.678,1.496 3.678,3.486 v 2.647 c 0,0.837 0.397,1.608 1.035,2.151 C -0.954,-4.027 0,-2.126 0,0" /></g></g></g></g></svg>