<?xml version="1.0" encoding="UTF-8" standalone="no"?>
<svg
   xmlns:dc="http://purl.org/dc/elements/1.1/"
   xmlns:cc="http://creativecommons.org/ns#"
   xmlns:rdf="http://www.w3.org/1999/02/22-rdf-syntax-ns#"
   xmlns:svg="http://www.w3.org/2000/svg"
   xmlns="http://www.w3.org/2000/svg"
   viewBox="0 0 119.58333 186.66667"
   height="186.66667"
   width="119.58333"
   xml:space="preserve"
   id="svg2"
   version="1.1"><metadata
     id="metadata8"><rdf:RDF><cc:Work
         rdf:about=""><dc:format>image/svg+xml</dc:format><dc:type
           rdf:resource="http://purl.org/dc/dcmitype/StillImage" /></cc:Work></rdf:RDF></metadata><defs
     id="defs6"><clipPath
       id="clipPath18"
       clipPathUnits="userSpaceOnUse"><path
         id="path16"
         d="M 0,140 H 89.688 V 0 H 0 Z" /></clipPath></defs><g
     transform="matrix(1.3333333,0,0,-1.3333333,0,186.66667)"
     id="g10"><g
       id="g12"><g
         clip-path="url(#clipPath18)"
         id="g14"><g
           transform="translate(44.8442,139.9999)"
           id="g20"><path
             id="path22"
             style="fill:#d5dd24;fill-opacity:1;fill-rule:nonzero;stroke:none"
             d="m 0,0 c -24.727,0 -44.844,-20.017 -44.844,-44.622 0,-14.471 7.666,-31.289 14.096,-42.849 C -18.883,-108.797 0.148,-140 0.148,-140 c 0,0 17.971,30.958 29.975,52.528 9.768,17.551 14.72,31.968 14.72,42.85 C 44.843,-20.017 24.726,0 0,0" /></g><g
           transform="translate(44.8442,139.9999)"
           id="g24"><path
             id="path26"
             style="fill:#33aee5;fill-opacity:1;fill-rule:nonzero;stroke:none"
             d="m 0,0 c -24.727,0 -44.844,-20.017 -44.844,-44.622 0,-0.073 0.007,-0.148 0.007,-0.222 h 89.674 c 0,0.073 0.006,0.15 0.006,0.222 C 44.843,-20.017 24.727,0 0,0" /></g><g
           transform="translate(45.0244,129.6068)"
           id="g28"><path
             id="path30"
             style="fill:#ffffff;fill-opacity:1;fill-rule:nonzero;stroke:none"
             d="m 0,0 h -0.647 v -13.27 h 1.002 v 7.198 c 3.266,1.508 6.531,-2.742 9.797,-0.391 v 6.278 C 6.768,-2.621 3.384,2.012 0,0" /></g><g
           transform="translate(0.0068,95.1562)"
           id="g32"><path
             id="path34"
             style="fill:#1d1d1b;fill-opacity:1;fill-rule:nonzero;stroke:none"
             d="m 0,0 h 89.675 c 0,0.073 0.006,0.149 0.006,0.222 0,5.786 -1.125,11.313 -3.148,16.391 H 3.141 C 1.118,11.535 -0.007,6.008 -0.007,0.222 -0.007,0.149 0,0.074 0,0" /></g><g
           transform="translate(44.8437,117.5824)"
           id="g36"><path
             id="path38"
             style="fill:#ffffff;fill-opacity:1;fill-rule:nonzero;stroke:none"
             d="m 0,0 -28.804,-18.689 v -3.737 -44.844 h 57.608 v 44.844 3.737 z" /></g><g
           transform="translate(89.6816,95.1562)"
           id="g40"><path
             id="path42"
             style="fill:#ffffff;fill-opacity:1;fill-rule:nonzero;stroke:none"
             d="m 0,0 h -89.675 c 0.078,-14.422 7.693,-31.126 14.09,-42.627 0.405,-0.727 0.819,-1.468 1.239,-2.217 h 58.396 c 0.417,0.748 0.83,1.488 1.235,2.216 C -5.011,-25.195 -0.066,-10.857 0,0" /></g><path
           id="path44"
           style="fill:#1d1d1b;fill-opacity:1;fill-rule:nonzero;stroke:none"
           d="M 73.647,50.312 H 16.04 v 44.844 h 57.607 z" /><path
           id="path46"
           style="fill:#ffffff;fill-opacity:1;fill-rule:nonzero;stroke:none"
           d="M 18.531,51.558 H 25.35 V 96.402 H 18.531 Z" /><path
           id="path48"
           style="fill:#ffffff;fill-opacity:1;fill-rule:nonzero;stroke:none"
           d="m 27.692,51.558 h 6.819 v 44.844 h -6.819 z" /><path
           id="path50"
           style="fill:#ffffff;fill-opacity:1;fill-rule:nonzero;stroke:none"
           d="m 36.853,51.558 h 6.819 v 44.844 h -6.819 z" /><path
           id="path52"
           style="fill:#ffffff;fill-opacity:1;fill-rule:nonzero;stroke:none"
           d="m 46.015,51.558 h 6.819 v 44.844 h -6.819 z" /><path
           id="path54"
           style="fill:#ffffff;fill-opacity:1;fill-rule:nonzero;stroke:none"
           d="m 64.337,51.558 h 6.819 v 44.844 h -6.819 z" /><path
           id="path56"
           style="fill:#ffffff;fill-opacity:1;fill-rule:nonzero;stroke:none"
           d="m 55.176,51.558 h 6.819 v 44.844 h -6.819 z" /><g
           transform="translate(73.6474,61.5233)"
           id="g58"><path
             id="path60"
             style="fill:#1d1d1b;fill-opacity:1;fill-rule:nonzero;stroke:none"
             d="m 0,0 h -57.607 l -3.438,-6.244 c 0.502,-0.942 1.002,-1.866 1.494,-2.75 2.369,-4.259 5.026,-8.912 7.758,-13.631 h 45.451 c 2.663,4.702 5.28,9.351 7.661,13.629 0.623,1.119 1.225,2.224 1.808,3.316 z" /></g><g
           transform="translate(47.9585,103.8778)"
           id="g62"><path
             id="path64"
             style="fill:#33aee5;fill-opacity:1;fill-rule:nonzero;stroke:none"
             d="m 0,0 c 0,-1.72 -1.395,-3.114 -3.114,-3.114 -1.72,0 -3.115,1.394 -3.115,3.114 0,1.72 1.395,3.114 3.115,3.114 C -1.395,3.114 0,1.72 0,0" /></g><path
           id="path66"
           style="fill:#ffffff;fill-opacity:1;fill-rule:nonzero;stroke:none"
           d="M 10.693,78.238 H 5.346 v 12.457 h 5.347 z m 68.301,12.457 h 5.347 V 78.238 h -5.347 z" /><path
           id="path68"
           style="fill:#33aee5;fill-opacity:1;fill-rule:nonzero;stroke:none"
           d="m 5.347,78.238 h 5.347 V 90.695 H 5.347 Z" /><g
           transform="translate(10.6933,73.9799)"
           id="g70"><path
             id="path72"
             style="fill:#33aee5;fill-opacity:1;fill-rule:nonzero;stroke:none"
             d="m 0,0 h -5.347 v -2.978 c 1.261,-3.275 2.655,-6.46 4.098,-9.479 l 1.249,0 z" /></g><path
           id="path74"
           style="fill:#33aee5;fill-opacity:1;fill-rule:nonzero;stroke:none"
           d="M 84.341,90.695 H 78.994 V 78.238 h 5.347 z" /><g
           transform="translate(84.3408,73.9799)"
           id="g76"><path
             id="path78"
             style="fill:#33aee5;fill-opacity:1;fill-rule:nonzero;stroke:none"
             d="m 0,0 h -5.347 v -12.457 h 0.688 C -2.863,-8.796 -1.314,-5.3 0,-1.962 Z" /></g></g></g></g></svg>