<?xml version="1.0" encoding="UTF-8" standalone="no"?>
<svg
   xmlns:dc="http://purl.org/dc/elements/1.1/"
   xmlns:cc="http://creativecommons.org/ns#"
   xmlns:rdf="http://www.w3.org/1999/02/22-rdf-syntax-ns#"
   xmlns:svg="http://www.w3.org/2000/svg"
   xmlns="http://www.w3.org/2000/svg"
   viewBox="0 0 119.58333 186.66667"
   height="186.66667"
   width="119.58333"
   xml:space="preserve"
   id="svg2"
   version="1.1"><metadata
     id="metadata8"><rdf:RDF><cc:Work
         rdf:about=""><dc:format>image/svg+xml</dc:format><dc:type
           rdf:resource="http://purl.org/dc/dcmitype/StillImage" /></cc:Work></rdf:RDF></metadata><defs
     id="defs6"><clipPath
       id="clipPath18"
       clipPathUnits="userSpaceOnUse"><path
         id="path16"
         d="M 0,140 H 89.687 V 0 H 0 Z" /></clipPath></defs><g
     transform="matrix(1.3333333,0,0,-1.3333333,0,186.66667)"
     id="g10"><g
       id="g12"><g
         clip-path="url(#clipPath18)"
         id="g14"><g
           transform="translate(44.8443,139.9999)"
           id="g20"><path
             id="path22"
             style="fill:#1d1d1b;fill-opacity:1;fill-rule:nonzero;stroke:none"
             d="m 0,0 c -24.728,0 -44.844,-20.017 -44.844,-44.622 0,-14.471 7.666,-31.289 14.096,-42.849 C -18.883,-108.797 0.148,-140 0.148,-140 c 0,0 17.97,30.958 29.975,52.528 9.768,17.551 14.72,31.968 14.72,42.85 C 44.843,-20.017 24.726,0 0,0" /></g><g
           transform="translate(47.7232,62.6811)"
           id="g24"><path
             id="path26"
             style="fill:#ffffff;fill-opacity:1;fill-rule:nonzero;stroke:none"
             d="M 0,0 -2.879,0.293 -5.759,0 V -28.546 H 0 Z" /></g><g
           transform="translate(73.0245,93.6464)"
           id="g28"><path
             id="path30"
             style="fill:#33aee5;fill-opacity:1;fill-rule:nonzero;stroke:none"
             d="m 0,0 c 0,-15.564 -12.617,-28.181 -28.181,-28.181 -15.564,0 -28.181,12.617 -28.181,28.181 0,15.563 12.617,28.181 28.181,28.181 C -12.617,28.181 0,15.563 0,0" /></g><g
           transform="translate(41.964,53.8056)"
           id="g32"><path
             id="path34"
             style="fill:#d5dd24;fill-opacity:1;fill-rule:nonzero;stroke:none"
             d="m 0,0 c -2.259,-2.241 -4.125,-5.102 -4.125,-8.062 v -33.903 c 4.245,-7.071 7.153,-11.841 7.153,-11.841 0,0 2.772,4.774 6.856,11.866 v 33.878 c 0,2.96 -1.865,5.821 -4.125,8.062 z" /></g><path
           id="path36"
           style="fill:#ffffff;fill-opacity:1;fill-rule:nonzero;stroke:none"
           d="m 40.24,84.439 h 9.207 v 18.414 H 40.24 Z" /><path
           id="path38"
           style="fill:#1d1d1b;fill-opacity:1;fill-rule:nonzero;stroke:none"
           d="m 21.827,84.439 h 9.207 v 18.414 h -9.207 z" /><path
           id="path40"
           style="fill:#1d1d1b;fill-opacity:1;fill-rule:nonzero;stroke:none"
           d="M 67.86,102.853 H 58.653 V 84.439 h 9.207 z" /><g
           transform="translate(40.2403,122.3012)"
           id="g42"><path
             id="path44"
             style="fill:#1d1d1b;fill-opacity:1;fill-rule:nonzero;stroke:none"
             d="M 0,0 V -10.242 H 9.207 V 0" /></g><g
           transform="translate(22.4112,112.0595)"
           id="g46"><path
             id="path48"
             style="fill:#1d1d1b;fill-opacity:1;fill-rule:nonzero;stroke:none"
             d="M 0,0 H 8.623 V 7.119" /></g><g
           transform="translate(58.6539,119.1776)"
           id="g50"><path
             id="path52"
             style="fill:#1d1d1b;fill-opacity:1;fill-rule:nonzero;stroke:none"
             d="M 0,0 V -7.118 H 8.622" /></g><g
           transform="translate(49.4474,64.9911)"
           id="g54"><path
             id="path56"
             style="fill:#1d1d1b;fill-opacity:1;fill-rule:nonzero;stroke:none"
             d="M 0,0 V 10.242 H -9.207 V 0" /></g><g
           transform="translate(31.0338,68.1147)"
           id="g58"><path
             id="path60"
             style="fill:#1d1d1b;fill-opacity:1;fill-rule:nonzero;stroke:none"
             d="M 0,0 V 7.118 H -8.623" /></g><g
           transform="translate(67.276,75.2328)"
           id="g62"><path
             id="path64"
             style="fill:#1d1d1b;fill-opacity:1;fill-rule:nonzero;stroke:none"
             d="M 0,0 H -8.622 V -7.118" /></g><g
           transform="translate(28.6153,77.4179)"
           id="g66"><path
             id="path68"
             style="fill:#ffffff;fill-opacity:1;fill-rule:nonzero;stroke:none"
             d="m 0,0 c -4.646,3.872 -7.542,9.958 -7.69,16.229 -0.113,3.133 0.482,6.291 1.629,9.231 1.17,2.937 2.965,5.62 5.181,7.877 2.255,2.219 4.941,4.01 7.876,5.184 2.94,1.145 6.098,1.744 9.233,1.629 6.27,-0.148 12.358,-3.045 16.228,-7.693 -4.613,3.891 -10.462,5.942 -16.228,5.75 C 10.47,38.024 4.884,35.628 0.88,31.576 -3.174,27.574 -5.57,21.988 -5.753,16.229 -5.947,10.46 -3.894,4.611 0,0" /></g><g
           transform="translate(44.8438,65.4652)"
           id="g70"><path
             id="path72"
             style="fill:#ffffff;fill-opacity:1;fill-rule:nonzero;stroke:none"
             d="m 0,0 c -15.564,0 -28.181,12.617 -28.181,28.181 0,15.564 12.617,28.181 28.181,28.181 15.563,0 28.181,-12.617 28.181,-28.181 C 28.181,12.617 15.563,0 0,0 m 0,61.814 c -18.575,0 -33.633,-15.058 -33.633,-33.633 0,-18.575 15.058,-33.633 33.633,-33.633 18.575,0 33.633,15.058 33.633,33.633 0,18.575 -15.058,33.633 -33.633,33.633" /></g></g></g></g></svg>