<?xml version="1.0" encoding="UTF-8" standalone="no"?>
<svg
   xmlns:dc="http://purl.org/dc/elements/1.1/"
   xmlns:cc="http://creativecommons.org/ns#"
   xmlns:rdf="http://www.w3.org/1999/02/22-rdf-syntax-ns#"
   xmlns:svg="http://www.w3.org/2000/svg"
   xmlns="http://www.w3.org/2000/svg"
   viewBox="0 0 119.58347 186.66667"
   height="186.66667"
   width="119.58347"
   xml:space="preserve"
   id="svg2"
   version="1.1"><metadata
     id="metadata8"><rdf:RDF><cc:Work
         rdf:about=""><dc:format>image/svg+xml</dc:format><dc:type
           rdf:resource="http://purl.org/dc/dcmitype/StillImage" /></cc:Work></rdf:RDF></metadata><defs
     id="defs6"><clipPath
       id="clipPath18"
       clipPathUnits="userSpaceOnUse"><path
         id="path16"
         d="M 0,140 H 89.688 V 0 H 0 Z" /></clipPath></defs><g
     transform="matrix(1.3333333,0,0,-1.3333333,0,186.66667)"
     id="g10"><g
       id="g12"><g
         clip-path="url(#clipPath18)"
         id="g14"><g
           transform="translate(44.8446,139.9999)"
           id="g20"><path
             id="path22"
             style="fill:#33aee5;fill-opacity:1;fill-rule:nonzero;stroke:none"
             d="m 0,0 c -24.728,0 -44.844,-20.017 -44.844,-44.622 0,-14.471 7.666,-31.289 14.096,-42.849 C -18.883,-108.797 0.148,-140 0.148,-140 c 0,0 17.97,30.959 29.975,52.528 9.768,17.551 14.72,31.968 14.72,42.85 C 44.843,-20.017 24.726,0 0,0" /></g><g
           transform="translate(44.8436,132.8593)"
           id="g24"><path
             id="path26"
             style="fill:#1d1d1b;fill-opacity:1;fill-rule:nonzero;stroke:none"
             d="m 0,0 h -24.287 c -8.198,-5.278 -14.567,-13.138 -17.922,-22.422 h 36.66 c -0.04,-0.804 0.129,-1.636 0,-2.491 h -37.472 c -0.362,-1.226 -0.68,-2.47 -0.937,-3.737 h 38.409 c -0.04,-0.805 0.129,-1.636 0,-2.491 h -38.834 c -0.177,-1.231 -0.305,-2.477 -0.378,-3.737 h 39.212 c -0.04,-0.805 0.129,-1.636 0,-2.492 h -39.292 c 0,-0.037 -0.003,-0.073 -0.003,-0.111 0,-1.192 0.07,-2.405 0.169,-3.625 h 39.116 c -0.048,-0.805 0.154,-1.636 0,-2.492 h -38.857 c 0.178,-1.358 0.409,-2.725 0.686,-4.098 h 10.127 c -0.02,-0.805 0.066,-1.636 0,-2.491 h -9.578 c 2.11,-8.826 5.941,-17.708 9.777,-25.171 h 19.562 c -0.472,-0.832 -0.945,-1.663 -1.417,-2.492 h -16.84 c 0.454,-0.848 0.907,-1.679 1.352,-2.48 5.112,-9.189 11.553,-20.207 17.23,-29.777 L 0,-109.875 Z" /></g><g
           transform="translate(39.2948,107.9462)"
           id="g28"><path
             id="path30"
             style="fill:#ffffff;fill-opacity:1;fill-rule:nonzero;stroke:none"
             d="M 0,0 C 0.128,0.855 -0.041,1.687 0,2.491 H -36.66 C -36.956,1.672 -37.223,0.84 -37.472,0 Z" /></g><g
           transform="translate(39.2948,95.4897)"
           id="g32"><path
             id="path34"
             style="fill:#ffffff;fill-opacity:1;fill-rule:nonzero;stroke:none"
             d="M 0,0 C 0.128,0.855 -0.041,1.687 0,2.491 H -39.212 C -39.26,1.666 -39.29,0.836 -39.292,0 Z" /></g><g
           transform="translate(39.285,89.2616)"
           id="g36"><path
             id="path38"
             style="fill:#ffffff;fill-opacity:1;fill-rule:nonzero;stroke:none"
             d="M 0,0 C 0.153,0.855 -0.048,1.687 0,2.491 H -39.116 C -39.049,1.665 -38.965,0.835 -38.857,0 Z" /></g><g
           transform="translate(39.2948,101.7182)"
           id="g40"><path
             id="path42"
             style="fill:#ffffff;fill-opacity:1;fill-rule:nonzero;stroke:none"
             d="M 0,0 C 0.128,0.855 -0.041,1.687 0,2.491 H -38.409 C -38.576,1.669 -38.714,0.837 -38.834,0 Z" /></g><g
           transform="translate(11.2411,82.6718)"
           id="g44"><path
             id="path46"
             style="fill:#ffffff;fill-opacity:1;fill-rule:nonzero;stroke:none"
             d="M 0,0 C 0.065,0.855 -0.021,1.687 0,2.491 H -10.128 C -9.961,1.662 -9.778,0.832 -9.579,0 Z" /></g><g
           transform="translate(10.6933,67.4662)"
           id="g48"><path
             id="path50"
             style="fill:#1d1d1b;fill-opacity:1;fill-rule:nonzero;stroke:none"
             d="M 0,0 H 2.052 C 1.618,0.81 1.183,1.643 0.746,2.492 H 0 Z" /></g><g
           transform="translate(29.5844,67.4662)"
           id="g52"><path
             id="path54"
             style="fill:#1d1d1b;fill-opacity:1;fill-rule:nonzero;stroke:none"
             d="M 0,0 C 0.472,0.829 0.945,1.659 1.417,2.492 H -18.145 C -17.708,1.643 -17.273,0.81 -16.839,0 Z" /></g><g
           transform="translate(16.1937,75.5829)"
           id="g56"><path
             id="path58"
             style="fill:#d5dd24;fill-opacity:1;fill-rule:nonzero;stroke:none"
             d="m 0,0 h 57.251 c -0.041,-0.805 0.129,-1.636 0,-2.491 H 0 Z m 0,6.229 h 57.251 c -0.041,-0.805 0.129,-1.637 0,-2.492 H 0 Z m 0,6.228 h 57.251 c -0.041,-0.805 0.129,-1.636 0,-2.492 H 0 Z m 0,12.456 h 14.313 c -0.01,-0.805 0.032,-1.636 0,-2.491 H 0 Z M 28.799,-75.583 c 0,0 9.143,15.752 18.742,32.612 H 28.65 v 2.491 h 20.308 c 0.709,1.246 1.416,2.493 2.121,3.737 l 1.409,2.492 c 2.185,3.865 4.316,7.657 6.285,11.196 1.454,2.612 2.788,5.145 4.028,7.617 V 34.878 H -5.5 V -16.61 c 1.141,-2.277 2.29,-4.443 3.403,-6.444 11.864,-21.326 30.896,-52.529 30.896,-52.529" /></g><g
           transform="translate(73.4452,88.0395)"
           id="g60"><path
             id="path62"
             style="fill:#1d1d1b;fill-opacity:1;fill-rule:nonzero;stroke:none"
             d="M 0,0 H -57.251 V -2.491 H 0 C 0.128,-1.636 -0.041,-0.805 0,0" /></g><g
           transform="translate(73.4452,75.5829)"
           id="g64"><path
             id="path66"
             style="fill:#1d1d1b;fill-opacity:1;fill-rule:nonzero;stroke:none"
             d="M 0,0 H -57.251 V -2.491 H 0 C 0.128,-1.636 -0.041,-0.805 0,0" /></g><g
           transform="translate(73.4354,69.3544)"
           id="g68"><path
             id="path70"
             style="fill:#1d1d1b;fill-opacity:1;fill-rule:nonzero;stroke:none"
             d="M 0,0 H -57.242 V -2.491 H 0 C 0.153,-1.636 -0.048,-0.804 0,0" /></g><g
           transform="translate(30.5062,100.496)"
           id="g72"><path
             id="path74"
             style="fill:#1d1d1b;fill-opacity:1;fill-rule:nonzero;stroke:none"
             d="M 0,0 H -14.313 V -2.491 H 0 C 0.032,-1.636 -0.01,-0.805 0,0" /></g><g
           transform="translate(73.4452,81.8114)"
           id="g76"><path
             id="path78"
             style="fill:#1d1d1b;fill-opacity:1;fill-rule:nonzero;stroke:none"
             d="M 0,0 H -57.251 V -2.492 H 0 C 0.128,-1.636 -0.041,-0.805 0,0" /></g><g
           transform="translate(45.3915,62.7651)"
           id="g80"><path
             id="path82"
             style="fill:#1d1d1b;fill-opacity:1;fill-rule:nonzero;stroke:none"
             d="M 0,0 H -29.198 V -2.491 H 0 C 0.065,-1.636 -0.021,-0.805 0,0" /></g><g
           transform="translate(44.8441,32.6117)"
           id="g84"><path
             id="path86"
             style="fill:#1d1d1b;fill-opacity:1;fill-rule:nonzero;stroke:none"
             d="m 0,0 h 18.891 c 0.471,0.829 0.944,1.659 1.417,2.491 H 0 Z" /></g><g
           transform="translate(50.3441,78.1703)"
           id="g88"><path
             id="path90"
             style="fill:#ffffff;fill-opacity:1;fill-rule:nonzero;stroke:none"
             d="m 0,0 h 14.313 c -0.011,-0.805 0.032,-1.636 0,-2.491 H 0 Z M 16.423,-40.223 H 0 v 2.492 h 17.833 c 0.779,1.377 1.552,2.745 2.314,4.098 H 0 v 2.491 h 21.548 c 0.711,1.267 1.41,2.516 2.092,3.737 H 0 v 2.492 h 25.021 c 0.696,1.263 1.364,2.507 2.011,3.737 H 0 v 2.491 h 28.321 c 0.641,1.265 1.249,2.509 1.835,3.737 H 0 v 2.491 h 31.32 c 3.824,8.402 6.285,15.895 7.371,22.422 H -5.5 v -87.891 c 0.089,-0.147 0.148,-0.244 0.148,-0.244 0,0 11.166,19.236 21.775,37.947" /></g><g
           transform="translate(50.3441,63.2221)"
           id="g92"><path
             id="path94"
             style="fill:#1d1d1b;fill-opacity:1;fill-rule:nonzero;stroke:none"
             d="m 0,0 h 30.156 c 0.4,0.838 0.79,1.671 1.164,2.492 H 0 Z" /></g><g
           transform="translate(50.3441,50.7655)"
           id="g96"><path
             id="path98"
             style="fill:#1d1d1b;fill-opacity:1;fill-rule:nonzero;stroke:none"
             d="m 0,0 h 23.64 c 0.331,0.593 0.66,1.183 0.983,1.762 0.137,0.246 0.263,0.485 0.398,0.73 H 0 Z" /></g><g
           transform="translate(50.3441,44.5375)"
           id="g100"><path
             id="path102"
             style="fill:#1d1d1b;fill-opacity:1;fill-rule:nonzero;stroke:none"
             d="m 0,0 h 20.147 c 0.472,0.837 0.938,1.667 1.401,2.491 H 0 Z" /></g><g
           transform="translate(64.6571,78.1703)"
           id="g104"><path
             id="path106"
             style="fill:#1d1d1b;fill-opacity:1;fill-rule:nonzero;stroke:none"
             d="M 0,0 H -14.313 V -2.491 H 0 C 0.032,-1.636 -0.011,-0.805 0,0" /></g><g
           transform="translate(50.3441,56.9941)"
           id="g108"><path
             id="path110"
             style="fill:#1d1d1b;fill-opacity:1;fill-rule:nonzero;stroke:none"
             d="m 0,0 h 27.032 c 0.439,0.837 0.873,1.67 1.289,2.491 H 0 Z" /></g><g
           transform="translate(50.3441,37.9477)"
           id="g112"><path
             id="path114"
             style="fill:#1d1d1b;fill-opacity:1;fill-rule:nonzero;stroke:none"
             d="m 0,0 h 16.423 c 0.472,0.833 0.942,1.663 1.41,2.492 H 0 Z" /></g></g></g></g></svg>